<?xml version="1.0" encoding="UTF-8"?>
<svg id="Layer_1" xmlns="http://www.w3.org/2000/svg" version="1.1" viewBox="0 0 1920 564">
  <!-- Generator: Adobe Illustrator 30.4.0, SVG Export Plug-In . SVG Version: 2.1.4 Build 226)  -->
  <defs>
    <style>
      .st0 {
        stroke: #5affd8;
        stroke-linecap: round;
        stroke-linejoin: round;
        stroke-width: 5px;
      }

      .st0, .st1 {
        fill: #48d2b4;
      }

      .st2 {
        fill: #5affd8;
      }
    </style>
  </defs>
  <g>
    <path class="st1" d="M1155.61,527.68c-18.52,0-36.92-1.48-45.97-12.2-5.44-6.44-7.06-15.69-4.97-28.26,6.92-19.78,14.74-39.66,22.31-58.88,4.63-11.77,9.42-23.94,13.96-35.98.02-.06.04-.12.06-.17,5.37-18.17,16.74-40.69,40.46-44.83,12.9-1.65,26.75-2.38,44.9-2.38,8.05,0,16.25.14,24.19.28,7.94.14,16.16.28,24.23.28,4.87,0,9.28-.05,13.48-.15.04,0,.08,0,.13,0,.49-.04.97-.05,1.45-.05,6.43,0,12.33,3.34,15.79,8.94,3.43,5.56,3.76,12.33.86,18.1-.04.07-.07.15-.1.22-.77,2.01-1.46,4.09-2.13,6.11-2.24,6.76-4.36,13.15-9.4,17.58-7.01,6.4-20.76,7.14-30.5,7.14-5.49,0-11.16-.26-16.64-.51-5.25-.24-10.21-.46-14.82-.46-3.5,0-6.43.13-8.95.41-7.9.1-18.35,3.62-22.01,13.23-2.18,5.62-4.25,11.39-6.24,16.97-2.35,6.57-4.79,13.36-7.41,19.93-1.73,3.44-1.58,7.41.4,10.66,1.93,3.17,5.28,5.06,8.96,5.06.57,0,1.14-.04,1.72-.13,6.07,0,12.15-.01,18.22-.01h18.34c16.4,0,30.2-.01,44.24-.1.1,0,.29,0,.48,0,8.46,0,16.31-5.45,18.67-12.97,4.38-12.97,9.65-25.98,14.76-38.56,6.77-16.68,13.76-33.92,18.84-51.51.02-.07.04-.15.05-.23,1.36-7.15-.4-14.7-4.82-20.74-11.51-16.9-23.21-34.2-34.53-50.92-25.84-38.18-52.56-77.67-79.43-116.08-.05-.08-.11-.15-.18-.22-7.88-8.91-19.05-10.06-27.91-10.06-4.18,0-8.45.29-12.58.57-4.08.28-7.93.54-11.63.54-2.04,0-3.83-.08-5.48-.24-.08,0-.15-.01-.23-.01h-.13c-8.96,0-17.1,5.59-19.79,13.59l-3.32,8.86c-9.35,25-19.03,50.86-29.48,75.85-5.74,11.71-17.55,20.02-30.14,21.19-50.21.55-101.26.55-150.64.55-13.5,0-26.99,0-40.48.01-1.12.01-2.21.02-3.29.02-11.17,0-19.45-1.08-26.23-6.44-12.24-9.54-16.62-28.62-9.98-43.46.02-.05.04-.1.06-.16,6.44-17.53,13.14-35.3,19.62-52.48,7.71-20.46,15.69-41.62,23.3-62.53,2.9-7.73,5.8-15.63,8.61-23.27,4.94-13.46,10.06-27.38,15.39-40.94,3.19-8.33,10.08-15.71,18.9-20.28,6.98-2.98,16.08-4.62,25.65-4.62,7.78,0,15.69,1.09,22.29,3.08,10.17,4.97,14.77,17.84,10.24,28.78-2.66,7.17-5.7,14.25-8.64,21.09-1.11,2.58-2.22,5.16-3.31,7.75-1.74,3.14-2,6.86-.68,9.76,1.09,2.39,3.17,4,5.86,4.53.16.03.32.05.49.05,0,0,.66,0,.66,0,5.12,0,10.34.25,15.38.5,5.05.24,10.26.5,15.46.5,1.65.19,3.5.28,5.65.28,2.73,0,5.66-.15,8.49-.29,2.9-.15,5.9-.3,8.78-.3,7.84,0,12.87,1.21,16.29,3.92,11.34,10.71.45,35.08-8.85,45.74-7.46,8.13-25.16,9.08-37.82,9.08-6.62,0-13.42-.28-20.01-.55-6.21-.26-12.07-.5-17.45-.5-4.4,0-8.01.17-11.02.51-5.01.07-9.35,1.76-12.24,4.77-3.37,3.28-4.64,7.48-5.88,11.54-.4,1.33-.79,2.58-1.24,3.79-.04.12-.08.24-.11.37-.72,3.5-2.78,8.51-4.95,13.82-5.02,12.27-10.21,24.95-5.73,32.14,2.33,3.43,6.53,5.28,11.89,5.28h.37c4.82-.2,9.94-.3,15.7-.3,6.93,0,14.02.14,20.87.28,6.88.14,14,.28,20.99.28,14.63,0,25.84-.62,36.36-2.01.2-.03.39-.08.58-.15,4.53-1.76,8.17-5.95,10.24-11.82,9.77-24.95,19.65-50.44,29.2-75.08,11.91-30.73,24.23-62.51,36.5-93.68,5.92-14.39,21.17-23.01,40.78-23.01,1.84,0,3.71.08,5.55.24.07,0,.15,0,.22,0,.03,0,.07,0,.1,0,1.49-.06,2.94-.09,4.31-.09,21.28,0,31.58,7.47,32.39,23.49-3.92,15.73-8.46,26.36-11.47,33.4-3.15,7.38-4.88,11.44-2.83,14.58,2.36,3.6,7.97,3.63,22.95,3.73,7.6.05,17.06.11,29.51.62,18.78.3,37.3,12.09,49.59,31.54,37.16,54.47,74.3,110.19,110.23,164.07l4.76,7.13c.44.67.9,1.37,1.36,2.06,3.34,5.02,6.79,10.22,7.85,16.03,2.91,13.07-2.64,25.47-8.02,37.47-.82,1.83-1.63,3.64-2.41,5.45-6.48,16.37-12.78,33.08-18.86,49.23-10.65,28.29-21.66,57.52-33.92,85.57-.33.26-.59.61-.75,1.02-.09.23-.15.45-.17.67-11.07,15.7-29.6,17.03-47.65,17.03-2.39,0-4.78-.03-7.16-.05-2.35-.03-4.69-.05-6.99-.05-1.27,0-2.52,0-3.77.03-15,.07-30.15.07-44.8.07-17.33,0-35.25,0-53.02.12-3.16,0-6.4.05-9.85.11-3.55.06-7.23.12-10.89.12Z"/>
    <path class="st2" d="M954.2,36.43c7.47,0,15.04,1.04,21.37,2.92,8.88,4.46,12.85,15.81,8.85,25.49-.02.06-.05.11-.07.17-2.6,7.03-5.63,14.08-8.56,20.9-1.09,2.54-2.19,5.09-3.26,7.64-2.05,3.79-2.32,8.32-.7,11.88,1.43,3.14,4.15,5.25,7.65,5.94.32.06.65.1.97.1,0,0,.01,0,.02,0h.64c5.06,0,10.24.25,15.25.49,5.03.24,10.23.5,15.44.51,1.71.19,3.61.28,5.79.28,2.8,0,5.76-.15,8.62-.3,2.87-.15,5.84-.3,8.65-.3,7.17,0,11.7,1.02,14.65,3.31,5.34,5.13,4.43,13.65,2.72,19.91-2.56,9.36-7.93,17.82-11.78,22.25-6.86,7.41-23.81,8.27-35.98,8.27-6.56,0-13.35-.28-19.91-.55-6.23-.26-12.12-.5-17.55-.5-4.43,0-8.1.17-11.19.51-5.62.1-10.52,2.05-13.85,5.5-3.8,3.72-5.24,8.42-6.5,12.57-.39,1.29-.76,2.51-1.19,3.64-.09.24-.16.48-.21.73-.68,3.27-2.69,8.18-4.81,13.38-5.26,12.85-10.69,26.14-5.53,34.41.03.06.07.11.11.16,2.76,4.06,7.7,6.29,13.9,6.29.14,0,.28,0,.42,0,.04,0,.08,0,.13,0,4.72-.2,9.8-.29,15.53-.29,6.91,0,13.98.14,20.83.28,6.89.14,14.02.28,21.04.28,14.74,0,26.05-.63,36.69-2.03.4-.05.78-.15,1.16-.3,5.2-2.02,9.34-6.71,11.67-13.24,9.79-25,19.65-50.45,29.19-75.07,11.91-30.73,24.22-62.5,36.49-93.65,5.54-13.44,19.92-21.46,38.47-21.46,1.77,0,3.56.08,5.33.23.15.01.29.02.44.02.07,0,.14,0,.2,0,1.45-.06,2.87-.09,4.21-.09,9.38,0,16.29,1.43,21.15,4.38,5.4,3.28,8.25,8.64,8.72,16.37-3.85,15.34-8.3,25.74-11.25,32.66-3.37,7.9-5.41,12.67-2.62,16.93,3.09,4.72,9.07,4.76,25.03,4.86,7.58.05,17.02.11,29.42.62.04,0,.08,0,.12,0,9.39.15,18.5,3.15,27.06,8.92,7.79,5.25,14.84,12.67,20.4,21.45.03.05.06.1.1.15,37.09,54.37,74.22,110.05,110.12,163.9l4.78,7.17c.46.7.92,1.39,1.38,2.09,3.35,5.03,6.51,9.79,7.47,15.1.01.06.02.13.04.19,2.71,12.16-2.43,23.65-7.88,35.81-.8,1.79-1.63,3.65-2.42,5.48-.02.05-.04.09-.06.14-6.46,16.32-12.76,33.03-18.84,49.2-10.58,28.1-21.52,57.14-33.67,84.99-.42.45-.75.97-.99,1.56-.06.15-.13.34-.18.56-10.44,14.34-28.09,15.57-45.32,15.57-2.38,0-4.79-.03-7.13-.05-2.31-.03-4.7-.05-7.03-.05-1.27,0-2.53,0-3.78.03-15.01.07-30.15.07-44.79.07-17.33,0-35.25,0-53,.12-3.19,0-6.45.05-9.9.11-3.54.06-7.21.12-10.85.12-17.06,0-35.64-1.34-44.06-11.31-4.91-5.81-6.36-14.33-4.44-26.02,6.89-19.67,14.67-39.45,22.2-58.59,4.64-11.78,9.43-23.96,13.97-36.01.04-.11.08-.23.12-.35,5.16-17.48,16.02-39.12,38.43-43.07,12.77-1.63,26.51-2.35,44.53-2.35,8.02,0,16.22.14,24.14.28,7.95.14,16.18.28,24.27.28,4.89,0,9.32-.05,13.54-.15.08,0,.17,0,.25-.01.42-.03.84-.05,1.26-.05,5.55,0,10.66,2.9,13.66,7.76,3.02,4.89,3.29,10.6.75,15.67-.07.15-.14.29-.2.45-.79,2.06-1.49,4.17-2.17,6.22-2.14,6.43-4.15,12.51-8.68,16.5-.02.02-.04.04-.07.06-6.34,5.79-19.46,6.46-28.78,6.46-5.43,0-11.07-.26-16.52-.5-5.28-.24-10.27-.47-14.94-.47-3.54,0-6.52.13-9.1.41-11.34.18-20.82,5.99-24.18,14.81-2.2,5.67-4.27,11.45-6.27,17.04-2.33,6.52-4.75,13.25-7.34,19.75-2.06,4.19-1.86,9.03.55,12.99,2.39,3.92,6.54,6.26,11.09,6.26.63,0,1.27-.04,1.9-.13,6.02,0,12.03-.01,18.05-.01h9.14s9.15,0,9.15,0c16.38,0,30.18-.02,44.2-.1.18,0,.36,0,.55,0,9.65,0,18.29-6.03,21.04-14.66,4.36-12.93,9.62-25.89,14.71-38.42,6.79-16.74,13.81-34.04,18.92-51.75.04-.15.08-.3.11-.45,1.48-7.79-.41-16.03-5.21-22.61-11.54-16.95-23.23-34.22-34.53-50.92-25.84-38.19-52.56-77.68-79.45-116.11-.11-.16-.23-.3-.35-.45-8.54-9.66-20.4-10.9-29.78-10.9-4.26,0-8.58.29-12.75.57-4.03.27-7.84.53-11.46.53-1.95,0-3.67-.08-5.24-.23-.15-.01-.31-.02-.46-.02h-.15c-9.98,0-19.07,6.25-22.13,15.21-1.11,2.96-2.22,5.92-3.32,8.88-9.34,24.95-18.99,50.76-29.41,75.68-5.36,10.88-16.32,18.6-27.99,19.72-50.17.55-101.19.55-150.54.55-13.49,0-26.97,0-40.46.01-.02,0-.03,0-.05,0-1.08.01-2.16.02-3.24.02-10.63,0-18.47-.99-24.71-5.93-11.36-8.85-15.41-26.62-9.22-40.45.05-.1.09-.21.13-.32,6.44-17.52,13.14-35.28,19.62-52.47,7.71-20.46,15.69-41.62,23.3-62.53,2.91-7.75,5.81-15.64,8.61-23.28,4.94-13.45,10.05-27.36,15.39-40.94,2.96-7.72,9.38-14.6,17.63-18.89,6.66-2.83,15.38-4.39,24.59-4.39M954.2,31.43c-9.46,0-18.97,1.53-26.72,4.86-8.91,4.59-16.54,12.18-20.16,21.63-8.37,21.29-15.98,42.86-24.02,64.27-13.99,38.45-28.8,76.6-42.92,115-6.91,15.44-2.84,35.88,10.71,46.44,7.84,6.21,17.59,6.98,27.78,6.98,1.09,0,2.19,0,3.29-.02,63.75-.05,127.51.13,191.25-.57,13.72-1.23,26.28-10.33,32.29-22.65,11.71-27.99,22.24-56.52,32.89-84.94,2.44-7.23,9.94-11.89,17.43-11.89.04,0,.08,0,.11,0,1.85.18,3.76.25,5.73.25,7.68,0,16.14-1.11,24.22-1.11,9.97,0,19.38,1.69,26.03,9.21,38.63,55.23,76.04,111.33,113.99,167.05,3.93,5.36,5.63,12.23,4.38,18.79-8.87,30.71-23.35,59.68-33.58,90.01-2.16,6.87-9.26,11.22-16.29,11.22-.16,0-.33,0-.49,0-14.75.09-29.5.1-44.25.1-6.1,0-12.19,0-18.29,0s-12.29,0-18.44.01c-.52.09-1.02.13-1.51.13-6.07,0-9.97-6.59-7.08-12.19,4.89-12.22,8.95-24.76,13.71-37.04,3.03-7.95,11.82-11.55,19.82-11.62,2.65-.3,5.62-.41,8.8-.41,9.42,0,20.72.97,31.46.97,13.03,0,25.22-1.43,32.15-7.77,7.18-6.33,8.93-16.14,12.21-24.67,7.07-14.12-3.52-30.66-18.88-30.66-.54,0-1.08.02-1.63.06-4.47.11-8.93.15-13.41.15-16.1,0-32.28-.56-48.41-.56-15.18,0-30.31.49-45.28,2.41-23.66,4.1-36.19,25.31-42.48,46.6-11.97,31.75-25.17,63.11-36.36,95.12-6.74,39.7,23.83,43.58,53.37,43.58,7.16,0,14.26-.23,20.75-.23,32.76-.22,65-.03,97.84-.19,1.23-.02,2.47-.03,3.73-.03,4.63,0,9.39.1,14.15.1,19.34,0,38.85-1.72,50.37-19.07-.11-.1-.22-.21-.22-.21,0,0,.06.05.22.2,19.51-44.47,35.38-90.74,53.29-135.96,6.07-14.07,14.11-28.56,10.59-44.36-1.3-7.15-5.7-13.09-9.59-19.03-38.12-57.18-76.22-114.38-114.95-171.15-11.31-17.9-29.7-32.35-51.6-32.7-73.11-2.99-50.34,9.32-35.75-49.59-.88-21.37-17.23-26.24-34.9-26.24-1.46,0-2.94.03-4.41.09-1.91-.17-3.84-.25-5.77-.25-17.73,0-35.96,7.18-43.11,24.59-22.11,56.16-43.71,112.6-65.73,168.84-1.53,4.32-4.35,8.6-8.79,10.32-11.88,1.57-23.92,1.98-36.04,1.98-13.93,0-27.94-.55-41.86-.55-5.26,0-10.51.08-15.74.3-.11,0-.22,0-.33,0-3.61,0-7.63-.96-9.77-4.1-5.68-9.1,8.67-32.85,11-44.13,1.84-4.93,2.6-10.62,6.55-14.44,2.72-2.86,6.77-4,10.62-4.03,3.2-.37,6.87-.51,10.87-.51,11.07,0,24.61,1.05,37.46,1.05,16.69,0,32.22-1.78,39.71-9.93,9.78-11.21,21.69-37.07,8.61-49.28-4.58-3.69-11.06-4.53-17.93-4.53-5.78,0-11.84.6-17.26.6-1.93,0-3.78-.08-5.51-.28-10.38,0-20.62-1-30.98-1-.22,0-.44,0-.66,0-5.11-1.01-5.67-6.79-3.42-10.73,4.06-9.64,8.37-19.17,12.01-28.99,4.93-11.93.25-26.4-11.64-32.07-6.91-2.11-15.03-3.25-23.2-3.25h0ZM1342.45,510.76s0,0,0,0c.1.1.21.19.21.19,0,0-.05-.05-.2-.2h0Z"/>
  </g>
  <g>
    <path class="st1" d="M103.25,463.86c-.7,0-1.39-.02-2.08-.05-.04,0-7.47-.01-7.47-.01-8.38,0-17.05-.02-25.57-.11,0,0-.08,0-.11,0-.26,0-.52.01-.78.01-8.73,0-17.72-4.63-24.06-12.4-6.61-9.26-8.36-21.26-4.57-31.32,4.48-12.93,9.39-25.91,14.14-38.45,2.06-5.45,4.13-10.91,6.16-16.37,15.95-42.72,32.61-86,48.72-127.85l8.7-22.62c.78-2.08,1.53-4.15,2.29-6.22,2.72-7.44,5.54-15.13,8.92-22.38,7.5-15.55,22.54-27.46,39.22-31.04.04,0,.08-.02.11-.03,4.69-1.24,9.51-1.34,14.86-1.34h2.25c1.06,0,2.13,0,3.18-.02,38.45-.04,76.95-.05,115.44-.05h106.75c27.25,0,54.49,0,81.74-.01.06,0,.21,0,.35,0,7.29,0,13.69-5.74,14.02-12.54.31-3.2-.8-6.49-3.07-9.05-2.17-2.45-5.17-3.89-8.22-3.95-45,.04-93.96.06-154.11.06-33.56,0-67.1,0-100.66-.01h-67.26c-.29,0-.55,0-.81,0-10.94,0-21.03-3.35-28.41-9.44-9.15-7.36-14.82-18.14-15.19-28.87-1.29-18.06,8.92-35.81,24.82-43.25,4.78-2.34,9.99-3.2,15.52-4.11l2.1-.35c1.33-.27,2.69-.27,4.13-.28h.89c36.62-.06,75.33-.09,125.48-.09,23.91,0,47.82,0,71.74.01,23.91,0,47.83.01,71.74.01,41.14,0,95.48-.01,150.94-.13,8.69.38,16.46.95,23.46,4.05.06.03.12.05.18.07,16.38,5.77,28.32,23.15,29.05,42.27.24,9.16-3.01,18.01-6.66,27.02l-.19.49c-7.65,19.3-15.57,39.25-23.73,58.71-7.82,18.55-21.96,33.83-38.8,41.9-9.79,5.04-21.44,7.38-36.73,7.38-.85,0-1.71,0-2.56-.02-73.45.15-148.59.16-213.26.16h-66.8c-.08,0-.15,0-.23,0-14.86,1.38-27.81,7.25-36.48,16.52-5.66,5.58-8.51,12.8-11.27,19.79-.57,1.44-1.14,2.88-1.73,4.3-6.33,15.42-12.52,31.18-18.51,46.41-6.02,15.31-12.24,31.14-18.59,46.6-2.38,6.02-4.78,11.99-7.18,17.97-4.79,11.95-9.75,24.31-14.42,36.56-1.19,2.91-2.35,5.94-3.47,8.87-2.38,6.2-4.84,12.61-7.8,18.63-5.26,10.45-13.35,18.22-22.78,21.85-.05.02-.1.04-.14.06-3.78,1.73-8.22,2.61-13.22,2.61Z"/>
    <path class="st2" d="M595.06,44.14c8.41.37,15.91.92,22.5,3.84.12.05.24.1.37.15,15.42,5.43,26.68,21.86,27.38,39.97.22,8.7-2.94,17.27-6.49,26.05l-.2.51c-7.64,19.27-15.55,39.2-23.7,58.62-7.59,18-21.29,32.81-37.58,40.62-.04.02-.08.04-.13.06-9.36,4.82-20.65,7.07-35.53,7.07-.84,0-1.68,0-2.51-.02-.03,0-.05,0-.08,0,0,0,0,0-.01,0-73.32.15-148.29.16-212.8.16h-33.6s-33.6,0-33.6,0c-.15,0-.31,0-.46.02-15.45,1.44-28.95,7.57-38.04,17.27-6.01,5.94-8.96,13.4-11.81,20.62-.58,1.48-1.13,2.87-1.72,4.28-6.33,15.43-12.53,31.19-18.52,46.43-6.01,15.3-12.23,31.12-18.58,46.57,0,.02-.02.04-.02.06-2.37,5.98-4.8,12.06-7.16,17.93-4.79,11.95-9.74,24.3-14.41,36.55-1.21,2.97-2.37,5.99-3.49,8.91-2.36,6.15-4.8,12.51-7.69,18.38-4.99,9.92-12.61,17.25-21.45,20.66-.1.04-.19.08-.29.12-3.45,1.58-7.54,2.39-12.18,2.39-.64,0-1.3-.02-1.97-.05-.07,0-.15,0-.22,0-2.44,0-4.88,0-7.33,0-8.39,0-17.06-.02-25.58-.11-.02,0-.04,0-.05,0-.05,0-.11,0-.16,0-.23,0-.47.01-.7.01-7.97,0-16.21-4.27-22.08-11.42-6-8.46-7.66-19.79-4.22-28.92.02-.04.03-.08.05-.13,4.45-12.84,9.35-25.79,14.09-38.32,2.03-5.37,4.13-10.91,6.17-16.38,15.94-42.69,32.59-85.95,48.69-127.78,2.91-7.55,5.82-15.11,8.72-22.66,0-.02.01-.03.02-.05.77-2.06,1.53-4.13,2.29-6.2,2.7-7.38,5.49-15.01,8.83-22.16,7.19-14.89,21.56-26.26,37.49-29.69.08-.02.15-.03.23-.05,4.4-1.16,9.05-1.26,14.23-1.26h1.11s1.12,0,1.12,0c1.07,0,2.13,0,3.2-.02,42.26-.04,83.88-.05,115.43-.05,17.8,0,35.6,0,53.4,0,17.8,0,35.6,0,53.4,0,27.21,0,54.41,0,81.62-.02.14,0,.28,0,.43,0,8.56,0,16.08-6.79,16.51-14.86.36-3.87-.98-7.83-3.69-10.89-2.64-2.98-6.3-4.72-10.04-4.79-.03,0-.06,0-.09,0-44.92.04-93.83.06-153.93.06-33.35,0-66.69,0-100.04-.01-22.67,0-45.34,0-68.01,0-.02,0-.05,0-.07,0-.24,0-.49,0-.73,0-10.36,0-19.88-3.15-26.82-8.87-.02-.01-.03-.02-.05-.04-8.56-6.89-13.89-16.98-14.24-26.99,0-.06,0-.12,0-.18-1.21-16.96,8.41-33.7,23.39-40.72.03-.01.05-.03.08-.04,4.41-2.16,9.45-2.99,14.78-3.87.71-.12,1.41-.23,2.11-.35.05,0,.11-.02.16-.03,1-.2,2.25-.21,3.56-.21.3,0,.6,0,.86,0,36.64-.06,75.33-.08,125.45-.08,23.92,0,47.83,0,71.75.01,23.92,0,47.83.01,71.75.01,41.13,0,95.43-.01,150.91-.13M595.16,39.14c-50.34.1-100.67.13-151.02.13s-95.67-.02-143.5-.02c-41.82,0-83.64.02-125.45.08-1.81.02-3.64-.04-5.41.32-6.2,1.05-12.55,1.86-18.26,4.66-17.01,7.96-27.59,26.98-26.26,45.6.42,11.99,6.85,23.27,16.1,30.71,8.36,6.89,19.28,10.01,30,10.01.27,0,.54,0,.81,0,56.02,0,112.03.02,168.04.02,51.31,0,102.63-.01,153.94-.06,5.16.09,9.36,5.25,8.83,10.31-.24,5.82-5.91,10.23-11.53,10.23-.12,0-.24,0-.35,0-27.23.02-54.46.02-81.69.02-35.6,0-71.2,0-106.8,0-38.48,0-76.98,0-115.47.05-1.05.02-2.1.02-3.16.02-.74,0-1.49,0-2.23,0-5.21,0-10.44.08-15.51,1.42-17.68,3.8-33.11,16.16-40.96,32.43-4.36,9.34-7.68,19.11-11.28,28.76-19.27,50.11-38.65,100.19-57.43,150.49-6.8,18.25-13.92,36.4-20.3,54.81-4.2,11.14-1.95,24.14,4.92,33.72,6.29,7.74,15.91,13.38,26.05,13.38.29,0,.57,0,.86-.01,10.98.12,21.97.1,32.95.12.73.03,1.46.05,2.2.05,4.89,0,9.79-.79,14.26-2.84,10.72-4.13,19.03-12.96,24.12-23.08,4.41-8.97,7.6-18.46,11.36-27.71,6.96-18.25,14.38-36.32,21.57-54.47,12.68-30.88,24.43-62.13,37.1-93,3.39-8.12,6.05-16.98,12.49-23.31,8.99-9.64,22.01-14.58,34.92-15.78,22.41,0,44.8,0,67.2,0,70.93,0,141.88-.02,212.82-.16.86.01,1.73.02,2.59.02,12.94,0,26.18-1.63,37.82-7.62,18.17-8.72,32.24-24.74,40.02-43.19,8.24-19.64,16.09-39.44,23.94-59.23,3.62-8.94,7.1-18.25,6.84-28.05-.72-18.93-12.4-38.08-30.72-44.53-7.67-3.4-16.16-3.91-24.42-4.27h0Z"/>
  </g>
  <g>
    <path class="st1" d="M779.06,288.1c-1.82,0-3.73-.12-5.68-.35-.1-.01-.2-.02-.3-.02,0,0-133.63.27-136.97.28-10.92-.56-19.08-4.37-24.23-11.33-6.49-8.77-7.91-22.2-3.99-37.82,4.28-17.05,10.15-40.39,29.91-46.58,14.85-3.14,31.05-4.54,52.49-4.54,9.12,0,18.44.25,27.46.49,9.02.24,18.35.49,27.49.49,5.79,0,11-.1,15.94-.3.34-.01.67-.02,1-.02,5.76,0,9.37,2.09,10.72,6.21,2.77,8.42-3.86,22.63-11.08,28.09-6.75,3.38-16.54,3.84-25.25,3.84-2.8,0-5.61-.05-8.32-.1-2.55-.05-5.03-.1-7.39-.1-1.2,0-3.21-.1-5.53-.21-4.02-.2-9.02-.44-14.23-.44-11.52,0-24.83,1-25.94,8.73-.58,2.15-.13,4.43,1.24,6.29,1.56,2.11,4.15,3.42,6.75,3.42h.19c11.99-.04,24.04-.05,36.09-.07,15.32-.02,31.17-.03,46.75-.11.09,0,.18,0,.27-.02,8.79-.98,16.54-7.78,19.3-16.9,2.88-8.33,6.22-16.79,9.46-24.96,2.24-5.67,4.56-11.53,6.72-17.35,1.28-2.97.88-6.51-1.06-9.5-1.96-3.02-5.08-4.81-8.34-4.81-.15,0-.3,0-.45.01-6.31,0-12.61-.01-18.92-.01-9.15,0-18.3,0-27.45.01-9.15,0-18.29.01-27.44.01-16.1,0-29.22-.02-41.29-.06h0c-.07,0-.14,0-.22,0-1.88.16-3.7.24-5.4.24-9.88,0-16.8-2.76-20-7.98-3.89-6.34-2.59-16.59,3.65-28.86.03-.06.06-.12.08-.18,6.15-14.86,22.64-23.73,44.11-23.73,1.25,0,2.52.03,3.77.1.04,0,9.15,0,9.15,0,17.64-.02,35.28-.04,52.93-.04,23.78,0,43.51.04,62.07.13,0,0,.11,0,.16,0,.62-.04,1.24-.06,1.86-.06,13.12,0,24.72,7.91,28.2,19.23,4.16,11.9-6,36-14.17,55.37-4.21,9.99-8.2,19.44-10.15,26.71-3.43,7.17-6.17,15.45-9.08,24.21-8.57,25.86-17.43,52.59-44.87,52.59Z"/>
    <path class="st2" d="M699.19,112.37c1.21,0,2.43.03,3.64.09.08,0,.17,0,.25,0,0,0,0,0,0,0h8.79c17.72-.03,35.43-.05,53.15-.05,23.78,0,43.5.04,62.06.13,0,0,.02,0,.02,0,.1,0,.2,0,.3,0,.57-.03,1.14-.05,1.71-.05,12.04,0,22.65,7.18,25.81,17.46.02.06.04.12.06.18,3.82,10.9-6.14,34.51-14.14,53.48-4.21,9.97-8.18,19.41-10.2,26.82-3.45,7.27-6.19,15.54-9.09,24.3-4.23,12.76-8.6,25.95-15.28,35.69-7.11,10.37-15.76,15.2-27.22,15.2-1.72,0-3.53-.11-5.38-.33-.2-.02-.39-.04-.59-.04,0,0,0,0-.01,0-1.34,0-132.26.27-136.89.28-10.11-.53-17.61-4-22.28-10.32-6.04-8.16-7.31-20.84-3.57-35.72,2.11-8.41,4.75-18.89,9.35-27.61,4.78-9.05,10.92-14.67,18.77-17.16,14.64-3.09,30.65-4.47,51.85-4.47,9.09,0,18.39.25,27.39.48,9.04.24,18.38.49,27.55.49,5.82,0,11.07-.1,16.04-.3.31-.01.61-.02.9-.02,6.87,0,7.94,3.26,8.35,4.49,2.39,7.25-3.58,20.14-10.03,25.18-6.33,3.07-16.09,3.47-23.92,3.47-2.77,0-5.57-.05-8.28-.1-2.59-.05-5.04-.1-7.43-.1-1.14,0-3.12-.1-5.41-.21-3.83-.19-9.08-.44-14.35-.44-12.48,0-26.91,1.23-28.39,10.73-.72,2.85-.12,5.84,1.69,8.27,2.06,2.78,5.33,4.43,8.76,4.43.06,0,.13,0,.19,0,12.04-.04,24.27-.05,36.11-.06,15.32-.02,31.16-.03,46.74-.11.18,0,.36-.01.53-.03,9.73-1.09,18.32-8.55,21.39-18.56,2.89-8.35,6.21-16.74,9.42-24.86,2.24-5.66,4.55-11.51,6.72-17.34,1.58-3.73,1.1-8.12-1.29-11.79-2.43-3.73-6.33-5.95-10.44-5.95-.17,0-.34,0-.51.01-6.32,0-12.64-.01-18.95-.01-9.13,0-18.27,0-27.4.01-9.13,0-18.26.01-27.39.01-16.11,0-29.23-.02-41.29-.06,0,0-.01,0-.02,0-.14,0-.29,0-.43.02-1.81.16-3.55.23-5.19.23-6.25,0-14.43-1.18-17.87-6.79-3.42-5.57-2.09-14.95,3.74-26.42.06-.12.11-.23.16-.35,3.07-7.42,8.66-13.13,16.62-16.97,7.07-3.41,15.78-5.21,25.18-5.21h0M699.19,107.37c-18.68,0-38.78,6.8-46.42,25.27-12.01,23.61-6.66,40.47,18.58,40.47,1.77,0,3.65-.08,5.62-.25,13.77.05,27.54.07,41.31.07,18.26,0,36.52-.03,54.79-.03,6.36,0,12.72,0,19.08.01.13,0,.26-.01.38-.01,5.13,0,9.16,6.18,7.09,10.88-5.28,14.22-11.29,28.17-16.25,42.52-2.32,7.67-9.07,14.23-17.19,15.14-27.63.13-55.26.08-82.89.17-.04,0-.09,0-.13,0-3.41,0-6.59-3.22-5.53-6.7.61-5.55,12.23-6.74,23.48-6.74,8.34,0,16.47.65,19.75.65,4.88,0,10.29.2,15.71.2,9.78,0,19.62-.64,26.57-4.21,12.2-9,21.96-38.93-.96-38.93-.36,0-.72,0-1.1.02-5.26.21-10.54.29-15.84.29-18.23,0-36.65-.97-54.94-.97s-35.74.93-53.12,4.62c-20.86,6.45-27.05,29.87-31.7,48.39-6.71,26.69,1.17,50.79,30.58,52.26h0c.32,0,137.03-.28,137.03-.28,2.08.25,4.07.37,5.97.37,38.93,0,42.6-49.99,56.3-78.44,5.75-21.82,30.97-64.78,24.35-83.69-4.05-13.17-17.25-20.99-30.59-20.99-.67,0-1.34.02-2.01.06-20.69-.1-41.39-.13-62.09-.13s-41.3.03-61.94.05c-1.29-.06-2.59-.1-3.89-.1h0Z"/>
  </g>
  <g>
    <path class="st1" d="M145.1,528.7c-10.39,0-20.77,0-31.15-.01h-23.9c-3.18-.07-5.47-.21-7.9-.36-1.27-.08-2.55-.16-3.97-.22-.04,0-.54,0-.54,0-8.73,0-16.82-8.23-16.99-17.26,0-.03,0-.07,0-.1-.6-10.1,7.76-20.43,18.62-23.02,5.21-1.28,10.75-1.39,15.54-1.39.87,0,4.35.02,5.23.02.69,0,1.38,0,2.06,0,29.04-.07,58.59-.22,87.17-.37,11.62-.06,23.25-.12,34.87-.17.96-.03,1.88-.04,2.79-.05,5.19-.08,10.55-.16,15.7-2.14,5.1-1.86,9.47-5.33,12.27-9.74,1.42-2.26,2.22-4.68,2.99-7.01.68-2.05,1.32-3.99,2.34-5.68,2.89-4.81,7.89-8.45,13.38-9.73,3.5-.91,7.09-.99,10.47-.99h3.45c.56.01,1.11,0,1.66,0,15.13,0,30.3,0,45.46,0,43.35,0,78.77.03,111.47.11.24,0,.56.01.88.01,2.5,0,4.95-.3,7.31-.59,1.34-.16,2.72-.33,4.06-.44.07,0,.13-.01.2-.02,4.77-.76,8.67-4.61,9.93-9.81,1.22-5-.36-9.84-4.13-12.62-.06-.04-.12-.08-.18-.12-4.1-2.5-8.81-2.71-13.28-2.71h-2.8c-9.94,0-73.71,0-73.71,0-24.77,0-49.54,0-74.31-.05,0,0-.09,0-.13,0-.27.01-.54.02-.81.02-6.94,0-15.09-4.81-16.15-12.57-.66-3.97.94-7.71,2.63-11.66.52-1.22,1.06-2.48,1.53-3.75.79-1.89,1.54-3.93,2.27-5.9,2.06-5.56,4.01-10.8,7.38-15.27,7.65-9.46,20.66-10.88,27.73-10.88h.55c13.98-.13,29.2-.19,47.95-.19,10.1,0,20.2.02,30.3.03,10.1.02,20.2.03,30.3.03,6.51,0,13.01,0,19.51-.03.06,0,.13,0,.19,0l.73-.05c3.91-.29,8.78-.66,11.95-4.47,3.21-3.61,3.99-9.41,1.88-14.14-1.83-4.11-5.49-6.56-9.78-6.56h-.14c-17.35.01-34.73.04-52.11.07-21.6.04-43.21.07-64.81.07-11.97,0-23.94-.01-35.91-.04-.4-.02-.79-.03-1.19-.03-8.12,0-16.41,3.66-22.15,9.78-2.35,2.52-3.59,5.53-4.79,8.44-.17.41-.34.81-.51,1.22-5.03,12.63-9.97,25.49-14.74,37.92-5.96,15.54-12.13,31.6-18.5,47.27-3.31,8.41-9.25,14.98-16.32,18.05-4.33,1.93-9.1,2.19-13.21,2.19-1.46,0-2.92-.04-4.38-.07-1.49-.04-2.98-.07-4.47-.07-.97,0-1.94.01-2.9.05-.65.03-1.31.04-1.96.04-8.06,0-14.57-1.96-19.36-5.84-6.08-4.76-9.54-13.14-9.05-21.91.55-5.77,2.72-11.23,5.02-17,.83-2.09,1.69-4.25,2.45-6.41,8.21-20.58,16.39-41.68,24.31-62.07,8.29-21.36,16.86-43.44,25.51-65.07,2.83-7.42,5.75-15.05,11.19-20.66,6.89-7.23,18.95-13.25,28.11-14.04l14.99-.41c29.2-.1,61.32-.15,101.05-.15,20.16,0,40.33.01,60.49.02,20.16.01,40.33.02,60.49.02,14.3,0,28.59,0,42.89-.02h.23c13.59,0,25.82,4.66,33.55,12.79,7.7,7.56,12.15,18.92,12.28,31.26-.14.91-.28,1.82-.41,2.73-.64,4.34-1.25,8.44-2.79,12.3-.01.03-.02.06-.04.09-3.88,11.01-8.13,22.11-12.24,32.84-1.11,2.9-2.22,5.79-3.32,8.69l-.09.23c-4.19,11.11-8.52,22.59-18.15,29.08-.07.04-.13.09-.19.14-.73.6-1.76,1.03-2.85,1.48-1.77.73-3.77,1.56-5.26,3.44-.14.18-.26.37-.34.58-1.8,4.23-1.79,10.01,2.32,13.4.12.1.24.18.37.25,2.25,1.26,4.71,1.62,6.87,1.94,1.06.16,2.07.31,3.01.55,6.67,1.7,11.72,4.6,15.01,8.6,6.96,8.33,9.18,20.67,5.66,31.45-3.57,11.05-8.06,22.02-12.39,32.63-2.18,5.34-4.44,10.85-6.55,16.33-2.44,5.89-5.22,12.61-9.57,18-.49.32-.76.75-.91,1.15-9.57,12.05-28.41,16.13-36.35,17.35-18.09.19-37.37.27-62.46.27-11.02,0-22.04-.02-33.05-.03-11.02-.02-22.03-.03-33.05-.03-7.46,0-14.91,0-22.36.03h-8.87c-10.6,0-21.21,0-31.81-.02-10.6-.01-21.2-.02-31.8-.02-7.48,0-14.97,0-22.45.02h-.18c-.84,0-1.65.02-2.46.04-.79.02-1.59.04-2.44.04-.34,0-.69,0-1.05-.01-1.34-.02-2.47-.02-3.56-.03-1.98,0-3.68-.02-5.96-.09-.03,0-.14,0-.16,0-1.23.04-2.58.05-4.05.05h-1.59c-8.93,0-18.04.24-26.85.47-8.47.22-17.23.46-25.78.47-.48-.03-.81-.03-1.13-.03-.3,0-.6,0-1.03.02l-.69.02c-13.97.05-29.26.08-48.07.08Z"/>
    <path class="st2" d="M384.3,252.65c20.16,0,40.32.01,60.48.02,20.16.01,40.32.02,60.49.02,14.29,0,28.57,0,42.88-.02h.22c12.91,0,24.48,4.38,31.74,12.02.04.04.08.08.12.12,7.13,6.99,11.3,17.63,11.47,29.23-.13.85-.26,1.69-.38,2.54-.62,4.19-1.21,8.15-2.64,11.74-.02.06-.05.12-.07.19-3.87,10.98-8.11,22.06-12.22,32.78-1.11,2.9-2.22,5.79-3.33,8.71l-.08.22c-4.05,10.74-8.24,21.84-17.21,27.89-.13.09-.26.18-.38.28-.45.37-1.31.72-2.22,1.1-1.84.76-4.36,1.81-6.26,4.19-.28.35-.51.74-.69,1.15-2.17,5.08-2.08,12.1,3.03,16.31.23.19.48.36.75.51,2.65,1.48,5.35,1.88,7.72,2.23,1,.15,1.95.29,2.76.49,6.15,1.57,10.76,4.18,13.73,7.8,6.41,7.67,8.45,19.07,5.18,29.07-3.54,10.95-8.01,21.88-12.32,32.44-2.18,5.33-4.43,10.84-6.55,16.32-2.35,5.67-5,12.07-9,17.13-.61.48-1.06,1.08-1.36,1.72-9.02,11.05-26.69,14.92-34.37,16.11-18.03.19-37.26.27-62.27.27-11.01,0-22.02-.02-33.03-.03-11.01-.02-22.03-.03-33.04-.03-7.47,0-14.93,0-22.38.03-2.96,0-5.92,0-8.88,0-10.6,0-21.2-.01-31.8-.02-10.6-.01-21.2-.02-31.81-.02-7.48,0-14.96,0-22.42.02h-.21c-.86,0-1.69.02-2.52.04-.77.02-1.55.04-2.38.04-.32,0-.66,0-1.04-.01-1.32-.02-2.47-.02-3.56-.03-1.96,0-3.65-.02-5.89-.09-.06,0-.11,0-.17,0-.05,0-.1,0-.16,0-1.23.04-2.62.04-3.95.04h-1.05s-.57,0-.57,0c-8.96,0-18.09.24-26.92.47-8.43.22-17.15.45-25.65.47-.48-.02-.83-.03-1.2-.03-.33,0-.65,0-1.11.02l-.62.02c-14,.05-29.28.08-48.05.08-10.42,0-20.83,0-31.25-.01-7.92,0-15.84-.01-23.77-.01-3.15-.06-5.41-.19-7.79-.34-1.28-.08-2.57-.16-4-.22-.08,0-.16,0-.23,0-.04,0-.09,0-.13,0-.1,0-.2,0-.3,0-7.31,0-14.35-7.2-14.49-14.81,0-.07,0-.13,0-.2-.59-10.02,8.21-18.41,16.74-20.45,4.92-1.21,10.28-1.31,14.92-1.31.86,0,1.73,0,2.59,0,.88,0,1.76,0,2.63,0,.7,0,1.39,0,2.05,0,29.07-.07,58.62-.22,87.21-.37,11.62-.06,23.24-.12,34.86-.17.04,0,.07,0,.11,0,.9-.02,1.8-.04,2.71-.05,5.39-.08,10.97-.17,16.52-2.3,5.63-2.07,10.44-5.89,13.53-10.77,1.58-2.51,2.47-5.19,3.25-7.55.63-1.92,1.23-3.73,2.11-5.18,2.55-4.24,6.96-7.45,11.8-8.58.04,0,.08-.02.12-.03,3.15-.82,6.56-.89,9.77-.89.57,0,1.14,0,1.71,0,.58,0,1.17,0,1.75,0,.55,0,1.1,0,1.66,0,15.15,0,30.32,0,45.47,0,43.32,0,78.72.03,111.38.11.32,0,.64.01.96.01,2.65,0,5.17-.31,7.61-.61,1.37-.17,2.67-.33,3.95-.43.13-.01.26-.03.39-.05,5.76-.92,10.46-5.51,11.96-11.69,1.46-6-.48-11.83-5.07-15.22-.12-.09-.24-.17-.36-.25-4.65-2.84-9.97-3.08-14.58-3.08h-1.2s-1.14,0-1.14,0h-.47c-9.87,0-19.74,0-29.61,0h-22.2s-22.2,0-22.2,0c-22.11,0-48.19,0-74-.05,0,0,0,0,0,0-.08,0-.17,0-.25,0-.23.01-.45.02-.68.02-5.89,0-12.8-3.98-13.67-10.41,0-.05-.01-.09-.02-.14-.53-3.18.87-6.43,2.48-10.2.52-1.22,1.06-2.48,1.54-3.78.82-1.99,1.58-4.02,2.3-5.98,1.99-5.35,3.86-10.41,6.98-14.56,7.05-8.66,19.18-9.95,25.79-9.95.17,0,.35,0,.52,0,.02,0,.03,0,.05,0s.03,0,.05,0c13.93-.13,29.15-.19,47.9-.19,10.1,0,20.19.02,30.29.03,10.1.02,20.2.03,30.3.03,6.5,0,13,0,19.51-.03.13,0,.25,0,.38-.02l.72-.05c4.15-.31,9.81-.73,13.65-5.33,3.88-4.39,4.8-11.12,2.27-16.78-2.24-5.04-6.75-8.05-12.06-8.05h-.11c-17.35.01-34.71.04-52.06.07-21.24.04-43.21.07-64.82.07-12.95,0-24.7-.01-35.93-.04-.41-.02-.83-.03-1.24-.03-8.8,0-17.77,3.95-23.99,10.59-2.65,2.84-4.04,6.22-5.26,9.19-.17.4-.33.8-.5,1.2-.01.03-.02.06-.04.09-5.02,12.6-9.96,25.47-14.73,37.91-5.96,15.53-12.12,31.58-18.48,47.22,0,.02-.01.04-.02.06-3.05,7.77-8.51,13.84-14.98,16.64-.02,0-.03.01-.05.02-3.86,1.73-8.13,1.96-12.16,1.96-1.42,0-2.89-.03-4.32-.07-1.48-.04-3-.07-4.52-.07-1.09,0-2.07.02-2.99.06-.63.02-1.26.04-1.87.04-7.47,0-13.46-1.78-17.79-5.28-.02-.02-.04-.03-.06-.05-5.4-4.22-8.48-11.75-8.06-19.67.54-5.48,2.63-10.74,4.85-16.32.83-2.08,1.68-4.23,2.46-6.41,8.24-20.66,16.41-41.73,24.32-62.1,8.29-21.35,16.85-43.43,25.49-65.05,0-.02.02-.05.03-.07,2.73-7.15,5.55-14.54,10.64-19.77.01-.01.02-.02.03-.04,6.37-6.69,17.95-12.49,26.43-13.25l14.86-.4c29.24-.11,61.36-.16,101.08-.16M384.3,247.65c-33.71,0-67.44.03-101.16.16l-15.06.41c-10.17.85-22.8,7.48-29.77,14.8-5.79,5.96-8.81,13.85-11.72,21.47-16.91,42.3-32.98,84.93-49.85,127.24-2.81,7.93-6.8,15.62-7.61,24.11-.5,8.9,2.8,18.38,9.97,23.99,5.87,4.75,13.51,6.39,20.94,6.39.69,0,1.38-.01,2.06-.04.93-.04,1.86-.05,2.79-.05,2.93,0,5.89.14,8.84.14,4.87,0,9.68-.38,14.2-2.4,8.32-3.61,14.37-11.08,17.64-19.4,11.48-28.22,21.95-56.85,33.23-85.16,1.31-3.11,2.47-6.41,4.81-8.92,5.2-5.55,12.7-9,20.33-9,.38,0,.75,0,1.13.03,12.01.03,24.02.04,36.04.04,38.96,0,77.92-.12,116.88-.14.04,0,.07,0,.11,0,8.22,0,10.93,11.1,6,16.57-2.65,3.23-7.14,3.36-10.97,3.66-6.5.02-12.99.03-19.49.03-20.2,0-40.4-.07-60.6-.07-15.98,0-31.97.04-47.94.19-.19,0-.38,0-.57,0-10.87,0-22.64,3.11-29.73,11.87-4.87,6.45-6.95,14.43-10,21.8-1.99,5.36-5.29,10.65-4.3,16.62,1.21,8.84,10.09,14.73,18.63,14.73.31,0,.62,0,.93-.02,24.67.04,49.34.05,74.01.05,14.8,0,29.6,0,44.4,0,9.86,0,19.74,0,29.6,0,.16,0,.31,0,.47,0,.77,0,1.55,0,2.34,0,4.13,0,8.42.17,11.98,2.35,6.63,4.9,3.22,16.68-4.71,17.95-3.74.3-7.43,1.02-11.17,1.02-.29,0-.58,0-.88-.01-37.16-.09-74.31-.11-111.47-.11-15.17,0-30.34,0-45.5,0-.54,0-1.08,0-1.62,0-1.15,0-2.31-.01-3.46-.01-3.71,0-7.42.11-11.03,1.05-6.16,1.44-11.69,5.45-14.95,10.88-2.37,3.94-2.84,8.73-5.3,12.64-2.57,4.05-6.57,7.11-11.06,8.75-5.6,2.16-11.71,1.87-17.6,2.03-40.68.19-81.37.44-122.05.54-.68,0-1.36,0-2.03,0-1.74,0-3.48-.02-5.23-.02-5.42,0-10.84.16-16.12,1.46-11.39,2.72-21.25,13.55-20.54,25.6.19,10.19,9.26,19.72,19.49,19.72.14,0,.28,0,.43,0,4.12.19,6.99.48,11.98.57,18.35,0,36.7.03,55.06.03,16.04,0,32.09-.02,48.13-.08.82-.02,1.23-.04,1.65-.04.3,0,.61,0,1.07.03,17.49-.03,35.2-.94,52.7-.94.19,0,.38,0,.56,0,.36,0,.71,0,1.06,0,1.49,0,2.86,0,4.1-.05,3.6.12,5.89.07,9.55.12.38,0,.74.01,1.1.01,1.71,0,3.25-.08,4.9-.08.06,0,.12,0,.19,0,7.48-.01,14.96-.02,22.44-.02,21.2,0,42.4.04,63.61.04,2.96,0,5.92,0,8.88,0,7.46-.02,14.92-.03,22.38-.03,22.02,0,44.05.06,66.07.06s41.79-.06,62.68-.28c13.55-2.05,30.12-7.61,38.64-18.98-.08.02-.16.04-.17.04,0,0,.04-.01.17-.04,4.67-5.61,7.55-12.42,10.32-19.11,6.33-16.36,13.59-32.38,18.99-49.08,3.7-11.32,1.59-24.61-6.1-33.81-4.1-4.99-10.18-7.87-16.33-9.44-3.08-.78-6.45-.67-9.28-2.25-3.09-2.55-3.07-7.07-1.61-10.49,1.93-2.42,5.39-2.61,7.74-4.54,10.36-6.98,14.95-19.28,19.18-30.49,5.27-13.83,10.67-27.62,15.59-41.59,2.01-5.05,2.53-10.45,3.38-15.76-.08-12.09-4.2-24.57-12.97-33.17-9.06-9.53-22.48-13.57-35.36-13.57-.08,0-.16,0-.24,0-14.29.02-28.57.02-42.86.02-40.32,0-80.65-.05-120.96-.05h0ZM554.98,510.94s-.05,0-.17.04c0,0,0,0,0,0,.09-.02.18-.04.17-.04h0Z"/>
  </g>
  <path class="st0" d="M676.01,390.07c4.44.81,5.26,6.34,3.59,9.87-6.72,18.37-13.83,36.61-20.29,55.08-1.57,5.04-5.41,10.17-11.02,10.73-23.37-.33-54.05-2.42-64.49,23.76-8.72,18.87-13.76,41.63,14.83,41.7.35.26-.35-.27,0,0,48.5.23,96.39.26,144.84.14,31.41-1.48,55.6,5.41,67.58-34.64,5.2-14.04-4.19-30.91-19.89-30.75-15.36-.18-30.72-.19-46.08-.26-11.2.23-7.46-12.53-4.3-18.93,5.58-15.63,12.06-30.91,17.71-46.5,2.13-6.01,8.07-10.96,14.65-10.6,9.69-.27,27.62.11,32.38.12,10.66-.88,26.06,2,34.95-4.62,9.89-6.84,14.39-18.64,18.55-29.43,7.55-14.49,2.17-31.06-15.94-31.03-54.15-.7-108.53,1.16-162.57-.64-2.91-3.3-5.73-7.37-10.32-8.32-14.7-.07-29.42,0-44.12.52-8.94,1.54-17.34,6.42-23.01,13.54-4.09,5.1-6.25,11.39-8.45,17.47-4.01,11.79-12.65,25.75-2.89,37.06,3.81,4.35,9.74,6.32,15.4,6.37,22.25.04,46.54.31,68.89-.64Z"/>
  <g>
    <path class="st1" d="M858.96,528.2c-2.96,0-6.14-.21-9.44-.61-10.3-1.16-17.02-4.61-20.56-10.56-8.13-13.63,1.82-38.32,9.82-58.15,2.63-6.53,5.11-12.69,6.69-17.83.06-.21.13-.41.21-.62,7.02-18.96,14.39-38.17,21.52-56.75,1.98-5.15,3.95-10.3,5.93-15.46.15-.4.29-.81.41-1.23,5-17.05,18.92-37.55,41.65-39.2,12.43-.58,24.75-.7,39.39-.7,2.72,0,13.59.02,16.31.02,6.4,0,14-.02,21.76-.15,12.84.19,27,.28,44.47.28,9.12,0,18.24-.02,27.36-.05,9.12-.02,18.23-.05,27.35-.05,5.75,0,11.49,0,17.24.03.92.02,1.88.02,2.85.02,5.26,0,10.71,0,14.86,2.78,12.91,8.54,6.57,25.01,1.48,38.24-.6,1.56-1.18,3.06-1.71,4.5-6.72,18.17-13.88,36.54-20.81,54.31-8.04,20.61-16.35,41.92-24.02,63.09-5.33,15.49-12.28,30.43-27.01,35.01-.41.13-.85.23-1.36.33-4.76.88-12.03,1.93-19.63,1.93-8.79,0-20.32-1.45-25.29-8.34-3.2-4.43-3.43-10.86-.69-19.11,2.95-8.59,6.3-17.26,9.54-25.64,1.64-4.25,3.28-8.49,4.88-12.75,3.79-10.7,8.06-21.39,12.19-31.73,3.92-9.81,7.97-19.96,11.61-30.1,1.4-3.25,1.19-6.52-.57-9.23-2.1-3.21-6.12-5.2-10.5-5.2h-.23s-4.95.15-4.95.15c-15.9,0-32.13.07-47.82.14-8.93.04-17.86.08-26.79.11h-.48c-6.33,0-12.15,3.51-15.18,9.17-10.77,20.12-18.74,42.31-26.44,63.77-4.87,13.55-9.9,27.56-15.56,40.82-.19.44-.36.91-.52,1.41-5.86,18.4-18.28,27.35-37.96,27.35Z"/>
    <path class="st2" d="M992.62,329.45c12.91.19,27.06.28,44.51.28,9.12,0,18.4-.02,27.37-.05,8.96-.02,18.23-.05,27.35-.05,6.24,0,11.86.01,17.19.03.95.02,1.92.02,2.9.02,5.11,0,9.95,0,13.49,2.37,10.4,6.88,6.58,19.48.51,35.25-.61,1.58-1.18,3.07-1.72,4.53-6.71,18.16-13.87,36.52-20.8,54.28-8.04,20.62-16.36,41.95-24.04,63.14,0,.03-.02.05-.03.08-5.11,14.83-11.71,29.15-25.38,33.4-.31.1-.66.18-1.07.26-4.66.86-11.77,1.89-19.17,1.89-8.21,0-18.91-1.27-23.26-7.3-2.7-3.74-2.81-9.41-.36-16.81,2.94-8.58,6.29-17.22,9.52-25.58,1.61-4.17,3.28-8.49,4.89-12.76.01-.03.02-.06.03-.09,3.76-10.61,8.02-21.27,12.14-31.59,3.92-9.81,7.97-19.96,11.61-30.11,1.7-4.02,1.42-8.1-.81-11.51-2.55-3.91-7.38-6.33-12.59-6.33h-.27s-.04,0-.07,0l-4.85.14c-15.95,0-32.16.07-47.83.14-8.9.04-17.81.08-26.72.11-.11,0-.21,0-.32,0h-.22c-7.26,0-13.92,4.02-17.39,10.5-10.86,20.28-18.86,42.56-26.59,64.1-4.85,13.52-9.87,27.49-15.51,40.68-.22.51-.42,1.06-.61,1.63-5.57,17.47-16.87,25.61-35.57,25.61-2.86,0-5.93-.2-9.18-.6-9.45-1.07-15.55-4.12-18.67-9.35-7.49-12.56,2.2-36.61,9.99-55.94,2.65-6.58,5.15-12.79,6.77-18.03.05-.16.1-.32.16-.48,7.01-18.95,14.38-38.15,21.51-56.72,1.98-5.15,3.96-10.31,5.93-15.46.17-.45.33-.92.48-1.42,4.77-16.27,17.95-35.81,39.37-37.41,12.43-.58,24.69-.69,39.28-.69,2.72,0,5.43,0,8.15,0,2.72,0,5.44,0,8.16,0,6.39,0,13.97-.02,21.72-.15M992.61,324.45c-7.24.13-14.47.15-21.71.15-5.43,0-10.87-.02-16.31-.02-13.19,0-26.39.09-39.58.7-22.36,1.63-37.91,20.7-43.87,40.99-.1.35-.22.7-.35,1.04-9.2,24.05-18.52,48.08-27.45,72.23-.09.25-.17.5-.25.75-8.4,27.35-42.92,84.23,6.13,89.76,3.37.41,6.62.63,9.74.63,19.28,0,33.69-8.24,40.34-29.09.13-.4.27-.8.44-1.19,14.64-34.27,24.42-71.73,41.91-104.39,2.57-4.8,7.54-7.86,12.98-7.86.05,0,.11,0,.16,0,.11,0,.22,0,.32,0,24.89-.08,49.78-.24,74.67-.25l4.92-.15c.06,0,.13,0,.19,0,5.93,0,11.55,4.6,8.74,11.01-7.46,20.8-16.43,41.03-23.81,61.87-4.82,12.82-10.01,25.52-14.46,38.48-8.13,24.45,9.52,30.74,28.35,30.74,6.94,0,14.05-.86,20.08-1.97.56-.1,1.11-.23,1.65-.4,16.17-5.03,23.52-21.72,28.62-36.55,14.28-39.38,30.31-78.1,44.83-117.39,5.21-14.2,15.48-34.96-.73-45.68-5.6-3.75-12.68-3.11-19.09-3.22-5.75-.02-11.49-.03-17.24-.03-18.24,0-36.48.09-54.72.09-14.84,0-29.68-.06-44.51-.28h0Z"/>
  </g>
  <path class="st0" d="M1449.89,481.5c1.8.84,3.74,1.34,5.72,1.5,9.78.76,19.64.09,29.45.33,43.21,0,86.42-.15,129.62-.18.32,0,.63.02.94.06,7.31,1.04,14.54,6.05,16.24,13.55,3.8,13.2-4.95,27.47-17.25,32.43-3.71,1.8-7.87,1.97-11.83,2.78-.42.09-.84.14-1.27.14-68.15.48-136.29.38-204.44.46-8.92.12-18.59-2.03-25.01-8.62-4.67-5.09-7.61-12.03-7.18-19,0-.02,0-.04,0-.05.09-4.23.76-8.43,2.11-12.43,3.06-9.03,6.89-17.79,10.2-26.73,9.8-26.28,20.11-52.37,30.59-78.39,3.04-7.09,6.49-14.28,12.19-19.65,7.98-8.06,18.84-12.86,30-14.45,9.98-1.39,20.09-1.4,30.15-1.6,54.32-.17,108.65-.17,162.97.11,8.39-.11,17.58,1.27,23.92,7.28,7.18,6.32,10.62,16.35,9.29,25.78-.93,6.49-3.35,12.61-5.37,18.81-3.92,11.58-8,23.11-12.76,34.37-3.58,8.72-9.48,16.48-16.92,22.26-8.14,6.11-18.16,9.33-28.23,10.26-9.25,1.28-18.61.91-27.92.92-29.99.03-59.99.04-89.98.04-2.32-.07-3.28-.04-5.57,0-1.36-.05,0,0-1.89-.03-4.42-.3-9.65.57-13.21-2.79-5.48-4.85-5.26-13.1-3.75-19.65,1.9-7.65,3.21-16.49,9.97-21.54,5.99-5.06,13.8-4.8,21.25-5.65,14.03-.18,25.54.17,38.18-.05,9.96.26,19.93.83,29.9.49.25,0,.5-.02.76-.05,7.59-.88,7.23-12.15-.39-12.81-.76-.06-1.52-.07-2.27-.02-24.59.2-49.19-.19-73.77.02-.16,0-.33,0-.49.02-7.96.65-16.51,1.35-23.22,6.11-4,2.9-6.23,7.48-7.69,12.05-3.23,8.7-7.03,17.49-9.86,26.33-.05.15-.05.34-.1.48-2.13,6.86-5.1,12.49-6.94,19.19-.53,1.95-.15,4.07,1.1,5.65.66.84,1.46,1.58,2.44,2.14l.3.14Z"/>
  <path class="st0" d="M1689.13,531.77c-9.38-.2-18.76.11-28.13-.18-4.27-.14-8.56-2.15-11-5.71-4.2-5.66-4.53-13.53-1.76-19.89,6.85-18.62,14.52-36.95,21.53-55.52,8.65-22.12,17-44.36,25.75-66.45,5.77-14.54,18.8-25.91,34-29.63,11.59-3.27,23.75-2.2,35.65-2.56,30.33-.05,60.67-.25,91,.16,7.09.09,14.72,1.65,19.99,6.76,8.11,7.82,11.42,20.03,8.82,30.95-2.04,8.37-4.75,16.98-10.55,23.57-5.44,6.53-13.86,9.92-22.25,10.07-22.68.23-45.38-.04-68.06.22-9.49.12-19.16,5.29-23.13,14.16-3.21,7.35-5.48,15.07-8.32,22.56-6.59,17.48-12.9,35.07-19.71,52.46-3.07,8.23-10.29,15.68-19.01,17.54-4.48.63-20.33,1.53-24.82,1.49"/>
</svg>