<?xml version="1.0" encoding="UTF-8"?>
<svg id="Layer_1" xmlns="http://www.w3.org/2000/svg" version="1.1" viewBox="0 0 675.7 564">
  <!-- Generator: Adobe Illustrator 30.4.0, SVG Export Plug-In . SVG Version: 2.1.4 Build 226)  -->
  <defs>
    <style>
      .st0 {
        fill: #48d2b4;
      }

      .st1 {
        fill: #5affd8;
      }
    </style>
  </defs>
  <g>
    <path class="st0" d="M98.87,460.69c-.69,0-1.39-.02-2.08-.05-.04,0-7.45-.01-7.45-.01-8.39,0-17.07-.02-25.59-.11,0,0-.08,0-.11,0-.26,0-.52.01-.78.01-8.73,0-17.72-4.63-24.06-12.4-6.61-9.26-8.36-21.25-4.57-31.32,4.48-12.93,9.39-25.91,14.14-38.45,2.06-5.45,4.13-10.91,6.16-16.37,15.94-42.71,32.6-85.97,48.7-127.81l8.72-22.65c.78-2.08,1.53-4.15,2.29-6.21,2.72-7.44,5.54-15.14,8.92-22.39,7.5-15.55,22.54-27.46,39.22-31.04.04,0,.08-.02.11-.03,4.69-1.24,9.51-1.34,14.88-1.34h2.21c1.07,0,2.14,0,3.21-.02,38.45-.04,76.95-.05,115.44-.05h106.75c27.25,0,54.49,0,81.74-.01.06,0,.21,0,.35,0,7.29,0,13.69-5.74,14.02-12.54.31-3.2-.8-6.49-3.07-9.05-2.17-2.45-5.17-3.89-8.21-3.95-44.87.04-93.71.06-153.74.06-33.29,0-66.58,0-99.86-.01h-68.42c-.29,0-.55,0-.81,0-10.94,0-21.03-3.35-28.41-9.44-9.14-7.36-14.82-18.14-15.19-28.87-1.29-18.06,8.92-35.81,24.82-43.25,4.78-2.34,10-3.2,15.52-4.11l2.1-.35c1.33-.27,2.69-.27,4.13-.28h.89c36.6-.06,75.28-.09,125.39-.09,23.93,0,47.86,0,71.79.01,23.93,0,47.86.01,71.79.01,41.14,0,95.47-.01,150.92-.13,8.69.38,16.46.95,23.46,4.06.06.03.12.05.18.07,16.38,5.77,28.32,23.15,29.05,42.27.24,9.16-3.01,18.01-6.66,27.02l-.21.52c-7.65,19.29-15.56,39.23-23.72,58.68-7.82,18.55-21.96,33.82-38.8,41.9-9.79,5.04-21.45,7.38-36.74,7.38-.85,0-1.7,0-2.55-.02-73.25.15-148.05.16-212.41.16h-67.65c-.08,0-.15,0-.23,0-14.86,1.38-27.81,7.25-36.48,16.53-5.66,5.58-8.51,12.81-11.27,19.79-.57,1.44-1.14,2.88-1.73,4.3-6.33,15.42-12.52,31.18-18.51,46.41-6.02,15.31-12.24,31.13-18.59,46.6-2.38,6.01-4.78,11.99-7.18,17.97-4.79,11.95-9.75,24.31-14.42,36.56-1.19,2.91-2.35,5.94-3.47,8.87-2.38,6.2-4.84,12.61-7.8,18.63-5.26,10.45-13.35,18.22-22.78,21.85-.05.02-.1.04-.14.06-3.78,1.73-8.23,2.61-13.22,2.61Z"/>
    <path class="st1" d="M590.67,40.97c8.41.37,15.91.92,22.5,3.84.12.05.24.1.37.15,15.42,5.43,26.68,21.86,27.38,39.97.22,8.7-2.94,17.27-6.49,26.05l-.2.51c-7.64,19.27-15.55,39.2-23.7,58.62-7.59,18-21.29,32.81-37.58,40.62-.04.02-.08.04-.13.06-9.36,4.82-20.65,7.07-35.53,7.07-.84,0-1.68,0-2.51-.02-.03,0-.05,0-.08,0,0,0,0,0-.01,0-73.32.15-148.29.16-212.81.16h-33.6s-33.6,0-33.6,0c-.15,0-.31,0-.46.02-15.45,1.44-28.95,7.57-38.04,17.27-6.01,5.94-8.96,13.4-11.81,20.62-.58,1.48-1.13,2.87-1.72,4.28-6.33,15.43-12.53,31.19-18.52,46.43-6.01,15.3-12.23,31.12-18.58,46.57,0,.02-.02.04-.02.06-2.37,5.98-4.8,12.06-7.16,17.93-4.79,11.95-9.74,24.3-14.41,36.55-1.21,2.97-2.37,5.99-3.49,8.91-2.36,6.15-4.8,12.51-7.69,18.38-4.99,9.92-12.61,17.25-21.45,20.66-.1.04-.19.08-.29.12-3.45,1.58-7.54,2.39-12.18,2.39-.64,0-1.3-.02-1.97-.05-.07,0-.15,0-.22,0-2.44,0-4.88,0-7.33,0-8.39,0-17.06-.02-25.58-.11-.02,0-.04,0-.05,0-.05,0-.11,0-.16,0-.23,0-.47.01-.7.01-7.97,0-16.21-4.27-22.08-11.42-6-8.46-7.66-19.79-4.22-28.92.02-.04.03-.08.05-.13,4.45-12.84,9.35-25.79,14.09-38.32,2.03-5.37,4.13-10.91,6.17-16.38,15.94-42.69,32.59-85.95,48.69-127.78,2.91-7.55,5.82-15.11,8.72-22.66,0-.02.01-.03.02-.05.77-2.06,1.53-4.13,2.29-6.2,2.7-7.38,5.49-15.01,8.83-22.16,7.19-14.89,21.56-26.26,37.49-29.69.08-.02.15-.03.23-.05,4.4-1.16,9.05-1.26,14.23-1.26h1.11s1.12,0,1.12,0c1.07,0,2.13,0,3.2-.02,42.26-.04,83.88-.05,115.43-.05,17.8,0,35.6,0,53.4,0,17.8,0,35.6,0,53.4,0,27.21,0,54.41,0,81.62-.02.14,0,.28,0,.43,0,8.56,0,16.08-6.79,16.51-14.86.36-3.87-.98-7.83-3.69-10.89-2.64-2.98-6.3-4.72-10.04-4.79-.03,0-.06,0-.09,0-44.92.04-93.83.06-153.93.06-33.35,0-66.69,0-100.04-.01-22.67,0-45.34,0-68.01,0-.02,0-.05,0-.07,0-.24,0-.49,0-.73,0-10.36,0-19.88-3.15-26.82-8.87-.02-.01-.03-.02-.05-.04-8.56-6.89-13.89-16.98-14.24-26.99,0-.06,0-.12,0-.18-1.21-16.96,8.41-33.7,23.39-40.72.03-.01.05-.03.08-.04,4.41-2.16,9.45-2.99,14.78-3.87.71-.12,1.41-.23,2.11-.35.05,0,.11-.02.16-.03,1-.2,2.25-.21,3.56-.21.3,0,.6,0,.86,0,36.64-.06,75.33-.08,125.45-.08,23.92,0,47.83,0,71.75.01,23.92,0,47.83.01,71.75.01,41.13,0,95.43-.01,150.91-.13M590.78,35.97c-50.34.1-100.67.13-151.02.13s-95.67-.02-143.5-.02c-41.82,0-83.64.02-125.45.08-1.81.02-3.64-.04-5.41.32-6.2,1.05-12.55,1.86-18.26,4.66-17.01,7.96-27.59,26.98-26.26,45.6.42,11.99,6.85,23.27,16.1,30.71,8.36,6.89,19.28,10.01,30,10.01.27,0,.54,0,.81,0,56.02,0,112.03.02,168.04.02,51.31,0,102.63-.01,153.94-.06,5.16.09,9.36,5.25,8.83,10.31-.24,5.82-5.91,10.23-11.53,10.23-.12,0-.24,0-.35,0-27.23.02-54.46.02-81.69.02-35.6,0-71.2,0-106.8,0-38.48,0-76.98,0-115.47.05-1.05.02-2.1.02-3.16.02-.74,0-1.49,0-2.23,0-5.21,0-10.44.08-15.51,1.42-17.68,3.8-33.11,16.16-40.96,32.43-4.36,9.34-7.68,19.11-11.28,28.76-19.27,50.11-38.65,100.19-57.43,150.49-6.8,18.25-13.92,36.4-20.3,54.81-4.2,11.14-1.95,24.14,4.92,33.72,6.29,7.74,15.91,13.38,26.05,13.38.29,0,.57,0,.86-.01,10.98.12,21.97.1,32.95.12.73.03,1.46.05,2.2.05,4.89,0,9.79-.79,14.26-2.84,10.72-4.13,19.03-12.96,24.12-23.08,4.41-8.97,7.6-18.46,11.36-27.71,6.96-18.25,14.38-36.32,21.57-54.47,12.68-30.88,24.43-62.13,37.1-93,3.39-8.12,6.05-16.98,12.49-23.31,8.99-9.64,22.01-14.58,34.92-15.78,22.41,0,44.8,0,67.2,0,70.93,0,141.88-.02,212.82-.16.86.01,1.73.02,2.59.02,12.94,0,26.18-1.63,37.82-7.62,18.17-8.72,32.24-24.74,40.02-43.19,8.24-19.64,16.09-39.44,23.94-59.23,3.62-8.94,7.1-18.25,6.84-28.05-.72-18.93-12.4-38.08-30.72-44.53-7.67-3.4-16.16-3.91-24.42-4.27h0Z"/>
  </g>
  <g>
    <path class="st0" d="M140.72,525.53c-10.46,0-20.91,0-31.37-.01h-23.69c-3.18-.07-5.47-.21-7.9-.36-1.27-.08-2.54-.15-3.97-.22-.04,0-.54,0-.54,0-8.73,0-16.82-8.23-16.99-17.26,0-.03,0-.07,0-.1-.59-10.1,7.76-20.43,18.63-23.02,5.21-1.28,10.75-1.39,15.54-1.39.87,0,4.35.02,5.22.02.69,0,1.38,0,2.06,0,29.07-.07,58.65-.22,87.25-.37,11.6-.06,23.19-.12,34.79-.17.96-.03,1.88-.04,2.79-.05,5.19-.08,10.55-.16,15.7-2.14,5.1-1.86,9.47-5.33,12.27-9.74,1.42-2.26,2.22-4.68,3-7.01.68-2.05,1.32-3.99,2.34-5.68,2.89-4.81,7.89-8.45,13.38-9.73,3.5-.91,7.08-.99,10.46-.99h3.47c.55.01,1.1,0,1.65,0,15.13,0,30.3,0,45.46,0,43.35,0,78.77.03,111.47.11.24,0,.56.01.88.01,2.5,0,4.94-.3,7.31-.59,1.34-.16,2.72-.33,4.06-.44.07,0,.13-.01.2-.02,4.77-.76,8.67-4.61,9.93-9.81,1.22-5-.36-9.84-4.13-12.62-.06-.04-.12-.08-.18-.12-4.1-2.5-8.81-2.71-13.28-2.71h-2.8c-9.8,0-51.86,0-51.86,0h-22.46c-24.57,0-49.13,0-73.7-.05,0,0-.09,0-.13,0-.27.01-.54.02-.8.02-6.94,0-15.09-4.81-16.15-12.57-.66-3.97.94-7.71,2.63-11.66.52-1.22,1.06-2.48,1.53-3.75.79-1.89,1.54-3.93,2.27-5.9,2.06-5.56,4.01-10.81,7.38-15.27,7.65-9.46,20.66-10.88,27.73-10.88h.55c13.99-.13,29.22-.19,47.99-.19,10.1,0,20.2.02,30.3.03,10.1.02,20.21.03,30.31.03,6.49,0,12.98,0,19.46-.02.06,0,.13,0,.19,0l.73-.06c3.91-.29,8.78-.66,11.94-4.47,3.21-3.61,3.99-9.41,1.88-14.14-1.83-4.11-5.49-6.56-9.78-6.56h-.14c-17.29.01-34.62.04-51.94.07-21.62.04-43.25.07-64.87.07-12.01,0-24.01-.01-36.02-.04-.4-.02-.79-.03-1.19-.03-8.12,0-16.41,3.66-22.15,9.79-2.35,2.52-3.59,5.53-4.79,8.44-.17.41-.34.81-.51,1.22-5.03,12.63-9.97,25.49-14.74,37.92-5.96,15.54-12.13,31.6-18.5,47.27-3.31,8.41-9.25,14.98-16.32,18.05-4.33,1.93-9.1,2.19-13.21,2.19-1.46,0-2.92-.03-4.38-.07-1.49-.04-2.98-.07-4.46-.07-.97,0-1.94.01-2.9.05-.65.03-1.31.04-1.96.04-8.06,0-14.57-1.96-19.36-5.84-6.08-4.76-9.54-13.14-9.05-21.91.55-5.77,2.72-11.23,5.02-17,.83-2.09,1.69-4.25,2.46-6.41,8.21-20.58,16.39-41.68,24.31-62.08,8.29-21.36,16.86-43.44,25.5-65.07,2.83-7.42,5.75-15.05,11.19-20.66,6.89-7.23,18.95-13.25,28.11-14.04l14.99-.41c29.2-.1,61.32-.15,101.05-.15,20.16,0,40.33.01,60.49.02,20.16.01,40.33.02,60.49.02,14.3,0,28.59,0,42.89-.02h.24c13.59,0,25.82,4.66,33.55,12.79,7.7,7.56,12.15,18.92,12.28,31.26-.14.91-.28,1.82-.41,2.73-.64,4.34-1.25,8.43-2.79,12.29-.01.03-.02.06-.04.09-3.88,11.01-8.13,22.11-12.25,32.85-1.11,2.89-2.22,5.79-3.32,8.68l-.09.23c-4.19,11.11-8.52,22.59-18.15,29.08-.07.04-.13.09-.19.14-.73.6-1.76,1.03-2.84,1.48-1.77.73-3.77,1.56-5.26,3.44-.14.18-.26.37-.34.58-1.8,4.23-1.79,10.01,2.32,13.4.12.1.24.18.37.25,2.25,1.26,4.71,1.62,6.87,1.94,1.06.16,2.07.31,3.01.55,6.67,1.7,11.72,4.6,15.01,8.6,6.96,8.33,9.18,20.67,5.66,31.45-3.57,11.05-8.06,22.02-12.39,32.63-2.18,5.33-4.44,10.85-6.55,16.33-2.44,5.89-5.22,12.61-9.57,18-.49.32-.76.75-.91,1.15-9.57,12.05-28.41,16.13-36.35,17.35-18.09.19-37.37.27-62.47.27-11.01,0-22.01-.02-33.02-.03-11.01-.02-22.02-.03-33.02-.03-7.48,0-14.95,0-22.42.03h-8.87c-10.6,0-21.21,0-31.81-.02-10.6-.01-21.2-.02-31.8-.02-7.48,0-14.97,0-22.45.02h-.18c-.84,0-1.65.02-2.46.04-.79.02-1.59.04-2.44.04-.34,0-.69,0-1.05-.01-1.33-.02-2.47-.02-3.55-.03-1.98,0-3.68-.02-5.97-.09-.03,0-.14,0-.16,0-1.21.04-2.53.04-3.97.04h-1.67c-8.93,0-18.05.24-26.86.47-8.47.22-17.23.46-25.77.47-.48-.03-.81-.04-1.14-.04-.3,0-.61,0-1.04.02l-.67.02c-13.98.05-29.27.08-48.07.08Z"/>
    <path class="st1" d="M379.91,249.49c20.16,0,40.32.01,60.48.02,20.16.01,40.32.02,60.49.02,14.29,0,28.57,0,42.88-.02h.22c12.91,0,24.48,4.38,31.74,12.02.04.04.08.08.12.12,7.13,6.99,11.3,17.63,11.47,29.23-.13.85-.26,1.69-.38,2.54-.62,4.19-1.21,8.15-2.64,11.74-.02.06-.05.12-.07.19-3.87,10.98-8.11,22.06-12.22,32.78-1.11,2.9-2.22,5.79-3.33,8.71l-.08.22c-4.05,10.74-8.24,21.84-17.21,27.89-.13.09-.26.18-.38.28-.45.37-1.31.72-2.22,1.1-1.84.76-4.36,1.81-6.26,4.19-.28.35-.51.74-.69,1.15-2.17,5.08-2.08,12.1,3.03,16.31.23.19.48.36.75.51,2.65,1.48,5.35,1.88,7.72,2.23,1,.15,1.95.29,2.76.49,6.15,1.57,10.76,4.18,13.73,7.8,6.41,7.67,8.45,19.07,5.18,29.07-3.54,10.95-8.01,21.88-12.32,32.44-2.18,5.33-4.43,10.84-6.55,16.32-2.35,5.67-5,12.07-9,17.13-.61.48-1.06,1.08-1.36,1.72-9.02,11.05-26.69,14.92-34.37,16.11-18.03.19-37.26.27-62.27.27-11.01,0-22.02-.02-33.03-.03-11.01-.02-22.03-.03-33.04-.03-7.47,0-14.93,0-22.38.03-2.96,0-5.92,0-8.88,0-10.6,0-21.2-.01-31.8-.02-10.6-.01-21.2-.02-31.81-.02-7.48,0-14.96,0-22.42.02h-.21c-.86,0-1.69.02-2.52.04-.77.02-1.55.04-2.38.04-.32,0-.66,0-1.04-.01-1.32-.02-2.47-.02-3.56-.03-1.96,0-3.65-.02-5.89-.09-.06,0-.11,0-.17,0-.05,0-.1,0-.16,0-1.23.04-2.62.04-3.95.04h-1.05s-.57,0-.57,0c-8.96,0-18.09.24-26.92.47-8.43.22-17.15.45-25.65.47-.48-.02-.83-.03-1.2-.03-.33,0-.65,0-1.12.02l-.61.02c-14,.05-29.28.08-48.05.08-10.42,0-20.83,0-31.25-.01-7.92,0-15.84-.01-23.77-.01-3.15-.06-5.41-.19-7.79-.34-1.28-.08-2.57-.16-4-.22-.08,0-.16,0-.23,0-.04,0-.09,0-.13,0-.1,0-.2,0-.3,0-7.31,0-14.35-7.2-14.49-14.81,0-.07,0-.13,0-.2-.59-10.02,8.21-18.41,16.74-20.45,4.92-1.21,10.28-1.31,14.92-1.31.86,0,1.73,0,2.59,0,.88,0,1.76,0,2.63,0,.7,0,1.39,0,2.05,0,29.07-.07,58.62-.22,87.21-.37,11.62-.06,23.24-.12,34.86-.17.04,0,.07,0,.11,0,.9-.02,1.8-.04,2.71-.05,5.39-.08,10.97-.17,16.52-2.3,5.63-2.07,10.44-5.89,13.53-10.77,1.58-2.51,2.47-5.19,3.25-7.55.63-1.92,1.23-3.73,2.11-5.18,2.55-4.24,6.96-7.45,11.8-8.58.04,0,.08-.02.12-.03,3.15-.82,6.56-.89,9.77-.89.57,0,1.14,0,1.71,0,.58,0,1.17,0,1.75,0,.55,0,1.1,0,1.66,0,15.15,0,30.32,0,45.47,0,43.32,0,78.72.03,111.38.11.32,0,.64.01.96.01,2.65,0,5.17-.31,7.61-.61,1.37-.17,2.67-.33,3.95-.43.13-.01.26-.03.39-.05,5.76-.92,10.46-5.51,11.96-11.69,1.46-6-.48-11.83-5.07-15.22-.12-.09-.24-.17-.36-.25-4.65-2.84-9.97-3.08-14.58-3.08h-1.2s-1.14,0-1.14,0h-.47c-9.87,0-19.74,0-29.61,0h-22.2s-22.2,0-22.2,0c-22.11,0-48.19,0-74-.05,0,0,0,0,0,0-.08,0-.17,0-.25,0-.23.01-.45.02-.68.02-5.89,0-12.8-3.98-13.67-10.41,0-.05-.01-.09-.02-.14-.53-3.18.87-6.43,2.48-10.2.52-1.22,1.06-2.48,1.54-3.78.82-1.99,1.58-4.02,2.3-5.98,1.99-5.35,3.86-10.41,6.98-14.56,7.05-8.66,19.18-9.95,25.79-9.95.17,0,.35,0,.52,0,.02,0,.03,0,.05,0s.03,0,.05,0c13.93-.13,29.15-.19,47.9-.19,10.1,0,20.19.02,30.29.03,10.1.02,20.2.03,30.3.03,6.5,0,13,0,19.51-.03.13,0,.25,0,.38-.02l.72-.05c4.15-.31,9.81-.73,13.65-5.33,3.88-4.39,4.8-11.12,2.27-16.78-2.24-5.04-6.75-8.05-12.06-8.05h-.11c-17.35.01-34.71.04-52.06.07-21.24.04-43.21.07-64.82.07-12.95,0-24.7-.01-35.93-.04-.41-.02-.83-.03-1.24-.03-8.8,0-17.77,3.95-23.99,10.59-2.65,2.84-4.04,6.22-5.26,9.19-.17.4-.33.8-.5,1.2-.01.03-.02.06-.04.09-5.02,12.6-9.96,25.47-14.73,37.91-5.96,15.53-12.12,31.58-18.48,47.22,0,.02-.01.04-.02.06-3.05,7.77-8.51,13.84-14.98,16.64-.02,0-.03.01-.05.02-3.86,1.73-8.13,1.96-12.16,1.96-1.42,0-2.89-.03-4.32-.07-1.48-.04-3-.07-4.52-.07-1.09,0-2.07.02-2.99.06-.63.02-1.26.04-1.87.04-7.47,0-13.46-1.78-17.79-5.28-.02-.02-.04-.03-.06-.05-5.4-4.22-8.48-11.75-8.06-19.67.54-5.48,2.63-10.74,4.85-16.32.83-2.08,1.68-4.23,2.46-6.41,8.24-20.66,16.41-41.73,24.32-62.1,8.29-21.35,16.85-43.43,25.49-65.05,0-.02.02-.05.03-.07,2.73-7.15,5.55-14.54,10.64-19.77.01-.01.02-.02.03-.04,6.37-6.69,17.95-12.49,26.43-13.25l14.86-.4c29.24-.11,61.36-.16,101.08-.16M379.91,244.49c-33.71,0-67.44.03-101.16.16l-15.06.41c-10.17.85-22.8,7.48-29.77,14.8-5.79,5.96-8.81,13.85-11.72,21.47-16.91,42.3-32.98,84.93-49.85,127.24-2.81,7.93-6.8,15.62-7.61,24.11-.5,8.9,2.8,18.38,9.97,23.99,5.87,4.75,13.51,6.39,20.94,6.39.69,0,1.38-.01,2.06-.04.93-.04,1.86-.05,2.79-.05,2.93,0,5.89.14,8.84.14,4.87,0,9.68-.38,14.2-2.4,8.32-3.61,14.37-11.08,17.64-19.4,11.48-28.22,21.95-56.85,33.23-85.16,1.31-3.11,2.47-6.41,4.81-8.92,5.2-5.55,12.7-9,20.33-9,.38,0,.75,0,1.13.03,12.01.03,24.02.04,36.04.04,38.96,0,77.92-.12,116.88-.14.04,0,.07,0,.11,0,8.22,0,10.93,11.1,6,16.57-2.65,3.23-7.14,3.36-10.97,3.66-6.5.02-12.99.03-19.49.03-20.2,0-40.4-.07-60.6-.07-15.98,0-31.97.04-47.94.19-.19,0-.38,0-.57,0-10.87,0-22.64,3.11-29.73,11.87-4.87,6.45-6.95,14.43-10,21.8-1.99,5.36-5.29,10.65-4.3,16.62,1.21,8.84,10.09,14.73,18.63,14.73.31,0,.62,0,.93-.02,24.67.04,49.34.05,74.01.05,14.8,0,29.6,0,44.4,0,9.86,0,19.74,0,29.6,0,.16,0,.31,0,.47,0,.77,0,1.55,0,2.34,0,4.13,0,8.42.17,11.98,2.35,6.63,4.9,3.22,16.68-4.71,17.95-3.74.3-7.43,1.02-11.17,1.02-.29,0-.58,0-.88-.01-37.16-.09-74.31-.11-111.47-.11-15.17,0-30.34,0-45.5,0-.54,0-1.08,0-1.62,0-1.15,0-2.31-.01-3.46-.01-3.71,0-7.42.11-11.03,1.05-6.16,1.44-11.69,5.45-14.95,10.88-2.37,3.94-2.84,8.73-5.3,12.64-2.57,4.05-6.57,7.11-11.06,8.75-5.6,2.16-11.71,1.87-17.6,2.03-40.68.19-81.37.44-122.05.54-.68,0-1.36,0-2.03,0-1.74,0-3.48-.02-5.23-.02-5.42,0-10.84.16-16.12,1.46-11.39,2.72-21.25,13.55-20.54,25.6.19,10.19,9.26,19.72,19.49,19.72.14,0,.28,0,.43,0,4.12.19,6.99.48,11.98.57,18.35,0,36.7.03,55.06.03,16.04,0,32.09-.02,48.13-.08.82-.02,1.23-.04,1.65-.04.3,0,.61,0,1.07.03,17.49-.03,35.2-.94,52.7-.94.19,0,.38,0,.56,0,.36,0,.71,0,1.06,0,1.49,0,2.86,0,4.1-.05,3.6.12,5.89.07,9.55.12.38,0,.74.01,1.1.01,1.71,0,3.25-.08,4.9-.08.06,0,.12,0,.19,0,7.48-.01,14.96-.02,22.44-.02,21.2,0,42.4.04,63.61.04,2.96,0,5.92,0,8.88,0,7.46-.02,14.92-.03,22.38-.03,22.02,0,44.05.06,66.07.06s41.79-.06,62.68-.28c13.55-2.05,30.12-7.61,38.64-18.98-.08.02-.16.04-.17.04,0,0,.04-.01.17-.04,4.67-5.61,7.55-12.42,10.32-19.11,6.33-16.36,13.59-32.38,18.99-49.08,3.7-11.32,1.59-24.61-6.1-33.81-4.1-4.99-10.18-7.87-16.33-9.44-3.08-.78-6.45-.67-9.28-2.25-3.09-2.55-3.07-7.07-1.61-10.49,1.93-2.42,5.39-2.61,7.74-4.54,10.36-6.98,14.95-19.28,19.18-30.49,5.27-13.83,10.67-27.62,15.59-41.59,2.01-5.05,2.53-10.45,3.38-15.76-.08-12.09-4.2-24.57-12.97-33.17-9.06-9.53-22.48-13.57-35.36-13.57-.08,0-.16,0-.24,0-14.29.02-28.57.02-42.86.02-40.32,0-80.65-.05-120.96-.05h0ZM550.6,507.77s-.05,0-.17.04c0,0,0,0,0,0,.09-.02.18-.04.17-.04h0Z"/>
  </g>
</svg>