<?xml version="1.0" encoding="UTF-8"?>
<svg id="Layer_1" data-name="Layer 1" xmlns="http://www.w3.org/2000/svg" viewBox="0 0 14.95 13.51">
  <defs>
    <style>
      .cls-1 {
        fill: #ca7d3f;
      }

      .cls-2 {
        fill: #3cbb9b;
      }
    </style>
  </defs>
  <path class="cls-1" d="M6.07.4c.4-.07.82-.12,1.22-.04.14.04.32.08.37.23.05.11.01.24-.04.34-.11.19-.29.33-.45.46-.01.08,0,.16,0,.24-.02-.07-.03-.13-.04-.2-.12.13-.26.25-.42.35-.07.07-.16.09-.25.08-.2.12-.31.34-.5.47.02-.09.06-.19.09-.28,0,0-.03-.03-.04-.04-.21.12-.44.2-.68.26-.24-.03-.48.03-.72.01.12-.15.3-.22.47-.3.17-.06.32-.16.49-.22.32-.13.61-.3.91-.48.19-.12.37-.25.53-.41-.34-.09-.68.01-1.02.05-.07.01-.13.03-.2.04-.07.01-.13.03-.2.04-.16.04-.32.08-.47.12-.3.09-.58.21-.87.32-.22.11-.46.18-.67.32-.33.2-.68.39-.91.7.33.06.66-.02.99-.07.17-.04.33-.07.5-.11-.03.05-.06.11-.08.16.02.08.06.15.09.22.04-.15.11-.29.26-.35.15.16.13.38.13.59.01.06.02.11.03.17.08-.03.17-.06.25-.08.09-.03.18-.06.28-.08.36-.14.74-.21,1.1-.32.09-.03.18-.05.28-.08.17-.06.34-.1.51-.16.09-.03.18-.06.28-.08.14-.05.29-.09.44-.12.38-.12.77-.22,1.15-.33.01,0,.03.02.04.03.19-.12.41-.17.63-.2-.03.07-.07.14-.09.21.1.12.19.26.25.41,0-.09,0-.19.01-.28.11.21.15.44.21.67.11.36.23.7.32,1.07.03.09.06.18.08.28.16.51.31,1.02.47,1.54.03.09.06.18.08.28.05.17.09.34.16.51.03.09.06.18.08.28.07.21.15.41.2.63.04.13.07.26.12.39.06.18.11.37.16.55.01.04.02.08.04.12.1.3.18.61.27.91.06.2.21.36.24.57.03.18.12.35.16.54.03.07.06.14.09.21.02,0,.05.02.07.02-.06.15-.23.15-.36.2-.09.17-.14.36-.26.51-.05-.06-.08-.15-.15-.18-.1.05-.13.16-.19.25-.02.18-.06.36-.07.54.01.11.05.22.08.33.08.22.09.5-.08.68-.08-.06-.2-.1-.23-.21-.07-.19-.02-.4.03-.59.06-.24-.02-.48-.07-.72-.04.03-.08.06-.11.1-.01,0-.04,0-.05,0-.04-.08-.08-.15-.13-.22-.11,0-.21,0-.32,0-.06.21-.09.43-.14.64-.07.24-.06.49-.02.74,0,.27.11.55.03.82-.04.1-.14.08-.23.07-.05-.13-.08-.27-.07-.41.04-.3.04-.6.04-.9,0-.22-.04-.45-.15-.65-.05.04-.1.09-.14.13-.03-.1-.06-.21-.07-.31-.32.1-.64.19-.96.29-.18.06-.37.11-.55.16-.17.06-.34.12-.51.16-.3.09-.61.18-.91.27-.17.06-.34.12-.51.16-.11.04-.22.08-.34.11-.1.01-.21,0-.31-.01-.07-.05-.14-.1-.19-.17-.05-.13-.07-.27-.11-.4-.03-.09-.06-.18-.08-.28-.06-.16-.11-.31-.16-.47-.01-.05-.03-.11-.04-.16-.01-.05-.02-.11-.04-.16-.05-.13-.09-.26-.12-.39-.06-.18-.11-.37-.16-.55-.08-.36-.26-.69-.28-1.06-.02-.09-.03-.17-.03-.26-.02-.06-.04-.12-.06-.17,0,.04,0,.13-.01.18-.03-.08-.06-.17-.09-.26-.01-.05-.03-.11-.04-.16-.01-.06-.03-.13-.04-.19-.04-.06-.06-.13-.08-.2-.1-.34-.22-.68-.31-1.03-.12-.34-.22-.68-.32-1.03-.04-.13-.08-.26-.11-.39-.14-.42-.27-.84-.4-1.26-.03-.1-.1-.21-.06-.32.03-.09.05-.2.13-.27.13-.06.26-.08.4-.12.14-.05.29-.08.44-.12.12-.04.23-.07.35-.11-.02-.16-.03-.32-.05-.47-.21.06-.41.13-.62.18-.07.01-.14.03-.21.04-.27.04-.53.1-.8.07-.13.2-.1.43-.12.66-.09-.13-.1-.3-.12-.45-.05-.08-.09-.16-.13-.24-.07-.05-.17-.09-.2-.18-.01-.08,0-.16,0-.25.1-.25.32-.43.52-.59.32-.26.68-.47,1.06-.64.21-.1.41-.23.64-.3.1-.05.21-.08.32-.12.27-.11.55-.2.83-.28.05-.01.11-.03.16-.04.05-.01.11-.03.16-.04.12-.03.23-.06.35-.08M3.78,1.26c-.09.04-.18.1-.26.16.01.03.03.05.06.06.12-.06.24-.09.37-.12.02.03.05.09.06.12.1-.16.29-.24.38-.4-.21.02-.41.12-.61.18M9.06,2.6c-.06.12.13.01,0,0M8.6,2.68c-.14.05-.28.08-.42.12v.03c-.09.01-.17.03-.26.05-.05.02-.11.03-.16.04-.09.03-.18.06-.28.08-.24.06-.47.14-.71.2-.14.04-.29.08-.43.12-.22.09-.51.09-.65.3-.09.11-.19.2-.27.31-.09.13-.17.25-.28.37.04-.11.11-.21.17-.31.08-.12.11-.27.14-.41-.16.04-.32.08-.43.21,0,.02,0,.07-.01.09-.12.18-.23.39-.22.62,0,.25.03.49.09.73.05.18.04.37-.03.54-.09-.1-.2-.2-.25-.33-.02-.15.04-.31.01-.46-.02-.13-.03-.25-.04-.38-.03-.09-.05-.19-.07-.28-.05-.02-.09-.05-.14-.07-.02.09-.04.18-.07.26-.06-.06-.12-.11-.17-.17-.01.01-.03.03-.04.04,0-.02-.01-.05-.02-.07-.05-.02-.1-.03-.15-.05-.01.16.01.31.05.46.07.24.15.47.2.71.03.14.07.28.14.4.04-.07.08-.14.11-.21,0,.08.01.16.02.24.09.23.13.48.16.73.03.19.02.39.07.58.09.22.15.46.22.69.05.21.13.4.18.61.03.09.06.18.08.28.07.18.12.38.11.58-.02.07.06.09.1.13.04.12.08.24.1.36.03.09.06.18.08.28.03.09.05.18.08.28.06.16.1.32.15.49.07.19.07.4.17.58.04.1.07.2.1.3.05-.02.09-.04.14-.06.16-.04.32-.13.49-.09-.04.05-.09.1-.13.15.13-.05.27-.09.4-.16-.09,0-.18.04-.27,0,.11-.09.24-.15.38-.19.09-.03.18-.06.28-.08.13-.04.26-.08.4-.12.27-.1.55-.16.83-.24.15-.04.26-.16.39-.24.42-.26.72-.66,1.09-.98,0,.1,0,.21.01.31-.24.19-.46.4-.63.65.15-.06.3-.11.46-.14.03-.08.07-.16.1-.24.02-.07.04-.13.07-.2.04-.11.09-.21.14-.32.07.03.14.07.21.11-.01.07-.03.14-.04.21-.03.1-.05.2-.06.3.18-.05.35-.11.53-.17.04-.19.08-.39.2-.55.16-.22.14-.53.02-.77-.07.12-.12.25-.2.36-.07.11-.17.19-.23.31-.06-.03-.13-.07-.17-.12-.02,0-.05,0-.07,0,0-.16.04-.31.08-.46.02-.08.05-.16.08-.24.01-.05.03-.11.04-.16.01-.05.02-.11.04-.16.01-.16.04-.32.09-.47.04-.26-.05-.5-.12-.74-.02,0-.05.02-.07.03,0-.03,0-.09,0-.12-.02-.08-.03-.16-.04-.24-.01-.05-.03-.11-.04-.16-.06-.22-.12-.45-.19-.67-.15-.47-.3-.94-.44-1.42-.03-.09-.06-.18-.08-.28-.03-.08-.05-.16-.08-.24-.12-.37-.25-.74-.35-1.11-.04-.08-.08-.16-.14-.23-.05,0-.11.03-.16.04-.02.07-.03.15-.08.21.01.21,0,.43.01.64h-.06c-.07-.3-.05-.6-.13-.89-.01-.04-.02-.09-.04-.13-.02,0-.06,0-.09,0M2.43,2.99s.02.02,0,0M10.76,8.48s.02.02,0,0Z"/>
  <path class="cls-2" d="M10.87.84h.04c0,.18,0,.37.05.55.03-.05.06-.1.09-.16.02-.07.05-.13.09-.19,0,.03-.01.08-.02.1-.03.34-.05.68-.12,1.01-.05.2-.06.41-.11.61-.02.12-.05.24-.09.36-.01.06-.03.13-.04.19,0,.06-.01.11-.01.17l-.03.02c-.01.06-.03.12-.04.19-.02-.09-.05-.17-.07-.26-.04-.15-.06-.31-.08-.47-.02-.11-.03-.21-.04-.32-.03-.12-.08-.25-.06-.37.02-.19.08-.37.12-.55.04-.17.07-.35.18-.49.09-.11.1-.26.13-.39Z"/>
  <path class="cls-2" d="M12.79,1.42c.09-.08.19-.14.31-.18-.04.14-.09.27-.1.41.12-.08.22-.17.35-.24-.03.06-.07.12-.12.17-.27.28-.49.6-.75.88-.14.14-.26.3-.4.45-.1.14-.22.28-.33.41-.02-.03-.06-.1-.08-.13-.08.07-.14.15-.19.24.02-.12,0-.25.04-.37.06-.17.18-.31.24-.48.15-.36.4-.65.63-.95.1-.12.19-.25.31-.36-.03.09-.07.18-.1.28.06-.05.13-.1.19-.15Z"/>
  <path class="cls-2" d="M12.98,2.96c.15-.06.3-.1.44-.15-.06.06-.13.11-.21.16.02.02.05.06.07.08-.35.23-.66.53-1.06.66-.15.06-.3.13-.45.2.12-.28.39-.44.61-.63.18-.13.38-.24.59-.32Z"/>
  <path class="cls-2" d="M13.87,3.73c.31-.17.62-.31.94-.46-.14.27-.36.49-.52.75-.04.05-.08.11-.12.16-.23.31-.44.64-.67.95-.06.09-.13.18-.2.28-.24.34-.46.69-.7,1.03-.14.19-.26.39-.39.59.06.03.12.07.18.1.02,0,.07,0,.1,0,.5.27,1.03.46,1.53.73.3.13.59.28.89.43-.18.02-.36.05-.54.09-.18.04-.37.08-.55.12-.13.03-.26.06-.4.08-.12.05-.25.07-.38.09-.06.1-.07.22-.1.33,0,.36-.05.73.04,1.08.06.14.13.28.14.44-.08-.13-.14-.27-.19-.41-.06.19-.02.39-.06.58-.03.34,0,.68,0,1.02.03.18.09.39-.03.55-.06.07-.11-.02-.16-.07-.06-.15-.02-.33,0-.48.03-.19-.03-.37-.04-.55,0-.45-.07-.9-.08-1.35-.03-.33-.16-.64-.21-.97-.07-.14-.13-.28-.16-.43-.03-.08-.05-.16-.06-.25.16-.09.35-.11.52-.18-.16-.13-.34-.24-.51-.36.02-.09.02-.18,0-.26-.04-.17,0-.34,0-.51.02-.15-.12-.24-.21-.35-.02.03-.04.06-.05.09-.05.19-.04.4-.04.6-.03-.14-.08-.29-.13-.42-.05-.1.06-.17.1-.25.04-.18.09-.35.16-.52-.06.03-.12.06-.18.09.13-.25.29-.46.43-.7-.29.11-.57.26-.87.36,0-.05-.01-.09-.02-.14-.05-.17-.09-.33-.12-.5.11-.05.23-.12.34-.06.04-.09.05-.22.15-.28.19-.1.38-.22.58-.3.52-.27,1.04-.51,1.58-.74M12.47,7.43c.08,0,.17,0,.25,0-.07-.08-.17-.05-.25,0Z"/>
  <path class="cls-2" d="M.29,3.72s.13.04.11.09c-.05.02-.14-.03-.11-.09Z"/>
  <path class="cls-2" d="M2.24,3.67c.19.21.28.5.35.77-.23-.18-.31-.49-.35-.77Z"/>
  <path class="cls-2" d="M.6,3.87c.14.07.28.13.41.21.27.12.52.29.8.42.13.06.26.15.39.21.04.1.08.21.11.31.12.27.26.54.48.74.06-.02.12-.05.17-.07.06.17.12.34.17.51.11.22.15.46.23.68-.07-.02-.15-.03-.22-.05-.05-.01-.1-.03-.16-.04-.05-.01-.11-.02-.16-.04-.12-.02-.23-.05-.35-.07.05.06.1.13.15.19.16.17.29.36.45.53.13.14.18.33.25.5-.09.03-.2.03-.27.09,0,.07,0,.15,0,.23.08.04.15.09.24.12.11-.02.21-.06.31-.09-.06.05-.12.11-.18.15-.18.16-.39.27-.56.44.13,0,.26.02.39.04.26.04.52.04.77.1,0,.02.03.07.04.09.07.22.15.44.19.67.02.06.04.12.05.18-.18.32-.32.66-.53.97,0,.02-.02.06-.03.08-.12.22-.27.43-.35.67.38-.16.7-.42.99-.71.06.04.11.08.17.11-.15.24-.04.54-.15.79-.03.14-.05.29-.04.44.03.13.05.27.06.4-.03.04-.08.08-.11.12-.03-.03-.06-.06-.09-.1.03-.28,0-.56-.03-.84-.03-.02-.07-.04-.1-.06-.02.02-.06.06-.08.08-.03-.1-.06-.2-.09-.3-.06.05-.12.1-.18.14-.39.32-.8.62-1.18.95-.09.08-.19.15-.28.22.07-.1.13-.21.18-.32-.01-.01-.04-.04-.05-.05.06-.13.1-.27.16-.4.02-.07.05-.13.08-.2.07-.2.18-.39.24-.59.08-.25.18-.49.3-.72.07-.12.11-.25.13-.39.02-.12.08-.24.14-.34-.07-.02-.15-.04-.22-.06-.29-.05-.58-.11-.87-.15-.07-.01-.13-.03-.19-.05-.29-.05-.58-.1-.87-.16-.22-.04-.45-.06-.67-.12-.19-.03-.39-.05-.58-.11.1-.05.2-.09.3-.12.09-.05.18-.09.27-.12.07-.03.13-.05.2-.08.09-.04.18-.09.28-.12.36-.17.73-.33,1.1-.47.06-.03.13-.06.2-.08.07-.03.13-.06.2-.08.12-.07.25-.12.39-.16-.16-.18-.32-.37-.5-.52-.15-.13-.25-.3-.4-.43-.36-.35-.7-.72-1.04-1.09.22.07.46.07.68.15.13.03.26.07.39.12.05.01.11.03.16.04.1.02.2.05.3.06-.11-.13-.24-.24-.34-.39-.18-.19-.38-.36-.54-.56-.16-.2-.34-.39-.54-.55,0,.07-.04.13-.08.19-.01-.09-.01-.17-.01-.26-.01-.04-.02-.08-.03-.12-.2-.2-.36-.42-.53-.63.03,0,.08.02.11.02,0-.06,0-.12,0-.18Z"/>
  <path class="cls-2" d="M8.52,4.26s.1-.02.14-.03c.03.12.06.23.09.35.01.05.03.1.04.16.09.29.16.58.24.87.06.18.11.37.16.55.03.09.06.18.08.28.04.14.08.29.12.43.03.09.06.18.08.28.05.14.08.29.12.43.06.18.1.37.16.55.09.26.16.52.22.78-.19.06-.38.11-.57.17-.1.03-.2.06-.29.1-.14-.09-.13-.27-.18-.41-.02-.05-.03-.11-.04-.16-.05-.14-.08-.29-.12-.43-.02-.05-.03-.11-.04-.16-.01-.05-.03-.1-.04-.16-.03-.11-.05-.21-.08-.32-.03-.09-.05-.18-.08-.27-.01-.05-.03-.11-.04-.16-.03-.09-.05-.18-.08-.28-.06-.19-.11-.39-.16-.59-.07-.22-.12-.46-.19-.68-.16.16-.31.32-.51.44-.1-.19-.15-.41-.21-.62-.02-.04-.04-.09-.05-.14.13-.22.37-.34.49-.57.06-.09.08-.22.2-.25.19-.04.37-.11.56-.15Z"/>
  <path class="cls-2" d="M2.35,4.79c.12.07.26.13.37.23.07.11.09.23.12.35.02.05.03.1.05.15-.1-.07-.24-.11-.29-.23-.09-.16-.17-.33-.24-.51Z"/>
  <path class="cls-2" d="M6.27,6.36c.13-.05.27-.08.4-.11.02.06.04.12.07.19.04.15.09.29.11.44.02.05.04.11.07.16.07,0,.14-.03.21-.04.18-.07.36-.13.55-.14.04.16.08.33.12.49.03.08.06.16.08.25-.25.07-.5.14-.74.22.05.26.14.51.21.76-.03.03-.06.06-.09.09-.1.02-.19.04-.28.06-.13.04-.26.11-.4.09-.06-.16-.1-.32-.15-.48-.03-.09-.05-.18-.08-.27-.15.03-.3.08-.44.12-.11.04-.22.06-.33.07-.04-.18-.1-.36-.14-.55-.02-.06-.03-.12-.04-.18.24-.08.49-.15.73-.23-.02-.06-.04-.12-.05-.18-.06-.21-.14-.42-.16-.64.12-.04.23-.07.35-.1Z"/>
  <path class="cls-2" d="M8.24,12.4c.07-.03.14-.05.21-.06-.11.1-.27.13-.4.18-.13.04-.25.12-.38.17-.23.09-.44.24-.68.29-.17,0-.35.02-.52,0,.16-.13.37-.15.56-.22.09-.03.18-.05.28-.08.31-.09.63-.19.95-.28Z"/>
  <path class="cls-2" d="M9.74,8.81c.07.03.14.06.21.1,0,0,.01,0,.02.02.02.05,0,.09,0,.11,0,0,0,0,0,0,0,0,0,0,0,0-.06.08-.14.16-.23.21-.01,0-.03.02-.04.03,0,0-.01.01-.01.02-.01.08-.03.15-.06.22,0,0,0,0,0,0-.06.27.03.54.06.81.02.1-.08.18-.18.23,0,0-.01,0-.02,0-.26-.06-.16-.28-.14-.43.04-.28.07-.56,0-.84,0,0,0,0,0-.01-.06-.11-.27-.02-.33-.27,0,0,0,0,0,0,0-.16.04-.31.11-.46,0-.01.02-.02.04-.02.15.05.29.11.42.17.06.03.12.05.17.08Z"/>
</svg>