<?xml version="1.0" encoding="UTF-8"?>
<svg id="Layer_1" data-name="Layer 1" xmlns="http://www.w3.org/2000/svg" viewBox="0 0 14.99 13.5">
  <defs>
    <style>
      .cls-1 {
        fill: #ca7d3f;
      }

      .cls-2 {
        fill: #3cbb9b;
      }
    </style>
  </defs>
  <path class="cls-2" d="M4.67,1.38s.02,0,.03.01c.15.02.31.04.46.08.06,0,.12.02.17.03.06.01.12.02.17.04.64.13,1.29.24,1.93.38.06.01.12.02.17.03.16.03.32.07.48.1.08.01.15.04.21.1-.06,0-.12-.02-.18-.04-.17-.02-.35,0-.52.04-.07.01-.14.02-.21.03-.08.02-.16.03-.24.04-.07,0-.14,0-.21,0-.08-.01-.17-.02-.25-.04-.19-.01-.39-.04-.58-.07-.16-.03-.32-.06-.48-.05.05.15.13.29.17.44-.16.03-.32.06-.48.06-.19-.33-.4-.66-.58-.99-.01-.07-.05-.14-.1-.19Z"/>
  <path class="cls-2" d="M3.62,2.04c.05-.05.1-.1.16-.15.16.07.32.12.48.2.16.09.31.2.46.3-.09,0-.17-.01-.26-.02-.3,0-.58-.11-.84-.26-.08-.04-.17-.07-.24-.14.08.02.16.04.24.07Z"/>
  <path class="cls-1" d="M11.07,1.96c.15-.03.3-.1.45-.04.17.05.35.04.52.07.13,0,.27.02.39.07-.06.19-.04.39-.11.58-.02.18.02.36,0,.55-.02.2-.05.39-.08.58-.01.41-.06.81-.1,1.21,0,.2-.05.39-.04.58,0,.07-.01.13-.03.2-.01.23,0,.45-.04.68-.03.38.02.77-.03,1.15-.02.2,0,.4-.02.61-.02.19-.05.38,0,.56.01.06.01.12,0,.18,0,.24-.06.47-.04.7,0,.25,0,.49,0,.74-.11.02-.22.04-.34.03-.04.1-.09.2-.17.27-.05-.06-.1-.12-.16-.18-.04.02-.07.05-.1.08-.03.11-.06.22-.1.32.01.2-.03.4.04.59.04.09,0,.18-.04.27-.05,0-.09,0-.14,0-.1-.15-.05-.34-.02-.5,0-.1,0-.21,0-.31-.03-.13-.08-.25-.14-.37-.06.02-.12.05-.18.07-.05-.09-.08-.19-.11-.29-.1-.01-.2-.02-.3-.04-.18,0-.36,0-.54-.03-.09,0-.19,0-.28-.01.07.15.12.31.18.47.05.13.11.25.14.38.04.11.09.22.13.33-.14-.08-.24-.21-.34-.33-.13-.14-.2-.33-.34-.46-.08.03-.16.06-.23.11.01.05.03.1.04.15.07.14.11.29.17.44-.01.03-.02.06-.04.09-.18.06-.36.06-.55.04-.02.17.03.34.03.51-.14-.05-.11-.21-.12-.32-.04-.08-.08-.17-.17-.21-.14,0-.29,0-.43-.02-.6-.03-1.21-.06-1.81-.06-.41-.05-.83-.01-1.24-.02-.17,0-.35.01-.51-.05.03-.05.06-.1.08-.15.05-.15.13-.29.19-.44.43,0,.86-.06,1.29-.03,0-.05-.02-.1-.03-.16-.01-.06-.03-.11-.04-.17-.01-.07-.02-.14-.03-.21,0-.02-.02-.06-.03-.08.18-.01.37-.03.53.08,0-.02-.03-.06-.04-.08.3-.12.64-.03.95-.12-.03-.05-.07-.1-.1-.15.04-.04.09-.08.13-.12-.01-.01-.04-.03-.05-.05-.08,0-.16,0-.25,0-.32.04-.64.02-.95.03-.3.04-.6.03-.9.06-.39,0-.79.04-1.18.04-.33,0-.65.06-.98.04-.2.03-.4.02-.59.02-.05-.03-.1-.07-.15-.1-.07-.24-.02-.49-.04-.73.01-.31-.03-.62,0-.94,0-.52.02-1.04-.01-1.56-.02-.44-.02-.88-.02-1.31-.02-.44,0-.88-.01-1.31-.01-.12.07-.24.17-.3.07-.01.14-.01.21-.02.13-.03.25-.05.38-.07.2-.04.39-.07.59-.1.07-.01.14-.03.21-.04.06-.01.12-.02.19-.03.13-.02.27-.05.4-.07.06-.01.11-.02.17-.03.06-.01.11-.03.17-.04.13-.03.25-.05.38-.07.25-.06.51-.07.76-.14.07-.01.14-.03.21-.04.07-.01.14-.02.21-.03.26-.05.51-.1.77-.14.12-.03.25-.05.37-.07.07-.01.14-.03.21-.04.31-.07.62-.11.93-.17.37-.07.74-.14,1.1-.21.06-.01.11-.02.17-.03.06-.01.11-.02.17-.03.07-.01.14-.03.21-.04.34-.07.69-.14,1.04-.21M10.55,2.61c-.06.01-.12.02-.17.03-.24.07-.49.1-.73.17-.17.04-.34.09-.52.11-.12.02-.23.05-.35.07-.06.01-.12.02-.17.04-.13.03-.25.05-.38.07-.11.02-.23.03-.34.03-.2.06-.41.11-.62.14-.06.01-.12.02-.18.03-.06.01-.11.03-.17.04-.06.01-.12.02-.17.03-.06.01-.12.02-.17.04-.18.04-.37.06-.55.1-.46.09-.92.16-1.38.25-.27.05-.53.1-.8.14-.14.03-.27.05-.41.07-.07.01-.14.03-.21.04-.07.01-.14.02-.21.03-.08.02-.16.02-.24.03-.06.02-.13.04-.19.06,0,.83.02,1.66.01,2.49-.03.3.03.6.02.9,0,.56,0,1.11,0,1.67.16.04.32,0,.48-.01.15-.02.3,0,.45-.02.21-.03.41,0,.62-.02.29-.06.58-.02.87-.06.27-.02.53.01.8-.03.16-.02.32-.01.49-.02.24-.03.49-.04.74-.04.3-.05.62,0,.92-.05.21-.01.41,0,.62-.03.26-.02.52-.01.78-.01-.09.11-.18.2-.28.3.15-.06.28-.18.45-.21.06-.01.12-.02.19-.02.08-.02.16-.04.23-.06-.05.09-.13.17-.2.24.06,0,.12,0,.19-.01.12-.11.29-.11.44-.13.04-.05.08-.1.12-.15,0-.06.02-.12.03-.18-.01-.24.05-.47.03-.71.02-.36,0-.72.04-1.07.04-.54.04-1.08.06-1.62.01-.06.02-.12.02-.18-.02-.29.03-.58,0-.86-.02-.03-.05-.06-.07-.09-.07-.04-.13-.08-.19-.13-.06.24-.04.49-.1.74-.07-.06-.06-.16-.06-.24,0-.21,0-.42.04-.62-.04-.05-.09-.1-.14-.15-.02,0-.05.03-.06.04-.07-.1-.14-.21-.25-.26-.23-.08-.48-.06-.72-.1-.14,0-.28.04-.42.02.13-.03.27-.06.41-.07.12-.03.24-.06.36-.1-.02-.05-.04-.1-.05-.14.15.11.33,0,.49-.05.08-.01.16-.02.24-.02.16-.05.32-.09.49-.11.11-.03.23-.05.35-.07.13-.03.29-.06.4.04,0,.07,0,.15-.02.22-.02.1-.01.2-.02.3,0,.22-.05.44-.04.66-.02.4-.03.81-.06,1.21,0,.2,0,.41-.03.61,0,.23-.02.45-.02.68-.04.31-.02.62-.04.93-.03.21-.01.43-.05.64-.02.24,0,.48-.03.72-.01.13-.02.26-.02.39-.06.08-.12.14-.2.19-.28-.04-.55.05-.83.03-.25-.02-.5.05-.76.03-.08,0-.16,0-.24,0-.23.03-.46.02-.69.03-.26.05-.53,0-.79.06.08.31.19.61.28.91.03.09.07.19.06.28-.12.08-.26.12-.39.18.14,0,.29-.02.43-.05.04-.02.08-.04.12-.06.02-.04.04-.08.06-.12.11-.05.23-.08.35-.08-.04-.11-.08-.22-.11-.33-.05-.13-.09-.25-.11-.39.11,0,.23,0,.34-.02.21-.05.43-.03.65-.03.23-.07.48,0,.72-.05.24-.02.48,0,.72-.03.19-.01.39-.03.58-.02.08-.07.19-.14.18-.26-.01-.24,0-.48.02-.72.01-.21,0-.42.04-.62,0-.2,0-.4.04-.6,0-.43.03-.86.06-1.29,0-.24.06-.47.04-.71,0-.31.03-.61.05-.92.01-.2.01-.39.03-.59.02-.51.09-1.01.09-1.52-.02-.01-.06-.03-.09-.04-.05-.01-.1-.02-.14-.03-.1-.03-.2-.07-.3-.04-.26.05-.52.1-.77.15M10.44,3.4s-.09.03-.13.04c.08.18.25.3.39.43.01-.17.05-.35.03-.52-.09.02-.19.04-.28.05Z"/>
  <path class="cls-2" d="M.94,2.11c.14.05.13.22.18.34.04-.06.04-.13,0-.19.06-.05.13-.11.21-.09.19.03.38.05.57.1.34.05.67.11,1,.17.24.03.48.09.73.14.13.01.25.04.38.07.15.03.3.06.45.1-.13.03-.25.05-.38.07-.11.03-.23.05-.35.07-.19.04-.38.06-.57.1-.13.02-.26.05-.39.03-.37-.04-.74-.05-1.11-.11-.04.29-.02.59,0,.89,0,.15-.02.3-.01.44.05.31.02.63.03.94-.06-.03-.12-.05-.18-.08-.02.16.02.31.02.47.03.16.02.33.07.49.05.17.1.35.1.53,0,.1.05.2.08.29.01.05.02.09.03.14.05.19.1.39.14.59.06.24.1.49.08.73-.1-.15-.19-.32-.25-.49-.01-.04-.02-.08-.04-.12-.01,0-.04,0-.05,0,0,.2,0,.4.01.6-.06-.14-.11-.28-.15-.42-.11-.03-.22-.05-.33-.06,0-.06,0-.11.01-.17.08,0,.15-.01.23-.01.01-.26-.05-.52-.13-.76-.11-.33-.2-.67-.31-1-.15-.5-.34-.98-.49-1.48,0-.11.03-.22.04-.32.12.07.25.12.37.2.1.06.2.13.31.19,0-.34-.05-.67-.09-1-.03-.22-.06-.45-.07-.67-.02-.1-.03-.2-.04-.29-.02-.09-.03-.18-.03-.27-.03-.05-.05-.11-.07-.16M1.3,5.08c-.05.11.11,0,0,0Z"/>
  <path class="cls-2" d="M12.38,2.66c.17,0,.35,0,.52-.03.03.02.05.04.08.06-.01.02-.04.06-.05.09-.06.26-.13.51-.2.76-.02.08-.05.16-.07.24-.01.05-.02.09-.03.14-.05.21-.1.42-.17.62-.09.32-.14.66-.27.97,0-.1.01-.2.03-.3.03-.34.05-.69.07-1.03.04-.43.13-.85.15-1.28-.02,0-.06,0-.08.01,0-.09.01-.17.02-.26Z"/>
  <path class="cls-1" d="M9.2,4.06c.12-.03.24-.04.36-.01-.12.06-.26.06-.39.09-.12.02-.23.07-.35.1-.05.02-.11.03-.16.05v.03c.17,0,.34,0,.5.02-.19.02-.37.07-.55.14-.4.07-.81.14-1.21.2-.32.06-.64.1-.97.11,0-.04,0-.09,0-.13-.03-.07,0-.15.03-.22.14-.03.28-.05.41-.07.23-.04.46-.07.69-.1.54-.07,1.08-.16,1.62-.21Z"/>
  <path class="cls-1" d="M4.61,4.31c.08.02.16.04.24.06.18.06.38.14.49.31-.02.02-.06.05-.08.06-.19.29-.4.57-.65.82-.03-.25-.02-.51-.02-.76,0-.11,0-.23.02-.34,0-.05,0-.11,0-.16Z"/>
  <path class="cls-2" d="M13.93,4.47c.05,0,.1-.02.16-.02.05.03.1.08.14.12,0,.06,0,.13,0,.19-.06.05-.1.12-.18.14-.07.01-.16.03-.23,0-.11-.14-.05-.35.1-.43Z"/>
  <path class="cls-2" d="M4.05,4.58c.09-.02.18-.03.27-.05,0,.21.03.41.02.62-.01.28,0,.56,0,.84.03,0,.07.01.1.02.12-.04.25-.03.38-.04.3-.04.61-.04.91-.06,0,.15-.03.29-.07.43-.03.09-.05.17-.11.24-.16.39-.51.71-.93.8-.31.06-.66.05-.93-.13-.12-.09-.23-.2-.32-.32-.1-.12-.18-.26-.23-.41-.07-.2-.09-.41-.07-.62.01-.07.02-.14.04-.21.01-.05.02-.09.04-.14.07-.28.24-.53.47-.7.12-.13.27-.21.43-.26Z"/>
  <path class="cls-1" d="M9.16,4.85c.2-.01.4-.03.59-.02-.11.04-.23.07-.35.1-.05.01-.09.02-.14.03-.17.06-.35.1-.53.15.11.06.24,0,.36,0-.04.02-.07.04-.11.05-.56.09-1.13.16-1.69.24-.28.07-.57.07-.86.1,0-.07,0-.14-.02-.21.02-.04.03-.09.07-.11.13-.05.28-.04.42-.07.3-.03.6-.09.9-.1.36-.07.72-.1,1.08-.14.09-.02.18-.03.27-.04Z"/>
  <path class="cls-1" d="M4.79,5.68c.21-.29.51-.49.77-.73.08.17.15.34.19.53,0,.02,0,.06,0,.08-.15.04-.32.04-.47.07-.16.03-.32.04-.48.05Z"/>
  <path class="cls-2" d="M13.11,5.31c.09-.17.36-.24.49-.08.13.21-.02.49-.25.54-.06-.02-.12-.05-.17-.07-.03-.02-.06-.05-.09-.07,0-.11-.02-.22.02-.32Z"/>
  <path class="cls-1" d="M7.4,5.76c.27-.1.55-.04.83-.08-.03.04-.05.08-.07.13.01.05.07.07.1.1-.16.09-.35.07-.53.11-.18.04-.35.06-.53.08-.14.03-.28.05-.42.07-.08.02-.16.04-.24.08-.13-.03-.1-.16-.12-.26.06-.1.19-.1.29-.12.09-.01.18-.02.27-.03.14-.02.28-.04.42-.07Z"/>
  <path class="cls-2" d="M12.37,6.43c-.09-.26.04-.51.04-.77.06.04.13.08.21.05.1-.04.18.02.26.07.04.1.11.19.06.3-.06.2-.25.3-.43.39-.05-.01-.1-.02-.15-.03Z"/>
  <path class="cls-2" d="M9,5.9c.25-.04.5-.05.75-.07-.02.74-.02,1.48-.02,2.23-.07,0-.15.01-.22.01-.17.03-.34.03-.51.03.01-.73,0-1.47,0-2.2Z"/>
  <path class="cls-2" d="M12.97,6.58c.19-.12.41-.21.61-.31,0,.03,0,.08,0,.11.03.05.07.1.11.15.04-.01.07-.03.11-.04-.27.51-.57,1-.8,1.52.37-.15.72-.38,1.09-.52.2-.09.38-.23.61-.25.06.08.14.15.22.2,0,.04,0,.08,0,.12-.05.07-.03.16-.02.24-.33.14-.65.3-.97.48-.44.23-.9.42-1.31.69-.05.01-.1.02-.15.04-.06-.02-.12-.03-.18-.05,0-.18-.02-.37.01-.56.09-.22.18-.43.28-.64.02-.06.04-.12.06-.17.05-.14.12-.27.18-.4-.16.09-.33.14-.49.23,0-.17,0-.34,0-.51.21-.12.41-.24.63-.32Z"/>
  <path class="cls-2" d="M.77,6.59c.06-.06.09-.13.12-.2.06.16.1.33.21.46.02-.02.06-.06.07-.09-.15.33-.34.64-.54.94.03.17.14.3.22.45.12.22.26.43.38.65,0-.19,0-.39,0-.58.17.2.21.47.29.71.03.12.02.24.03.36.05.34.05.69.11,1.03,0,0,.01.03.02.03.22.03.44,0,.65.02.28.05.57.02.86.03.17,0,.33-.03.5,0-.17.04-.34.05-.51.09-.07.01-.14.02-.2.03-.16.06-.32.09-.49.14-.06.01-.12.02-.17.04-.27.07-.54.11-.81.15-.1.02-.2,0-.28-.06-.04-.38.01-.76,0-1.14,0-.16,0-.31,0-.47-.06.05-.12.11-.17.16-.12-.12-.2-.27-.3-.41-.23-.33-.45-.66-.68-.98-.08-.09-.06-.2-.06-.31.01-.01.04-.04.05-.05.09-.17.21-.32.31-.49.11-.18.24-.36.38-.52Z"/>
  <path class="cls-2" d="M8.07,6.74c.22-.04.44-.02.66-.06,0,.48,0,.97,0,1.45-.22,0-.44.03-.65.04-.01-.48-.01-.95-.02-1.43Z"/>
  <path class="cls-2" d="M7.22,7.39c.19-.03.38-.05.58-.06.06.05.03.13.03.19.02.21,0,.43.01.64-.22.05-.44.04-.66.07,0-.27,0-.55-.01-.82.01,0,.04-.02.05-.03Z"/>
  <path class="cls-1" d="M6.27,7.87c.09-.02.2-.05.27.03-.22.01-.44.05-.65.1-.25.04-.51.06-.76.1-.05.01-.1.03-.14.04.18.08.38.03.57.05.01.01.04.03.05.05.05.01.1.03.14.04-.36.05-.73.08-1.1.1-.34.06-.68.05-1.03.09-.15.01-.3.02-.45.02-.01-.13,0-.26-.01-.39.01-.02.04-.05.05-.07.36-.02.71-.05,1.07-.08.25,0,.5-.06.75-.03.27.03.53-.04.8-.03.14,0,.29,0,.43,0Z"/>
  <path class="cls-2" d="M13.6,9.29c.09-.02.18-.03.27,0,.07,0,.13,0,.2,0,.08-.02.16-.03.24-.04-.04.03-.09.05-.14.07-.18.06-.34.15-.52.2-.11.05-.23.1-.34.14-.25.11-.52.18-.78.26,0-.1-.04-.19-.07-.28.14-.09.3-.13.45-.21.21-.11.45-.17.69-.15Z"/>
  <path class="cls-2" d="M3.12,10.65c.17-.03.34-.07.52-.08-.01.06-.02.11-.03.17-.14.27-.08.59-.05.88.02.07-.04.12-.07.17-.11-.05-.15-.18-.12-.29,0-.15.02-.31,0-.46-.03-.06-.05-.13-.11-.17-.08-.05-.1-.15-.14-.23Z"/>
</svg>