<?xml version="1.0" encoding="UTF-8"?>
<svg id="Layer_1" data-name="Layer 1" xmlns="http://www.w3.org/2000/svg" viewBox="0 0 14.99 13.5">
  <defs>
    <style>
      .cls-1 {
        fill: #ca7d3f;
      }

      .cls-2 {
        fill: #3cbb9b;
      }
    </style>
  </defs>
  <path class="cls-2" d="M7.36,1.74c.55-.38,1.1-.77,1.67-1.1-.09.19-.15.39-.28.55-.09.18-.2.35-.3.52-.07.14-.14.28-.22.41-.1.16-.16.34-.27.5-.05.09-.1.19-.15.27-.05.13-.11.26-.18.38-.03.06-.08.12-.06.19.07-.02.13-.04.2-.06.09-.03.18-.06.28-.08.08-.01.2.05.24-.06.1-.04.21-.06.31-.09.14-.05.29-.09.44-.12.09-.03.18-.06.28-.08.09-.03.18-.06.28-.08.11-.03.21-.06.32-.08.14-.04.29-.08.43-.11.21-.07.42-.11.63-.16.09-.02.18-.04.27-.05.03.05.05.1.08.15.06-.03.11-.06.17-.09-.1.17-.2.35-.32.51-.12.26-.32.49-.45.74,0,.01,0,.04,0,.05.12.02.25.02.37.04.12.01.23.03.35.05-.09.12-.17.25-.26.36-.58,0-1.17.01-1.75-.03.16-.25.32-.49.5-.73-.09.02-.18.05-.26.07-.05.01-.11.02-.16.04-.1.03-.21.06-.32.08-.05.01-.11.02-.16.04-.46.13-.92.25-1.37.4-.24.09-.5.04-.74.05-.2,0-.4-.03-.6-.04.11-.29.28-.56.39-.86,0-.02.01-.07.02-.09-.19.12-.39.22-.58.33-.11.08-.23.14-.36.2-.25.12-.47.27-.71.4-.14.02-.28,0-.42.01-.19,0-.38-.06-.58-.02-.06,0-.13,0-.19,0,.17-.16.41-.17.58-.31.16-.11.32-.21.46-.33.27-.3.61-.5.93-.73.25-.2.53-.37.79-.55.23-.17.47-.32.7-.48M8.63,1.02s-.05.06-.07.09c-.02.06-.04.11-.07.16.11-.07.22-.15.26-.29-.04,0-.09.02-.13.03Z"/>
  <path class="cls-1" d="M1.53,2.71c.73-.36,1.42-.79,2.15-1.14.08-.05.15.02.22.04.05.37.11.75.14,1.13.03.21.05.42.08.63.01.09,0,.19,0,.28-.13.1-.26.2-.4.3.01-.03.04-.1.05-.14-.07.1-.13.2-.21.29-.05-.12-.08-.25-.11-.37-.01-.05-.03-.11-.04-.16-.03-.1-.06-.21-.08-.32-.02-.1-.04-.2-.06-.29-.45.22-.89.47-1.35.67-.2.1-.41.19-.6.31.07.19.13.39.19.58.09.25.2.49.27.75.07.16.12.33.19.49.19-.09.36-.21.55-.29,0,.05,0,.11.01.16.05.23.08.45.13.68-.34.22-.68.44-1.04.62-.02-.07-.05-.13-.07-.2-.28-.5-.5-1.03-.76-1.54-.17-.35-.32-.71-.5-1.05-.12-.2-.17-.43-.3-.62.2-.11.4-.19.6-.31.3-.19.64-.31.93-.5M3.68,1.7s.1-.05.07-.08c-.05-.03-.1.05-.07.08Z"/>
  <path class="cls-2" d="M2.66,3.88c.06-.03.13-.06.19-.1.11.16.13.36.19.55-.12.03-.23.08-.32.16-.06.15-.12.3-.21.43-.03.1-.03.21-.12.28-.03-.02-.06-.05-.09-.07-.09-.32-.23-.63-.3-.96.14-.1.3-.16.46-.22.07-.03.13-.06.2-.08Z"/>
  <path class="cls-1" d="M11.83,4.33c.13-.15.19-.38.4-.43.2-.02.41,0,.61.03.35.02.7,0,1.05.05.16.02.35-.04.49.08.07.08.07.19.1.29-.05.11-.09.24-.19.32-.14.11-.2.27-.32.4.03-.07.06-.14.09-.21-.02,0-.08.02-.1.03-.02.04-.04.07-.06.11-.03.18-.1.35-.13.53-.03.08-.07.17-.12.24,0-.06.01-.12.02-.18.01-.09.02-.18.04-.28,0-.17.11-.37,0-.51-.08,0-.17.02-.25-.02-.17-.09-.36-.11-.54-.14-.07-.01-.13-.03-.2-.04-.1-.01-.2-.03-.29-.04-.08,0-.17,0-.24-.06-.1-.09-.23-.12-.35-.16Z"/>
  <path class="cls-1" d="M3.04,4.65c.15-.04.31,0,.47,0,.29,0,.58-.04.86,0,.25.02.5,0,.74.03.28.04.56,0,.85.01.53.02,1.06-.02,1.58.04.54-.02,1.08.02,1.62.01.13,0,.25,0,.38.02.51,0,1.02.02,1.52.02.21.02.42.03.63.02.07.08.14.17.2.25-.12.3-.23.59-.34.89-.05.15-.1.29-.16.44-.08.24-.18.48-.28.71-.04.11-.07.21-.12.32-.02.07-.05.13-.08.2-.06.17-.13.34-.2.51-.04.14-.09.27-.16.4-.06.17-.12.35-.2.52-.08.26-.18.5-.27.75-.01.12-.13.16-.22.2.11.24.28.53.14.79-.12.22-.36.33-.58.42-.3.09-.61-.01-.92,0,.39.29.46.94.06,1.25-.1.15-.27.21-.43.27-.42.14-.91-.13-1.05-.54-.05-.16-.05-.33-.02-.49.04-.13.08-.28.19-.38.12-.11.27-.18.41-.26-.69-.1-1.38-.19-2.06-.32-.09-.01-.18-.02-.27-.04-.07-.01-.13-.03-.2-.04-.14-.02-.28-.07-.42-.11.05,0,.09,0,.14,0,.08-.02.16-.03.25-.04.24-.06.48-.03.73-.03.22.01.43-.06.65,0,.2,0,.4.03.59.08.07,0,.13.02.2.03.15.07.31.05.47.05.39.03.79.07,1.17.18v-.04c.17-.04.32-.14.44-.26,0-.04,0-.08,0-.12-.07-.12-.12-.26-.2-.37-.07-.05-.15-.06-.22-.09-.01-.01-.04-.04-.05-.06-.06-.01-.11-.03-.17-.04-.25-.05-.5-.1-.75-.16-.07-.01-.13-.03-.2-.04-.32-.06-.63-.13-.95-.2-.07-.01-.13-.02-.2-.04-.05-.01-.11-.03-.16-.04-.05-.01-.11-.02-.16-.04-.17-.11-.37-.07-.56-.11-.02-.05-.04-.1-.06-.16-.24.08-.5.06-.73-.06-.33.01-.65-.08-.97-.13-.13-.03-.29-.02-.38-.14-.12-.09-.1-.24-.11-.36-.04-.18-.06-.36-.08-.54-.06-.4-.14-.79-.2-1.19-.01-.07-.03-.13-.04-.2-.02-.08-.03-.16-.04-.24-.02-.09-.03-.18-.04-.28-.03-.16-.06-.32-.08-.47-.02-.08-.03-.16-.04-.24-.05-.18-.08-.39.06-.54M11.48,5.46c-.09.12-.18.25-.25.39-.03.12-.07.24-.11.36-.03.09-.06.17-.08.26.11-.2.2-.41.35-.58.1-.11.18-.22.26-.34.02-.11.07-.22.12-.33,0-.09,0-.18,0-.27-.14.14-.17.35-.29.51M3.59,5.21c0,.06,0,.12.01.18.01.07.02.13.04.2.03.18.06.35.07.53-.05,0-.11,0-.16,0-.01.03-.03.06-.04.1.09.07.17.14.27.2.03.15.06.3.06.45.02.12.04.24.06.36.3,0,.6.02.89.06.2,0,.4.02.6.06.02-.28-.03-.56-.03-.85-.26-.03-.51-.04-.77-.09-.12,0-.23-.03-.34-.07.12,0,.25,0,.37-.01-.12-.07-.25-.12-.39-.16-.07-.02-.13-.04-.2-.06.26-.03.52.02.77.04.18,0,.36,0,.53.01.02-.29,0-.58,0-.86-.27-.07-.55-.02-.82-.06-.31-.05-.63-.02-.94-.03M5.73,5.29c.02.24.05.47.04.71.01.08-.03.18.05.23.25.01.51-.02.76.02.29,0,.57.05.86.05.17,0,.33.05.5.03,0-.08.02-.16.04-.24.05-.22.09-.44.17-.65,0-.01-.02-.04-.03-.05-.19-.03-.38-.02-.56-.03-.61-.02-1.21-.07-1.82-.08M8.59,5.43c0,.15-.03.29-.08.43-.04.17-.06.34-.09.51.31.05.63.03.94.09.19,0,.38,0,.57.04.13,0,.25.02.38.01.08-.12.09-.28.15-.42.07-.2.13-.41.22-.6-.28-.01-.56,0-.84-.04-.32,0-.64,0-.96-.04-.1,0-.2,0-.29.01M5.79,6.52c-.02.28,0,.57-.01.85.08,0,.15.02.23.03.25,0,.5.04.75.08.24.02.48.04.72.08.07,0,.13,0,.2.02.02-.06.03-.11.05-.16,0-.07.02-.15.04-.22.02-.16.05-.31.06-.47-.68-.09-1.36-.11-2.03-.21M8.31,6.75c-.02.11-.04.23-.07.34-.03.12-.05.24-.08.36-.01.06-.02.13-.03.19.1.02.2.03.3.05.11,0,.22.01.33.03.1.01.2.02.3.04.25,0,.5.08.76.09.04-.11.08-.22.13-.33.02-.07.05-.13.08-.2.04-.14.09-.27.14-.41-.04-.01-.08-.02-.12-.04-.29,0-.58-.05-.88-.05-.29-.04-.58-.02-.86-.08M3.95,7.59c.07.23.08.48.12.71.03.02.06.04.08.05.07,0,.14.02.21.04.09,0,.18.02.27.04.23.02.44.09.67.11.06.03.12.05.18.08-.02-.31-.08-.62-.07-.93-.07-.02-.14-.03-.22-.05-.19,0-.38-.04-.57-.07-.23,0-.43-.13-.65-.14-.05.04-.02.11-.03.17M5.77,7.72c0,.08-.02.15-.03.23.06.22-.02.46.04.68.18.05.37.06.55.09.24.04.47.08.71.12.14.02.27.04.4.06.05-.31.08-.62.16-.93-.27-.07-.56-.07-.84-.13-.3-.05-.61-.06-.92-.12-.02,0-.07,0-.09,0M8.02,8.01c-.04.15-.07.31-.1.47-.01.05-.03.11-.04.16-.03.11-.06.22-.1.33.5.08,1,.16,1.51.24.06.02.08-.05.11-.08.07-.31.21-.59.3-.89-.05-.01-.09-.03-.14-.04-.22,0-.43-.04-.65-.07-.3-.03-.59-.08-.89-.11M7.6,11.67s-.03.09-.04.14c0,.14.04.31.18.38.16.1.38.07.5-.07.11-.1.09-.26.1-.4-.05-.07-.09-.14-.16-.19-.2-.03-.44-.03-.58.14Z"/>
  <path class="cls-2" d="M12.59,5.19c.21.02.42.07.63.11-.09.19-.19.37-.28.56-.06.18-.15.35-.24.51-.06.18-.15.35-.24.51-.08.25-.22.48-.34.72-.16.35-.38.68-.48,1.05.2-.1.39-.24.59-.34.61-.4,1.26-.72,1.88-1.09.14-.09.29-.15.43-.24.13-.08.25-.17.4-.22-.25.26-.51.5-.74.78-.27.26-.51.54-.79.79-.15.13-.26.3-.4.43-.11.11-.21.22-.31.34.42.17.85.3,1.27.47.08.03.18.05.23.12-.2.15-.41.3-.63.43-.04.03-.08.05-.12.08-.2.13-.39.27-.59.39-.2.13-.39.27-.59.4-.04.03-.08.05-.12.08-.25.18-.5.34-.75.53-.38.24-.73.51-1.11.75-.23.15-.44.32-.67.46.12-.17.28-.31.42-.46.04-.09.1-.17.17-.25.36-.46.75-.88,1.12-1.33.24-.31.56-.55.79-.87-.17-.08-.35-.14-.53-.22-.07-.03-.15-.06-.22-.09,0,.22,0,.44.02.66-.03,0-.1,0-.13.01,0-.13-.01-.25-.01-.38-.06-.14-.05-.29,0-.43,0-.02-.02-.05-.03-.06-.06-.02-.11-.03-.17-.05.01-.09.01-.19.05-.28.06-.11.17-.17.27-.24.08-.17.17-.35.24-.53.02-.08.05-.16.07-.23-.17.1-.29.24-.4.41.03-.16.11-.3.17-.45.04-.14.09-.27.16-.4.05-.18.12-.35.2-.51.06-.16.12-.32.2-.48.04-.1.08-.2.13-.3.11-.22.17-.47.26-.69.06-.16.15-.31.2-.48Z"/>
  <path class="cls-2" d="M.36,6.73c.13,0,.22.09.32.17.14.1.27.2.4.32.28.23.57.46.84.71.09.23.35.3.51.48-.03.04-.06.07-.09.11-.09-.05-.17-.09-.25-.15-.02,0-.05,0-.07,0-.1-.06-.2-.11-.3-.16-.1-.03-.2-.06-.29-.08-.05.04-.09.09-.14.13-.12-.06-.08-.25-.21-.3-.21-.1-.4-.23-.59-.37-.14-.11-.3-.2-.42-.34.1.04.2.09.3.13.04-.06.06-.12.09-.18.09,0,.17,0,.25.02-.09-.17-.22-.32-.35-.46Z"/>
  <path class="cls-2" d="M1.79,8.79s.05-.04.07-.06c.06.05.13.09.19.14-.06.13-.13.26-.2.39-.06.18-.14.36-.22.53.15.02.31.04.47.05-.06.13-.05.28-.06.42.03.04.07.09.1.13-.04.09-.08.17-.13.25,0,.16-.01.32-.02.48-.02-.02-.06-.06-.08-.08,0-.12,0-.25,0-.37-.28.32-.54.65-.84.95-.09.09-.14.21-.23.3.03-.09.07-.17.11-.25.03-.11.07-.21.12-.32.06-.14.11-.29.16-.43.06-.21.16-.4.23-.61-.12-.05-.26-.07-.39-.11-.15-.02-.3-.05-.44-.1-.07-.03-.16-.01-.23-.01.07-.03.14-.04.21-.07.28-.32.62-.57.9-.87.08-.13.2-.23.28-.36Z"/>
  <path class="cls-2" d="M2.12,9.18c.1-.03.2-.12.31-.08.14.05.26.14.38.22-.09.04-.18.08-.27.12-.14.03-.28.02-.42.02,0-.09,0-.18,0-.27Z"/>
  <path class="cls-1" d="M4.77,9.44c.13,0,.26.03.39.06.16.04.32.08.47.12.24.06.48.13.71.2.12.03.23.07.34.11-.35,0-.69-.04-1.04.01-.29,0-.58.03-.87.06.02.01.06.04.08.05.07,0,.15.02.22.03.08.01.16.03.23.04.08.01.16.03.24.04.08.01.16.02.24.04.15.01.29.04.43.07.09.03.19.06.28.07-.36,0-.73.02-1.09,0-.33,0-.65,0-.97.02-.2-.01-.39-.01-.59-.05-.16,0-.32,0-.48-.03-.05-.1-.06-.22,0-.33.04-.11.15-.17.26-.17.14,0,.28-.01.42-.02.24-.03.47-.08.71-.08.09-.02.17-.03.26-.04.02-.01.06-.04.09-.06-.12-.04-.23-.09-.33-.17Z"/>
  <path class="cls-1" d="M3.28,10.84c.09-.12.23-.16.36-.21,0,.03.02.08.03.1.3,0,.6.06.9.07.09.03.13.13.17.2.08.16.14.34.09.51-.06.23-.17.48-.4.56-.07.06-.14.12-.23.16-.27.05-.59.05-.81-.14-.38-.28-.44-.91-.11-1.25M3.6,11.24c0,.11-.03.22.01.32.05.1.15.15.24.22.09,0,.18,0,.26-.05.11-.05.16-.17.23-.26,0-.09-.02-.19-.03-.28-.1-.09-.2-.21-.35-.19-.16-.01-.28.1-.35.23Z"/>
  <path class="cls-1" d="M12.47,11.44c.1-.07.2-.12.3-.17.05.15.08.3.08.46-.08.08-.19.15-.23.26-.04.26-.02.53,0,.8.02.14.08.35-.1.41-.07-.05-.14-.13-.13-.22.02-.26.08-.51.04-.77-.02-.07-.04-.15-.04-.22-.04-.04-.08-.07-.12-.11-.02-.05-.05-.09-.07-.14v-.12c.05-.03.1-.06.15-.09.04-.03.08-.05.12-.08Z"/>
</svg>