<?xml version="1.0" encoding="UTF-8"?>
<svg id="Layer_1" data-name="Layer 1" xmlns="http://www.w3.org/2000/svg" viewBox="0 0 14.95 13.5">
  <defs>
    <style>
      .cls-1 {
        fill: #ca7d3f;
      }

      .cls-2 {
        fill: #3cbb9b;
      }
    </style>
  </defs>
  <path class="cls-1" d="M3.51,0c.19.02.39.02.57.05,1,.27,2.02.46,3.02.7.26.05.52.06.76.17-.07.02-.21.06-.28.08.39.23.86.19,1.29.31.22.02.45.16.66.05-.17-.02-.34-.06-.5-.12.22-.08.47-.04.69,0,.47.13.96.16,1.43.3.58.13,1.16.21,1.74.33-.02.19-.03.38-.03.56.03-.03.09-.1.12-.13.06.23.09.46.02.69.05,0,.15-.01.19-.02.03.03.08.08.11.1.16.03.33.06.49.09-.1.34-.15.69-.27,1.02-.1.35-.1.72-.2,1.08-.07.16-.19.31-.2.5-.06.78-.3,1.54-.37,2.32.05-.03.13-.1.18-.14.07.41.06.82.1,1.23.01.22.06.46-.04.67-.05-.18-.09-.36-.12-.54-.01.64.04,1.28.02,1.92-.21,0-.43,0-.63.06.06.05.12.11.18.16-.12.06-.24.12-.34.21-.04.17-.03.34-.06.51-.12,0-.25,0-.37.01-.09.1-.17.21-.23.33-.13.32.15.7-.12.98-.31-.32.13-.9-.29-1.16-.05.08-.1.16-.14.25-.02-.12-.05-.24-.07-.36-.53.02-1.07-.01-1.6.06-.76.05-1.51.14-2.27.15,0,.13.02.27.03.4-.14.01-.27.02-.4.04,0,.09-.01.19-.03.28-.19.05-.16-.16-.19-.27-.14-.02-.29-.03-.43,0-.03.2.1.48-.11.63-.02-.18-.02-.36-.02-.54-.12,0-.24.01-.36,0-.06-.07-.12-.15-.17-.23.02-.09.05-.18.07-.28-.26-.03-.57.03-.79-.15-.12-.08-.18-.21-.25-.33-.25.03-.41-.13-.55-.3-.01-.17-.02-.35-.02-.52.04.01.11.04.14.05,0-.2-.01-.4-.04-.6.04,0,.11,0,.15-.01.08-.07.17-.14.26-.21.04.32.07.64.1.95.07-.15.12-.32.21-.46.21-.21.53-.31.71-.55-.19.04-.32.19-.47.29,0-.19.04-.38.14-.54.04.03.12.1.16.13.12-.11.22-.23.32-.36.05.09.11.18.17.27-.02.04-.04.09-.05.13.03.19.04.38.06.57-.36.03-.67.26-.85.55-.07.14-.16.37.02.48.17.14.4.15.61.17.03-.22-.03-.49.13-.68.23.31.19.72.22,1.08.3-.03.6-.08.9-.03-.05-.34-.07-.69-.03-1.04.13.21.14.46.32.64,1.01-.03,2.02-.13,3.03-.18.54-.07,1.09-.01,1.63-.11-.12-.15-.23-.3-.36-.45.12-.16.26-.31.33-.49.03,0,.1.02.14.02.03-.02.09-.08.12-.1.24,0,.54.22.73-.01.08-.43-.11-.85-.08-1.28.03-.46-.12-.91-.06-1.37.16-.51.16-1.05.22-1.58.03-.32.1-.64.1-.97,0-.36.15-.7.12-1.06.01-.1-.05-.18-.12-.24-.01-.25,0-.5-.04-.75-.09.2-.08.41-.09.62,0,.4-.08.79-.12,1.19-.02.24,0,.5-.12.72-.08-.4.01-.81-.02-1.22-.03-.38,0-.76-.06-1.14-.06-.44,0-.89-.05-1.33-1.01-.19-2.04-.31-3.06-.5-.35-.11-.72-.11-1.07-.17-.35-.06-.69-.12-1.04-.17-.03-.02-.07-.07-.1-.1-.94-.14-1.88-.31-2.83-.45.04.34,0,.69.06,1.03-.07-.01-.15-.03-.22-.04-.04-.07-.08-.13-.13-.2.02.09.04.19.06.28-.1.06-.21.1-.31.14-.02.03-.05.08-.07.1-.15-.01-.3-.02-.44-.04.11-.32-.12-.64,0-.96.05-.18.05-.37.06-.55.11.14.16.31.25.47.03-.33.01-.66-.05-.98.07-.05.13-.1.2-.15M9.57,1.49s.07-.03.09-.04v-.05s-.07-.02-.1-.03c0,.03,0,.09,0,.12M3.2,1.4c-.03.26-.03.53.04.79.11-.25.06-.55-.04-.79Z"/>
  <path class="cls-2" d="M8.64.16c.1-.04.14,0,.11.1-.1.04-.14,0-.11-.1Z"/>
  <path class="cls-2" d="M7.79.62c.08-.11.14-.3.3-.32.09.09-.02.17-.1.23.01.04.04.11.05.14-.08-.02-.17-.03-.25-.05Z"/>
  <path class="cls-2" d="M10,.29c.1-.03.14,0,.11.1-.11.03-.14,0-.11-.1Z"/>
  <path class="cls-2" d="M11.67.36c.17-.03.07.28-.06.2-.05-.06-.02-.17.06-.2Z"/>
  <path class="cls-2" d="M9.05.4c.12-.03.16.17.05.2-.12.02-.16-.17-.05-.2Z"/>
  <path class="cls-2" d="M10.84.4c.14-.02.1.14.14.22-.05-.01-.16-.05-.21-.06.02-.05.05-.11.07-.16Z"/>
  <path class="cls-2" d="M8.46.8c.08-.07.17-.15.26-.22.12.09.21.2.28.34-.19.04-.38,0-.53-.12Z"/>
  <path class="cls-2" d="M2.11.61c.14.22.07.49.15.73.1.35.17.71.2,1.07.08,0,.16,0,.24,0,0,.03,0,.09,0,.12-.21.28-.37.61-.31.97-.03,0-.08,0-.11-.01-.08.51-.2,1.05-.06,1.56.04-.14.07-.29.1-.43.27.17.23.5.31.76-.09.1-.22.15-.34.21-.03-.13-.05-.27-.14-.38,0,.12,0,.24.02.36-.04.16-.09.33-.11.5.18.15.38.26.57.39.01.17,0,.36.09.51.1.15.24.27.37.4-.05.05-.11.1-.16.15-.17-.15-.33-.3-.51-.44.02.19.14.35.26.51.12.15.02.36.03.53-.2.09-.39.21-.55.37.04.01.13.04.17.06-.04.07-.09.13-.14.19.18.1.38.17.58.23-.07.11-.14.23-.21.34.04.05.09.09.13.14,0,.04,0,.11,0,.15.32.09.37.42.47.68.04.18.3.17.36.34,0,.06-.04.11-.08.16-.08-.08-.14-.18-.21-.27-.03.03-.1.09-.14.12-.08-.09-.09-.28-.24-.28-.05.08-.08.16-.12.24-.02.02-.07.08-.09.1-.06.45-.12.9-.05,1.35.02.21.1.49-.14.61-.24-.21-.07-.53-.07-.79.08-.58-.08-1.14-.15-1.71-.16.11-.33.23-.52.3.08-.35.44-.57.49-.93-.29-.15-.61-.21-.92-.32-.4-.16-.83-.26-1.23-.42.47-.21.96-.37,1.43-.59-.19.02-.37.06-.56.07.2-.23.45-.39.72-.54.04.1.09.2.13.3.15-.08.3-.16.43-.26-.14-.35-.25-.73-.52-1.01-.18-.18-.25-.43-.43-.61-.04-.19-.15-.37-.14-.56-.13-.09-.27-.17-.32-.33.39.26.78.51,1.17.78.04-.27.05-.59-.15-.82-.03.04-.1.12-.13.16-.09-.08-.27-.1-.27-.24.13,0,.25,0,.38,0,.03-.11.02-.23.06-.34.04.05.11.14.15.18.06-.59-.02-1.17-.18-1.74,0,.12-.03.25-.05.37-.17-.18-.08-.45-.14-.66h.11c-.11-.1-.24-.17-.38-.22.08.08.15.15.24.23-.07.03-.14.06-.21.08-.05-.04-.11-.08-.16-.12,0-.07,0-.15,0-.22-.13-.09-.26-.18-.39-.26.08-.06.15-.12.23-.18.09,0,.17.01.26.02-.02.05-.05.1-.07.15.18.03.37.07.55.09.16-.21.13-.49.17-.73.05-.38.08-.76.11-1.13M.49,8.79c.22.12.46.21.72.21-.22-.11-.46-.24-.72-.21Z"/>
  <path class="cls-2" d="M8.15.66c.09-.02.12,0,.1.09-.09.02-.12,0-.1-.09Z"/>
  <path class="cls-2" d="M9.13.96c.03-.16.18-.31.35-.32.13.08.2.22.28.34.04-.08.08-.16.13-.24.09-.02.18-.04.27-.05.04.12.08.24.12.37.1-.11.15-.35.34-.27.15.09.15.27,0,.37-.19.03-.38-.02-.56-.05-.31-.04-.63-.03-.93-.14Z"/>
  <path class="cls-2" d="M11.11.8c.16-.1.37.05.33.23,0,.21-.33.35-.46.16-.1-.13,0-.31.13-.39Z"/>
  <path class="cls-2" d="M11.87.89c.06,0,.19.02.26.02-.02.06-.02.16-.11.16-.05-.06-.1-.12-.14-.18Z"/>
  <path class="cls-2" d="M12.71.93c.08.04.08.08,0,.13-.08-.04-.08-.08,0-.13Z"/>
  <path class="cls-2" d="M11.6,1.07c.16.02.32.09.38.25-.12.03-.25.02-.38.03,0-.09,0-.19,0-.28Z"/>
  <path class="cls-2" d="M12.21,1.33c.09-.08.18-.16.27-.23.04.11.12.28-.04.33-.08-.03-.16-.06-.23-.1Z"/>
  <path class="cls-2" d="M12.69,1.47c.08-.08.17-.15.26-.23.04.1.07.2.1.3-.12-.02-.24-.04-.36-.07Z"/>
  <path class="cls-2" d="M13.48,1.36c.07,0,.29-.09.24.05,0,.2-.31.13-.24-.05Z"/>
  <path class="cls-1" d="M4.68,2.1c.3-.19.66-.27,1.01-.27-.24.29-.67.23-1.01.27Z"/>
  <path class="cls-1" d="M5.76,1.84c.69.19,1.41.19,2.1.36.03-.03.1-.08.13-.11.38.03.75.13,1.13.19,0-.03-.02-.09-.02-.12.64.06,1.27.22,1.92.25.28.05.57.06.82.18.05.99.06,1.98.1,2.97-.04.42.07.83.06,1.25,0,.56.05,1.11.05,1.67,0,.28.02.56.09.84.06.29-.02.58.01.87-.02.08-.05.16-.07.24-.56.08-1.14.06-1.71.11-.53.07-1.07.04-1.6.11-.83,0-1.65.15-2.47.15-.03-.02-.08-.06-.1-.09-.17,0-.34.02-.51.03,0-.04,0-.13,0-.17.25.02.5,0,.76,0-.04-.38-.07-.77-.1-1.15.04-.44-.13-.87-.04-1.31,0-.67-.15-1.32-.19-1.99-.05-.9-.21-1.78-.24-2.68-.06-.54-.1-1.07-.1-1.61M5.9,2.09c.04.42.1.83.23,1.23.03-.32,0-.65.08-.96.1-.01.21-.02.31-.03-.19-.11-.4-.2-.62-.24M9.25,2.27c-.02.09.14.11.18.04.01-.09-.14-.1-.18-.04M9.89,2.82c.38.09.76.2,1.14.28.36.51.27,1.16.34,1.75.06-.41.02-.83.07-1.25-.04-.19-.04-.39-.05-.59-.08,0-.15-.02-.23-.02-.04-.03-.08-.05-.12-.08-.39.06-.77-.08-1.16-.08M7.39,3.59c.06.69.16,1.38.15,2.08.07.04.15.08.22.12.03.19.02.38.03.57.08-.17.16-.33.26-.49.03.04.09.11.12.15.03-.07.06-.14.09-.21.63.03,1.28.02,1.9.15.04.08.07.16.11.23.01-.06.03-.18.05-.24.1-.01.2-.02.31-.03-.16-.04-.34-.06-.48-.17.14,0,.29,0,.43,0,.04-.58-.03-1.16-.06-1.74-.33-.11-.68-.19-1.03-.22-.7-.06-1.39-.17-2.1-.22M11.57,6.16c.02-.19.02-.37,0-.56-.04.18-.04.37,0,.56M11.44,6.51c-.03.19-.02.37-.04.56-.09.14-.3.2-.35.37-.04.12-.09.24-.19.34-.22.22-.38.48-.6.69-.13-.13-.26-.26-.39-.38-.11.13-.23.26-.33.41.13.12.27.23.4.35-.1.06-.19.12-.29.19-.25.3-.52.58-.8.86-.28.13-.59.22-.91.21,1.04.08,2.07-.06,3.11-.1.09-.15.23-.26.38-.35.03.01.1.05.13.06.13-.52-.02-1.05,0-1.57,0-.54,0-1.08-.1-1.61M11.43,9.87s.03.04,0,0Z"/>
  <path class="cls-2" d="M13.27,1.95c.05-.16.2-.09.31-.06-.09.08-.21.21-.31.06Z"/>
  <path class="cls-2" d="M13.93,1.87c.06-.08.21,0,.14.09-.06.08-.22,0-.14-.09Z"/>
  <path class="cls-2" d="M13.31,2.59c-.13-.08-.07-.23-.06-.35.08.06.16.11.25.17-.06.06-.12.12-.19.17Z"/>
  <path class="cls-1" d="M2.73,3.05c.17-.34.52-.54.83-.73.01.09.03.18.04.27.11-.26.45-.29.7-.22.19.04.37.19.58.12.06.11.13.22.1.34.01.25-.34.4-.53.24-.11-.03,0-.15,0-.21-.37-.17-.89-.1-1.14.24-.08.14-.12.38.05.48.03.02.09.07.12.09.02-.14-.02-.3.08-.42.17.08.07.34.12.49-.15.07-.3.16-.4.29-.23-.12-.49-.23-.64-.45,0-.18-.01-.38.09-.54Z"/>
  <path class="cls-2" d="M13.14,2.6c.08-.05.19.08.12.14-.08.05-.19-.08-.12-.14Z"/>
  <path class="cls-2" d="M13.62,2.82c.03-.09.07-.17.11-.25.03.07.09.13.08.21-.06.02-.12.03-.19.04Z"/>
  <path class="cls-2" d="M14.32,2.65c.08.04.08.08,0,.13-.08-.04-.08-.08,0-.13Z"/>
  <path class="cls-2" d="M14.08,3.14c.09-.03.12,0,.09.09-.09.03-.12,0-.09-.09Z"/>
  <path class="cls-2" d="M13.94,3.53c.06-.09.2.03.13.1-.06.09-.2-.03-.13-.1Z"/>
  <path class="cls-2" d="M14.46,3.53c.1-.03.14,0,.1.1-.11.03-.14,0-.1-.1Z"/>
  <path class="cls-1" d="M3.21,4.22c.31-.22.68-.34,1.06-.41.21,0,.41.06.62.03.09.08.21.17.23.3.06.21-.1.45-.33.46-.1-.03-.19-.08-.29-.12.03-.04.09-.12.11-.16-.42-.14-.98-.01-1.17.4-.1.16-.04.34.09.46,0-.19.02-.4.23-.48.04.26.05.52.07.79.38-.11.8-.26,1.16-.03.05,0,.15-.01.2-.02.08.15.11.32.08.49-.06-.04-.13-.07-.19-.11-.02.02-.06.06-.08.08.07.04.15.07.22.12-.11.06-.21.12-.32.18-.09-.05-.19-.11-.28-.17.04-.04.11-.13.14-.18-.29-.09-.59.01-.88.06-.1.08-.23.15-.3.27-.07.19-.09.4.05.56.02-.12.04-.24.05-.36.09-.05.17-.09.26-.14.02.19.03.38.04.58-.17.08-.33.17-.46.3-.07-.07-.16-.09-.25-.1-.06-.08-.12-.17-.17-.25-.08,0-.16.02-.23.03.06-.06.13-.11.2-.16-.09-.4.21-.74.49-1-.03-.07-.06-.13-.09-.2-.05.05-.1.09-.16.14-.18-.12-.34-.27-.43-.47-.03.03-.08.09-.11.12-.03-.02-.1-.07-.13-.09.09-.03.17-.06.26-.08.03-.16.05-.32.02-.48.13-.08.22-.2.28-.34M4.86,4.31c-.04.1,0,.13.11.1.04-.1,0-.13-.11-.1Z"/>
  <path class="cls-1" d="M9.97,4.08c.11.02.26-.02.34.07.1.09.03.24.05.35-.05-.09-.1-.19-.14-.29-.08-.04-.17-.09-.25-.14Z"/>
  <path class="cls-1" d="M2.61,4.23c.09-.07.2.08.11.15-.09.07-.2-.09-.11-.15Z"/>
  <path class="cls-2" d="M14.05,4.34c.1-.03.14,0,.11.1-.1.03-.14,0-.11-.1Z"/>
  <path class="cls-2" d="M13.69,4.55c.07.08.18.15.17.26-.05.14-.17.23-.29.31,0-.2.03-.39.11-.57Z"/>
  <path class="cls-2" d="M14.44,4.61c.1-.07.19.09.1.15-.1.07-.2-.09-.1-.15Z"/>
  <path class="cls-2" d="M14.04,5.03c.1-.03.14,0,.11.1-.1.03-.14,0-.11-.1Z"/>
  <path class="cls-2" d="M13.55,5.41c.09.09.18.17.25.27-.06.16-.22.22-.38.24.03-.17.07-.34.13-.51Z"/>
  <path class="cls-2" d="M14.51,5.64c.1-.03.14,0,.1.1-.1.03-.14,0-.1-.1Z"/>
  <path class="cls-1" d="M2.55,5.79c.13-.07.2.19.06.2-.09-.01-.13-.15-.06-.2Z"/>
  <path class="cls-2" d="M14.07,6.04c.15-.04.1.17-.01.2-.09-.05-.14-.21.01-.2Z"/>
  <path class="cls-2" d="M13.39,6.17c.16.05.3.13.41.26-.09.1-.17.25-.34.2-.24-.03-.1-.31-.08-.46Z"/>
  <path class="cls-2" d="M14.51,6.45c.09,0,.09.15,0,.15-.09,0-.09-.15,0-.15Z"/>
  <path class="cls-2" d="M13.91,6.8c.08-.03.17-.06.26-.06.01.08.01.16,0,.25-.05,0-.14,0-.19,0-.03-.06-.06-.13-.08-.19Z"/>
  <path class="cls-2" d="M13.18,7.33c.03-.22.12-.41.22-.6.1.1.29.2.24.37-.08.05-.18.06-.27.08-.06.05-.13.1-.19.15Z"/>
  <path class="cls-1" d="M3.69,7.24c.39-.23.88-.46,1.34-.3.07.02.15.02.23.03.1.13.12.29.13.44-.12-.05-.25-.07-.33.05.06.02.18.08.24.1-.09.05-.17.1-.26.15-.12-.06-.23-.15-.19-.3-.37-.08-.79.03-1.06.3-.15.14-.13.38.04.5.06-.16.16-.3.31-.38l-.04.11c.08,0,.16,0,.23,0l-.07-.08c.11-.04.22-.02.32,0-.09.04-.17.09-.26.13-.04,0-.13-.01-.17-.01,0,.14,0,.27,0,.41-.18.08-.36.18-.51.31-.2-.12-.4-.27-.45-.52.03-.36.16-.75.5-.94Z"/>
  <path class="cls-2" d="M13.7,7.32s.07-.06.1-.08c.06.07.11.13.17.2-.09-.04-.19-.08-.28-.12Z"/>
  <path class="cls-1" d="M1,7.39c.11-.07.23-.01.31.08-.09.06-.18.11-.27.15-.02-.08-.04-.15-.04-.23Z"/>
  <path class="cls-1" d="M11.07,7.71c.06-.13.11-.29.26-.34-.06.13-.14.25-.26.34Z"/>
  <path class="cls-2" d="M13.14,7.74c-.06-.19.15-.27.26-.38.08.04.17.08.24.14.01.13.06.3-.08.38-.15.11-.33-.04-.42-.15Z"/>
  <path class="cls-2" d="M13.95,7.83c.08-.12.21,0,.3.04-.07.07-.12.24-.25.18-.04-.06-.12-.15-.05-.22Z"/>
  <path class="cls-2" d="M13.22,7.97c.16.1.34.21.32.42-.04.01-.12.04-.16.06-.03.04-.09.11-.13.14-.16-.17-.04-.42-.04-.62Z"/>
  <path class="cls-1" d="M10.37,8.59c.13-.12.27-.24.4-.36.06.13.12.26.18.38-.1.1-.2.21-.29.32-.1-.11-.2-.22-.29-.34Z"/>
  <path class="cls-2" d="M13.82,8.34c.11,0,.26-.09.34.03.17.13-.12.43-.26.25-.05-.09-.06-.19-.09-.28Z"/>
  <path class="cls-2" d="M14.57,8.52c.05-.05.11-.11.17-.16.05.06.09.12.14.18-.1.09-.21.07-.31-.01Z"/>
  <path class="cls-1" d="M3.75,8.86c.34-.23.73-.45,1.16-.37.22.04.53.02.61.28.12.33-.37.61-.61.35.04-.07.08-.13.11-.2-.4-.03-.82.06-1.12.33-.15.15-.17.39-.01.55.01-.08.02-.15.03-.23.11-.04.22-.08.33-.13,0,.21,0,.42-.01.63-.15.01-.3.07-.45.06-.23-.08-.46-.28-.43-.53-.03-.3.17-.56.39-.75Z"/>
  <path class="cls-2" d="M13.28,8.61c.14-.01.38.07.3.24-.03.22-.32.15-.41,0,0-.1.05-.18.12-.25Z"/>
  <path class="cls-2" d="M13.72,8.79c.23-.09.2.28,0,.27-.04-.09-.03-.18,0-.27Z"/>
  <path class="cls-1" d="M9.79,9.3c.07-.12.13-.24.19-.37.12.11.25.21.38.32-.08.06-.15.14-.25.18-.12,0-.22-.08-.32-.13Z"/>
  <path class="cls-1" d="M2.98,9.04c.1-.03.14,0,.11.1-.1.03-.14,0-.11-.1Z"/>
  <path class="cls-2" d="M13.99,9.13c.1-.04.14,0,.11.1-.11.03-.14,0-.11-.1Z"/>
  <path class="cls-2" d="M13.23,9.38c.06-.05.13-.1.2-.15.08.07.16.15.24.22-.03.1-.01.22-.09.3-.08.02-.17.04-.25.05-.07-.13-.16-.28-.1-.43Z"/>
  <path class="cls-1" d="M9.32,9.8c.11-.16.23-.33.37-.47-.03.16-.1.31-.17.46-.05,0-.15,0-.2,0Z"/>
  <path class="cls-2" d="M13.94,9.6c.06-.04.12-.07.18-.1.1.06.1.18,0,.25-.06-.05-.12-.1-.18-.15Z"/>
  <path class="cls-1" d="M.99,9.74c.09-.03.12,0,.09.08-.09.03-.12,0-.09-.08Z"/>
  <path class="cls-1" d="M1.58,9.75c.09-.02.19-.02.29-.03,0,.05.02.16.02.21-.11-.02-.38-.02-.31-.18Z"/>
  <path class="cls-2" d="M13.63,9.84c.11,0,.32-.04.28.14.03.1-.11.11-.17.13-.07-.07-.08-.17-.11-.26Z"/>
  <path class="cls-2" d="M12.99,9.97c.09-.03.12,0,.09.09-.09.03-.12,0-.09-.09Z"/>
  <path class="cls-2" d="M13.25,10.31c.08-.06.15-.11.23-.16.06.09.19.18.16.3-.08.1-.19.16-.3.23-.04-.12-.07-.25-.09-.37Z"/>
  <path class="cls-2" d="M13.89,10.44c.04-.06.09-.13.14-.19.08.11.11.25.02.37-.05-.06-.11-.12-.16-.18Z"/>
  <path class="cls-1" d="M1.78,10.63c.12-.12.14.05.16.14-.04,0-.13,0-.18.01,0-.04.01-.11.01-.15Z"/>
  <path class="cls-1" d="M1.14,10.67c.1-.03.14,0,.11.1-.1.03-.14,0-.11-.1Z"/>
  <path class="cls-1" d="M3.11,10.89c.13-.07.21.19.06.2-.1,0-.13-.14-.06-.2Z"/>
  <path class="cls-2" d="M9.43,11.01c.56-.07,1.13-.1,1.7-.12-.07.1-.15.19-.23.29.07.12.13.25.2.38-1.22.07-2.44.07-3.66,0,.25-.05.49-.08.74-.09.39-.01.77-.12,1.16-.16.23-.04.48,0,.69-.12-.74-.06-1.48.05-2.22,0,.53-.1,1.07-.11,1.61-.19Z"/>
  <path class="cls-2" d="M13.36,10.96c.08.07.26.14.17.27-.05,0-.14-.01-.18-.02-.07-.08,0-.17,0-.26Z"/>
  <path class="cls-1" d="M1.79,11.36c.06-.08.19.03.13.11-.07.08-.2-.03-.13-.11Z"/>
</svg>