<?xml version="1.0" encoding="UTF-8"?>
<svg id="Layer_1" data-name="Layer 1" xmlns="http://www.w3.org/2000/svg" viewBox="0 0 14.95 13.5">
  <defs>
    <style>
      .cls-1 {
        fill: none;
      }

      .cls-2 {
        fill: #ca7d3f;
      }

      .cls-3 {
        fill: #3cbb9b;
      }
    </style>
  </defs>
  <g>
    <path class="cls-2" d="M4.28,3.9c.23-.09.46-.16.69-.21-.06.06-.13.12-.22.14-.14.14-.27.3-.46.39,0,.06.02.12.03.18-.05.24-.07.48-.1.72-.04-.15-.09-.3-.11-.45-.02-.08-.04-.16-.06-.25-.01-.05-.03-.09-.04-.14-.03-.1-.04-.19-.03-.29.1-.03.21-.06.31-.08Z"/>
    <path class="cls-3" d="M11.85,4.31c.04-.15.05-.34.2-.43.08,0,.15.03.22.05.15.03.3.07.45.11.14.02.28.06.42.1.05.01.09.02.14.04.17.05.34.08.51.11.1,0,.13.13.14.21-.04.15-.09.3-.16.44-.09.28-.21.56-.31.84-.03.09-.06.19-.1.28-.06.16-.11.33-.18.49-.03.1-.07.19-.11.28-.04.13-.08.26-.14.38-.13.32-.21.66-.35.98-.02.06-.05.12-.07.17-.09.31-.21.6-.31.91-.06.24-.16.47-.24.7-.03.09-.07.19-.11.28-.08.23-.14.47-.24.7-.09.29-.2.58-.29.87-.06.01-.11.02-.17.03,0,.02,0,.07,0,.09-.03-.03-.05-.06-.08-.1-.09-.03-.17-.06-.26-.1-.09-.03-.18-.05-.27-.07.02-.08.03-.16.05-.24.04-.03.08-.06.12-.09.03.04.06.08.08.12.05-.11.09-.22.15-.32.01.03.04.08.05.1,0-.02.03-.07.04-.09.02-.05.04-.1.05-.16-.02,0-.06.03-.07.04.23-.22.23-.56.37-.83.07-.2.12-.4.21-.6.05-.14.13-.27.17-.41.02-.08.04-.17.07-.25.03-.09.07-.19.11-.28.03-.1.06-.19.1-.28.09-.19.12-.4.21-.59.1-.3.2-.61.31-.91.08-.2.21-.38.21-.59.03-.09.07-.19.11-.28.03-.11.07-.21.1-.31.03-.11.07-.21.11-.32.05-.17.12-.33.17-.49.01-.06.03-.12,0-.17-.12-.06-.25-.1-.38-.15-.05,0-.1-.02-.14-.03-.09-.02-.19-.04-.28-.07-.08-.02-.16-.05-.24-.07-.12-.04-.23-.07-.35-.1M12.2,8.87s.08-.05.05-.08c-.04-.02-.08.05-.05.08Z"/>
    <path class="cls-2" d="M4.37,4.66c.02.08.04.16.06.24.01.05.02.09.04.14.04.14.07.28.1.42.03.11.05.23.07.34.06.23.1.46.14.69.01.05.02.1.03.14.02.06.05.11.08.16.02-.15.04-.3.07-.45.03-.14.04-.29.07-.44.06.53-.04,1.06-.1,1.58-.02.12-.04.24-.06.37-.06-.2-.12-.4-.15-.61-.05-.19-.07-.38-.11-.58-.05-.24-.12-.47-.17-.7-.01-.05-.02-.09-.03-.14-.03-.1-.05-.21-.07-.31-.01-.05-.02-.09-.03-.14-.02-.07-.03-.14-.05-.2.03-.09.06-.18.09-.27,0-.08.02-.17.04-.25Z"/>
    <path class="cls-2" d="M11.92,4.81s.1.05.15.07c.21.02.42.09.63.14.05.06.01.14,0,.21-.15.37-.25.75-.42,1.11-.08.22-.16.45-.25.67-.07.21-.16.41-.24.61.06-.19.11-.39.18-.58.03-.11.07-.21.11-.31.02-.08.04-.16.07-.24.09-.31.12-.64.25-.94,0-.12.1-.27-.02-.36-.08,0-.16-.03-.19-.1-.09-.09-.18-.17-.25-.27Z"/>
    <path class="cls-3" d="M7.96,5.53c.03.07.09.14.13.21.01.06.02.12.03.18.01.05.03.09.04.14.01.05.02.09.04.14.03.09.05.19.07.28.07.19.11.4.17.59.05.15.08.3.15.44.06-.06.11-.13.17-.19.08-.12.17-.25.28-.35.02-.04.04-.07.07-.11.07-.11.18-.2.25-.31.05-.08.11-.16.17-.23,0,.04.01.11.01.15.11-.07.16-.2.27-.27.05.05.09.11.14.17,0,.02.03.05.03.07,0-.02,0-.06,0-.09.02,0,.06,0,.08,0-.04.06-.08.12-.11.18,0,.01.03.04.04.06-.03.09-.05.18-.08.28-.02-.02-.05-.06-.06-.08v.07s-.03.09-.06.14c-.03.13-.06.26-.1.39-.01.06-.02.12-.03.17-.02.13-.04.26-.07.38-.04.21-.08.42-.1.63,0,.06-.01.12-.02.19.03.02.06.03.1.05.04.09.06.21.18.23-.04.01-.08.02-.11.03-.02.05-.04.1-.06.15-.06,0-.11,0-.16.01-.04.11-.07.23-.17.3,0-.03-.02-.09-.02-.12-.04-.04-.08-.08-.12-.12-.02.05-.05.1-.08.15,0,.23-.03.47,0,.7.02.08.02.17.02.26-.04.03-.07.07-.11.1-.04-.03-.07-.06-.11-.09-.02-.23.06-.45.03-.68-.02-.13-.04-.25-.07-.38-.03-.02-.05-.03-.08-.05-.02.1-.05.2-.12.27-.02-.09-.04-.17-.06-.25-.02-.08-.02-.15-.05-.23-.04-.02-.08-.04-.12-.05-.28-.03-.55-.07-.83-.11-.16,0-.32-.03-.47-.05,0,.02-.03.06-.04.09,0,.08-.01.15-.02.23-.02-.05-.03-.11-.04-.16-.04-.04-.07-.09-.11-.14-.06-.03-.12-.07-.18-.11.03-.12-.11-.11-.19-.14.12-.04.25-.06.31-.19-.06-.19-.07-.38-.12-.58-.03-.1-.05-.21-.07-.32-.03-.1-.05-.21-.07-.31-.04-.14-.07-.28-.1-.42-.05-.15-.12-.29-.13-.45.04,0,.09.02.13.03.05,0,.1.01.15.02,0-.03.01-.09.02-.12.21.23.33.53.58.72.08.06.13.15.16.24,0,0,.03-.03.04-.04.02-.14.05-.27.1-.39.03-.14.07-.28.11-.42.07-.23.09-.46.08-.7.01-.02.03-.04.05-.06.06.08.16.07.22,0,0-.05.01-.1.02-.15M7.91,6.88c-.09.25-.14.51-.25.75,0,.05-.01.11-.01.16-.01-.08-.04-.16-.08-.23-.11.06-.2.14-.27.24-.11-.09-.21-.21-.32-.31.04.36.13.71.15,1.06.16,0,.32,0,.47.02.19.02.39,0,.59.04.2.02.4.03.59.07.09,0,.19.02.28.02-.01-.05-.02-.1-.03-.15-.02.01-.05.03-.06.04.02-.03.07-.08.09-.11l-.09.04c.05-.18.02-.37.04-.56.03.07.05.14.07.22.03-.11.06-.23.1-.34,0-.06.02-.12.03-.18.01-.08.03-.16.05-.24-.03.02-.06.04-.08.05-.04.07-.09.13-.14.19-.05.07-.11.14-.17.21-.05.07-.09.13-.14.2-.03.12-.13.19-.21.28-.02-.12-.14-.24-.27-.2-.01-.03-.02-.06-.03-.08.05-.14-.03-.28-.05-.41-.05-.17-.1-.35-.14-.52-.03-.09-.06-.17-.07-.26,0,0-.03,0-.04,0Z"/>
    <path class="cls-3" d="M13.74,6.5c.02-.06.06-.11.1-.16-.02.06-.04.12-.06.17-.07.18-.14.35-.2.53.04.08.08.16.13.24-.04.08-.08.16-.15.22-.03.11-.03.23-.06.34-.15.1-.31.17-.45.28.05-.16.1-.33.17-.49.07-.2.2-.37.29-.56.07-.2.16-.38.24-.57Z"/>
    <path class="cls-3" d="M13.94,8.01c.21-.13.41-.28.64-.37.02.03.05.06.07.09,0,.04.01.07.02.11.09,0,.19.02.28.04-.02.03-.04.06-.06.1-.06.03-.13.05-.17.11-.52.59-1.05,1.17-1.51,1.82-.05.09-.12.18-.17.27.24-.07.47-.16.7-.23.09-.04.18-.08.28-.11.19-.09.4-.14.59-.21.06-.01.12-.02.18-.03.04.06.09.12.13.18-.09.11-.16.23-.25.34-.24.35-.47.71-.74,1.05-.06.09-.15.18-.15.3-.02.39,0,.78,0,1.17-.03.06-.06.11-.09.17-.11-.15-.1-.33-.09-.5.02-.26,0-.53,0-.79-.01-.1-.12-.13-.2-.19.07-.11.13-.23.18-.34.07-.15.17-.29.25-.44-.2.05-.39.12-.57.23,0,.17-.05.35-.03.52.02.09-.06.14-.11.2-.04-.05-.1-.1-.07-.17.04-.15.04-.31-.02-.46-.07.03-.15.05-.2.11-.06.12-.06.27-.09.4.07.1.15.23.12.36-.03.11-.04.25-.15.31-.12-.04-.13-.18-.14-.29-.01-.13.04-.26.06-.39-.02-.05-.03-.1-.04-.16-.02-.04-.04-.08-.06-.12-.02,0-.06,0-.08.01-.08.03-.15.05-.23.07-.05-.04-.09-.07-.14-.11.04-.15.09-.31.16-.45.05-.15.09-.3.15-.44.08-.12.18-.22.25-.35.11-.2.26-.37.38-.56.11-.19.3-.33.4-.53-.03.01-.1.03-.14.04.19-.27.36-.59.66-.76Z"/>
    <path class="cls-2" d="M1.27,7.92c.07.2.24.35.26.57,0,.06.01.13.02.19.01.05.03.09.04.14.09.25.2.49.28.74.04.07.09.14.14.2.08.02.15.05.22.08.21,0,.42,0,.63.01.06.08.12.16.18.24-.18.12-.4.18-.54.36.08.07.19.1.29.15.28.14.49.38.72.58-.13-.05-.25-.11-.38-.17-.13,0-.26-.02-.39-.04-.07.18-.04.36.01.54-.01.08-.02.18-.12.19-.09-.04-.13-.16-.1-.25.04-.14.02-.28-.01-.41-.04-.09-.11-.15-.18-.2-.08-.02-.16-.06-.24-.1-.03.09-.06.19-.09.28-.03.22-.05.43-.05.65-.04.22-.02.44,0,.66.02.06-.04.1-.07.14-.02-.02-.05-.05-.06-.07-.02.01-.05.04-.07.05-.02-.09-.04-.18-.05-.28-.01-.05-.03-.09-.04-.14-.06-.21-.12-.42-.17-.63-.1-.23-.1-.5-.26-.69-.21-.06-.4-.15-.61-.18-.12-.01-.23-.05-.34-.09-.02.01-.05.04-.07.05-.06-.02-.16-.03-.14-.12.36-.16.75-.25,1.07-.47.03-.07.05-.14.07-.21.07-.33.05-.67.05-1,0-.1-.05-.2-.1-.28,0-.06,0-.11,0-.17.03-.03.07-.06.11-.09,0-.08,0-.16.01-.24M1.55,9.66c0,.07-.02.13-.03.2,0,.11-.04.22-.12.31-.07.06-.15.08-.23.11.11.04.21.09.32.13.06.15.12.31.17.47.02-.1.05-.21.07-.31,0-.06.02-.12.03-.18.04-.02.07-.04.11-.06.05-.04.11-.09.16-.13-.1-.02-.2-.04-.28-.1-.07-.05-.09-.14-.12-.22-.03-.07-.05-.13-.08-.2Z"/>
    <path class="cls-3" d="M12.96,8.56c.09-.05.17-.1.26-.14-.11.25-.28.46-.49.63.04-.17.04-.41.23-.49Z"/>
    <path class="cls-3" d="M4.25,11.65c.5.07,1.01.13,1.51.19.1.01.18.07.26.12-.03.03-.07.05-.1.08-.09.05-.18.1-.25.16,0,.15.09.28.08.43-.06-.02-.12-.03-.17-.06-.01-.09,0-.19.01-.28.03-.15-.14-.21-.16-.35-.05-.02-.09-.04-.14-.06-.35-.03-.69-.06-1.04-.1,0-.03,0-.09,0-.12Z"/>
    <path class="cls-3" d="M6.52,11.96c.2.02.39.04.59.07.19.03.37.05.56.07.22.03.44.06.66.11.32.05.63.13.94.17.06.01.11.02.17.04-.09,0-.18.01-.27,0-.09-.01-.19-.02-.28-.04-.22,0-.43-.05-.65-.04-.26-.05-.53-.06-.79-.13-.17-.02-.33-.05-.49-.09-.15-.04-.31-.07-.45-.14Z"/>
  </g>
  <g>
    <path class="cls-1" d="M10.36,4.41c-.1,0-.2-.01-.29-.04-1.23-.09-2.44-.25-3.67-.39-.02.01-.06.03-.07.04-.03.1-.05.21-.07.31,0,.16-.03.32-.05.47-.07.45-.11.9-.19,1.35-.03.23-.06.47-.11.7-.02.34-.1.67-.13,1.01-.04.26-.06.53-.11.79,0,.17-.04.33-.07.5,0,.17-.03.33-.07.49-.03.27-.07.53-.11.8-.01.08-.02.17-.04.25.23.04.47.06.71.1.35.04.7.09,1.04.14.52.05,1.03.14,1.55.2.35.07.7.1,1.05.15.06,0,.13,0,.19,0,.02-.06.03-.12.05-.18,0-.07.02-.15.04-.22.05-.42.1-.85.16-1.27.06-.44.09-.89.16-1.32.06-.39.07-.79.13-1.18.01-.19.03-.38.07-.56.06-.65.17-1.29.24-1.93.01-.07,0-.14-.05-.2-.12,0-.24,0-.36-.03Z"/>
    <path class="cls-1" d="M5.45,2.49c-.02.06,0,.08.06.06.02-.06,0-.08-.06-.06Z"/>
    <path class="cls-3" d="M9.49,2.72c-.07-.37-.1-.75-.17-1.12-.05-.04-.1-.09-.14-.14-.04,0-.08.02-.12.03-.08.02-.16.05-.24.07-.04.01-.07.02-.1.03-.08.02-.17.04-.25.07-.27.07-.54.15-.8.24-.23.07-.46.14-.7.21-.14.05-.28.1-.42.14-.22.07-.45.12-.67.21-.02,0-.06,0-.08,0-.02-.04-.04-.08-.06-.12-.02-.07-.04-.14-.07-.21-.12-.37-.25-.74-.38-1.12-.2.03-.36.15-.54.23-.27.13-.53.26-.81.38-.19.08-.37.2-.57.28-.15.06-.3.14-.44.22-.13.06-.25.13-.38.18-.29.11-.55.28-.83.38-.16.09-.34.13-.47.26-.02.11-.06.22-.02.33.11.26.14.55.26.8-.2.15-.41.29-.61.43-.15.08-.29.17-.42.26-.14.07-.28.14-.41.22-.02.04-.04.08-.05.12.08.13.17.25.26.37.26.35.5.71.77,1.05.2.33.46.62.67.94.05.1.11.19.17.28.11.15.22.3.31.46.09.11.17.22.25.34.08.15.18.28.27.43.25.36.49.72.75,1.07.14.24.28.48.45.7.09.18.21.35.32.52.03.07.11.09.18.11.01-.16.01-.31.03-.47-.02-.11-.09-.21-.15-.3-.09-.18-.18-.36-.3-.53-.27-.37-.47-.79-.74-1.15-.09-.15-.18-.3-.29-.45-.11-.18-.23-.35-.35-.52-.34-.52-.7-1.04-1.07-1.54-.06-.12-.12-.25-.23-.34,0-.02,0-.04-.01-.05-.02.05-.03.11-.05.16-.03-.04-.06-.08-.08-.12-.02-.09.02-.2-.04-.28-.12-.17-.24-.34-.36-.51.12-.09.24-.19.37-.27.24-.15.46-.33.7-.48.16.37.32.73.49,1.1.03.08.06.17.11.25.12.27.22.55.36.82.05.11.08.22.13.33.09.24.24.45.32.7.07.19.17.37.24.56.02.06.04.12.07.18.15.34.26.7.42,1.05.06.21.17.39.24.6h.05c-.02-.08-.03-.15-.04-.21,0-.19-.04-.37-.06-.56-.02-.18-.08-.36-.03-.54.03-.08-.02-.15-.05-.22-.01-.05-.02-.09-.03-.14-.06-.19-.16-.36-.22-.54-.05-.11-.07-.24-.18-.32-.1-.07-.11-.2-.16-.29-.09-.22-.19-.44-.28-.66-.08-.24-.19-.46-.28-.7-.02-.06-.04-.12-.06-.18-.04-.09-.08-.18-.13-.27-.02.05-.04.09-.05.14-.01.01-.04.04-.05.05.06-.41-.12-.8-.33-1.14,0,.18,0,.36.06.53.07.26.23.5.24.78-.01.04-.03.08-.04.12-.02-.06-.03-.11-.04-.17-.07-.2-.16-.4-.25-.59-.01-.03-.02-.07-.03-.1-.02-.16-.05-.32-.08-.48-.02-.18.08-.37-.03-.54-.1-.23-.2-.46-.29-.69-.02-.08.05-.15.13-.17.22-.08.41-.2.62-.3.62-.26,1.2-.61,1.81-.87.2-.09.38-.21.59-.28.06.09.1.18.15.28.03.08.06.17.1.25.02.06.04.12.07.17.02.05.03.1.05.15-.09.03-.19.06-.2.17-.03.02-.06.03-.08.05,0-.03.02-.09.02-.12-.07.02-.14.04-.21.06-.19.05-.39.11-.57.19.04,0,.12,0,.16.01-.08.04-.16.06-.24.09.03-.03.08-.09.1-.13-.09.03-.17.05-.25.08-.16.04-.33.09-.49.14-.05.01-.09.02-.14.03-.05.01-.09.02-.14.04-.06.01-.11.03-.17.04-.15.03-.21.2-.23.33,0,.11.05.22.08.33.09.33.19.65.28.98.02.07.04.14.07.21.02.08.04.16.07.24.02.09.04.19.07.28.05.22.11.44.18.66.12.39.2.79.31,1.18,0,.05.02.1.03.14,0,.05.02.09.03.14.01.05.02.09.04.14.03.19.09.37.14.56.02.09.04.19.06.28.01.05.02.09.03.14.02.09.04.19.07.28.02.08.04.16.07.24.01.05.02.09.03.14.01.05.02.09.03.14.01.05.03.1.04.14,0,.03,0,.06.01.09.04-.16.09-.31.11-.47h.02c0,.17.07.33.11.49.02-.03.03-.07.05-.1,0-.15,0-.3,0-.45-.02-.16-.1-.31-.13-.47-.03-.13-.07-.26-.1-.38-.01-.06-.02-.12-.04-.17-.01-.05-.02-.09-.04-.14-.01-.05-.02-.09-.04-.14-.01-.05-.02-.09-.03-.14-.02-.09-.04-.19-.07-.28-.02-.11-.04-.21-.07-.31-.05-.24-.11-.47-.17-.7-.03-.13-.06-.26-.1-.38-.03-.12-.07-.23-.11-.35,0-.05-.02-.1-.03-.15-.04.11-.08.23-.07.35.01.15,0,.29-.05.43-.01-.11,0-.23,0-.34-.01-.02-.03-.06-.04-.08,0-.11.01-.23.04-.34.05-.02.1-.04.14-.06-.04,0-.08,0-.12,0v-.07s.05.01.06.02c-.01-.05-.03-.1-.04-.15-.02-.11-.04-.21-.07-.32-.01-.05-.02-.09-.03-.14-.01-.05-.02-.09-.04-.14-.02-.09-.04-.19-.07-.28-.02-.09-.04-.19-.07-.28-.02-.09-.05-.19-.07-.28-.03-.12-.05-.24-.05-.36.07-.06.14-.1.22-.13.22-.07.44-.15.67-.21.31-.08.6-.19.91-.28.07-.02.13-.04.2-.06.06-.09.16-.12.25-.16.09,0,.19-.01.28-.03.08-.03.16-.05.24-.07.12-.03.24-.06.35-.1.42-.13.84-.26,1.26-.38.08-.02.16-.04.24-.07.13-.03.26-.07.39-.11.08-.02.16-.04.24-.07.02,0,.06,0,.08-.01.06.04.12.09.18.14.03.22.08.43.13.64.02.1.03.21.08.3.05.02.11.04.16.05.08.03.17.06.26.1-.02-.08-.03-.16-.05-.24-.01-.09-.03-.17-.04-.26M5.51,2.55c-.06.02-.08,0-.06-.06.06-.02.08,0,.06.06Z"/>
    <path class="cls-2" d="M12.93,3.44s-.06-.06-.09-.09c-.02,0-.06,0-.08,0-.25-.16-.54-.23-.79-.38-.05-.02-.05-.08-.07-.12-.03-.03-.06-.06-.1-.09.04-.29.03-.59.03-.89-.13-.03-.14.11-.2.19,0-.08,0-.16,0-.23-.02,0-.06,0-.08,0-.03.17-.06.34-.11.51-.01.05-.02.09-.03.14-.04.08-.08.17-.12.25-.3.09-.61.08-.92.04-.1.01-.2.04-.31.04-.18-.05-.37-.04-.56-.07,0,.02.01.05.02.07.13,0,.27.03.39.08.16.05.32.09.47.14.24.12.51.16.75.27.06.02.07.09.1.14,0,.05.02.1.03.15.01.1.03.2.06.3-.02,0-.07-.01-.09-.02-.23-.04-.46-.05-.69-.07-.32-.05-.64-.07-.96-.1-.27-.04-.54-.06-.82-.1,0-.02.02-.07.02-.1-.07-.23-.09-.47-.15-.7-.02-.07-.02-.16-.09-.2-.04-.03-.1,0-.14,0-.11.03-.21.06-.32.11-.1.03-.21.07-.31.11-.19.07-.38.12-.57.18.28,0,.57.05.85-.01.09,0,.18-.02.26-.02.07.19.11.39.14.58-.02,0-.06,0-.08,0-.12-.03-.24-.03-.36-.04-.11-.02-.22-.03-.33-.03-.12-.02-.24-.03-.37-.04-.11-.02-.23-.04-.35-.04-.27-.03-.55-.06-.82-.1-.18-.05-.39.11-.39.3-.03.23-.05.45-.08.68-.02.1-.03.21-.04.31-.02.18-.06.35-.07.53-.01.09-.02.18-.03.28-.02.08-.03.16-.04.25-.07.56-.13,1.12-.21,1.67-.04.27-.07.53-.11.8-.05.24-.04.48-.09.72-.03.21-.07.43-.08.64-.06.33-.11.67-.14,1.01-.03.15-.02.3-.06.45-.03.11.05.22.1.31.09.02.18.03.27.05.09.02.19.03.28.03.42.06.83.12,1.25.18.25.04.5.08.75.1.32.07.64.12.96.18.06.01.12.03.18.04.21.05.42.07.62.1.11.03.21.05.32.07.22.05.44.12.67.09.03-.02.06-.04.1-.06.02,0,.05-.02.07-.02.06-.09.1-.19.1-.3.05-.44.14-.87.17-1.31.04-.2.06-.4.07-.59.06-.38.1-.76.14-1.15.07-.67.17-1.33.24-1.99.04-.35.1-.71.14-1.06.03-.18.05-.36.08-.55.02-.09.03-.19.03-.28.02-.23.08-.45.07-.68.02-.08.04-.16.06-.23.08-.15.15-.3.25-.44.19,0,.37.04.56.05.13.03.27.04.4.04.19.01.37.04.56.06-.1-.06-.22-.1-.34-.12ZM10.77,4.65c-.07.64-.19,1.29-.24,1.93-.04.18-.06.37-.07.56-.06.39-.07.79-.13,1.18-.07.44-.1.88-.16,1.32-.06.42-.11.84-.16,1.27-.02.07-.03.14-.04.22-.02.06-.03.12-.05.18-.06,0-.13,0-.19,0-.35-.05-.7-.09-1.05-.15-.52-.06-1.03-.15-1.55-.2-.35-.05-.69-.1-1.04-.14-.24-.03-.47-.05-.71-.1.02-.08.03-.17.04-.25.03-.27.07-.53.11-.8.04-.16.06-.33.07-.49.03-.16.06-.33.07-.5.05-.26.06-.53.11-.79.04-.34.11-.67.13-1.01.05-.23.08-.47.11-.7.08-.45.12-.9.19-1.35.02-.16.05-.31.05-.47.02-.1.04-.21.07-.31.02-.01.06-.03.07-.04,1.22.13,2.44.3,3.67.39.1.02.19.03.29.04.12.02.24.03.36.03.04.06.06.13.05.2Z"/>
  </g>
</svg>