<?xml version="1.0" encoding="UTF-8"?>
<svg id="Layer_1" data-name="Layer 1" xmlns="http://www.w3.org/2000/svg" viewBox="0 0 14.99 13.5">
  <defs>
    <style>
      .cls-1 {
        fill: none;
      }

      .cls-2 {
        fill: #ca7d3f;
      }

      .cls-3 {
        fill: #3cbb9b;
      }
    </style>
  </defs>
  <path class="cls-2" d="M6.55,1.55c.1-.05.19-.12.29-.16.13.06.23.15.36.2.09.04.17.09.25.15.12.06.24.12.36.2.12.05.23.11.33.2.25.22.5.44.75.66.16.14.33.28.47.44-.09-.06-.17-.13-.25-.21-.12-.12-.28-.2-.42-.31-.21-.11-.4-.26-.63-.33-.05,0-.1-.01-.14-.02.06.09.12.18.18.27-.14-.02-.28-.04-.4-.11-.19-.13-.36-.28-.56-.4-.06-.02-.11-.04-.17-.06-.14-.05-.29-.05-.43,0-.25.1-.47.27-.74.35.1-.06.2-.13.21-.26-.33.04-.66.14-.96.27.1-.07.2-.13.31-.19.2-.13.42-.24.62-.36.18-.11.36-.21.54-.32Z"/>
  <path class="cls-3" d="M2.84,2.56c.12-.02.23,0,.34.03.18,0,.35.02.53.04.21,0,.42.03.63.04.07,0,.14.01.2.02-.03.03-.06.05-.1.06.11.05.22.07.34.05,0,.01.02.04.03.05-.09.08-.18.16-.26.25-.13,0-.27.03-.4-.02-.05.06-.09.12-.14.18-.04,0-.09,0-.13,0-.07,0-.14,0-.21,0-.05,0-.09,0-.14,0-.02.12,0,.23,0,.35,0,.04,0,.09,0,.14,0,.04,0,.09.01.13.03.24-.08.46-.15.68-.02-.07-.05-.14-.07-.21-.09.09-.12.2-.16.31-.01.16,0,.33-.01.49,0,.03,0,.08.01.1-.12.02-.24.02-.35,0-.09,0-.17,0-.26,0,.01.04.03.07.04.11.05.06.1.13.16.2-.18.08-.22.28-.17.46-.1-.08-.2-.16-.29-.25-.15-.12-.27-.28-.43-.4-.27-.27-.54-.55-.85-.78.14.03.24.14.35.22.11.07.18.18.28.26.07-.09-.03-.2-.05-.29-.03-.04-.05-.08-.08-.12.15-.02.3-.02.45,0,.39,0,.77.03,1.16.03-.07-.37-.11-.74-.16-1.11-.02-.12-.04-.24-.05-.37,0-.06-.01-.11-.02-.17-.01-.06-.02-.13-.03-.19-.02-.1-.04-.19-.05-.29Z"/>
  <g>
    <path class="cls-1" d="M11.15,5.07s-.09,0-.12,0c0,.03,0,.08.01.11.03-.04.07-.07.11-.1Z"/>
    <path class="cls-2" d="M10.59,7.07c-.07.02-.16.01-.22.05-.05.11-.06.23-.11.34.06,0,.12,0,.18,0-.01.06-.03.12-.04.19,0,.13-.13.2-.17.33-.02.06-.05.11-.07.17.05.03.1.06.15.09,0,.02.01.05.02.06.02,0,.07,0,.09,0,.07-.17.15-.36.07-.55.01-.05.03-.1.04-.14.03-.06.05-.12.08-.18.2.02.4,0,.6-.02.03-.02.06-.04.09-.05.02.07.04.15.06.22.06.3.14.59.23.89.02.06.04.11.07.17.01,0,.04-.03.05-.04.08.05.15-.01.21-.06,0-.06.02-.11.03-.17.05-.22.09-.44.13-.66.01-.05.02-.11.03-.16.02-.11.05-.22.07-.33.06-.2.08-.42.13-.62.01-.04.02-.09.04-.13,0-.04.01-.08.02-.11h.02c.04.27.07.54.12.81.06.47.11.94.2,1.41.01.12.14.18.23.24,0-.02-.01-.05-.02-.07.12-.03.12-.17.15-.27.02-.08.04-.15.06-.23.02-.08.04-.15.06-.23.05-.14.1-.28.13-.43.05-.16.08-.33.15-.49.05.08.1.15.15.23.12,0,.22-.06.33-.11.11-.02.22-.04.33-.06.05-.01.11-.02.17-.03.06,0,.11-.02.17-.03.07-.02.13-.05.17-.11.01,0,.04-.02.06-.03.04-.01.08-.03.12-.05-.06,0-.12,0-.19-.01-.01-.01-.04-.04-.06-.05-.18,0-.36-.01-.54.01-.14.02-.29,0-.43.01-.08-.15-.15-.3-.21-.45-.05,0-.1.03-.15.04-.03.02-.05.05-.07.07-.01.05-.03.09-.04.14-.11.33-.22.66-.33.99-.01-.08-.02-.16-.04-.24,0-.08-.02-.15-.03-.23,0-.08-.02-.15-.03-.23-.04-.22-.05-.44-.1-.66-.02-.15-.04-.31-.07-.46,0-.09-.02-.19-.04-.27.02-.14.04-.28.06-.41-.03,0-.08.01-.1.02,0-.16,0-.33,0-.49-.09.07-.12.18-.1.29-.04-.02-.08-.04-.11-.06-.05.04-.1.07-.15.11,0,.07,0,.14,0,.22-.02.07-.03.14-.04.2-.03.18-.06.35-.1.53-.02.12-.05.25-.06.37-.03.11-.05.23-.07.35-.05.21-.1.42-.13.63-.03.09-.05.19-.07.28,0,0-.02.03-.03.04-.07-.2-.1-.41-.18-.61-.04-.11-.06-.24-.14-.34-.08.03-.16.06-.22.12-.06.06-.08.15-.12.23-.13.03-.26.02-.39.03"/>
    <path class="cls-3" d="M10.72,6.92c.17-.34.34-.68.52-1.02.09-.18.22-.34.3-.53.11-.24.25-.45.36-.69.05-.07.09-.15.13-.23.1-.13.15-.29.24-.42.08-.12.13-.26.16-.4.05-.04.1-.08.14-.13,0-.02.03-.05.04-.07-.26.19-.51.39-.77.6-.23.2-.49.37-.72.56.02-.24.12-.46.16-.69.05-.15.08-.31.13-.46.05-.14.08-.29.13-.43.03-.09.08-.18.03-.27.02-.06.05-.12.07-.18-.13.09-.28.15-.42.22-.25.14-.52.25-.76.39-.16.1-.36.15-.49.3.12-.03.25-.07.38-.05.07-.05.13-.09.2-.14.01.05.02.1.03.15-.03.03-.06.06-.09.09,0,.04.02.08.03.12.16-.05.29-.16.45-.2-.03.14-.05.28-.08.42-.02.12-.03.23-.05.35.05,0,.1-.01.14-.03.03.2-.08.39.01.58-.01.05-.03.1-.04.15-.02.05-.03.11-.04.16-.02.25-.14.48-.19.72-.02.05-.03.11-.04.17-.01.04-.02.09-.03.13-.01.04-.02.09-.03.13-.01.06-.02.13-.03.2-.02.07-.03.13-.05.2.06-.02.11,0,.17.02-.04.14-.09.28-.12.43.03,0,.05,0,.08,0,.02-.05.03-.1.05-.14ZM11.15,5.07s-.07.07-.11.1c0-.03,0-.08-.01-.11.03,0,.09,0,.12,0Z"/>
  </g>
  <path class="cls-2" d="M6.18,2.81c.38-.08.77-.03,1.15.03.05.01.11.02.16.03.2.03.37.13.55.2.2.1.4.18.56.33.23.21.54.34.69.62.1.14.21.28.29.43.06.09.13.18.19.27.07.11.09.25.11.38.03.06.05.13.07.2,0,.05.02.11.02.16.01.06.03.11.04.17.08.38.04.77.02,1.16,0,.1-.03.19-.06.28-.02.08-.04.15-.07.23-.07.26-.2.49-.31.74-.16.28-.39.51-.6.75-.35.32-.76.58-1.2.75-.28.13-.6.15-.88.26,0,0-.02,0-.03,0-.13.1-.31.08-.46.11-.17.04-.34,0-.49-.09-.08.06-.16.15-.16.26,0,.2-.05.4-.03.6.03.05.05.11.07.17,0,.02.02.06.02.08.02,0,.07-.01.09-.02-.06.1-.12.19-.19.29-.03.18-.02.35,0,.53.03.21.06.44-.02.64-.03.02-.07.03-.1.05-.02-.06-.04-.11-.03-.17.01-.24-.02-.47.03-.71.01-.06-.01-.13-.03-.19-.03-.1-.03-.21-.1-.3-.1-.15-.19-.31-.27-.47-.17.28-.13.63-.11.94.05.11,0,.22-.07.3-.04-.03-.07-.06-.11-.1,0-.15,0-.3,0-.45,0-.16-.02-.32-.01-.47-.04-.1-.07-.19-.1-.29-.03.09-.05.19-.15.23-.02-.17-.03-.34.01-.5,0-.03,0-.06,0-.09-.03-.09-.04-.19-.08-.28-.07.07-.1.16-.18.22-.31.16-.61.33-.92.5,0-.08,0-.16,0-.24-.08.07-.16.15-.25.23.01.1-.02.19-.13.21.03-.04.06-.08.1-.12,0-.13.04-.25.08-.38.01-.04.02-.09.03-.13,0-.04.02-.09.03-.13.02-.08.04-.16.07-.23,0-.03.02-.07.03-.1.01-.04.02-.09.04-.13.03-.12.06-.24.1-.36.02-.08.04-.15.06-.23.02-.04.03-.09.05-.13.12.12.23.25.36.36-.02.09-.04.18-.06.26-.01.08-.06.17-.03.25.1-.04.19-.09.29-.12.05-.02.09-.05.14-.06.07.01.12.06.18.1.12.09.27.14.38.25.06.09.09.2.12.3.08.18.18.36.29.52.02.03.04.07.06.1.02.03.04.06.06.09.03-.09.05-.19.07-.28.02-.11-.02-.23-.03-.34-.02-.16-.02-.33-.08-.48-.04-.03-.08-.05-.12-.08-.13-.07-.27-.11-.39-.2-.09-.04-.17-.1-.25-.16.05.01.1.02.15.04.04,0,.08,0,.12.02-.03-.03-.06-.06-.09-.09-.04-.02-.07-.04-.1-.07-.22-.14-.41-.31-.6-.48-.08-.07-.13-.17-.15-.27,0,.02,0,.07,0,.1-.19-.16-.31-.38-.43-.61-.1-.16-.19-.32-.28-.48-.01-.04-.02-.08-.03-.13-.02-.1-.04-.2-.06-.3-.01-.05-.03-.11-.04-.16-.01-.07-.02-.13-.03-.2-.04-.19-.01-.38-.02-.57-.01-.23.03-.45.09-.67.05-.28.13-.56.28-.81.18-.38.4-.74.72-1.01.18-.17.36-.33.59-.43.05-.04.11-.08.17-.1.22-.09.44-.2.67-.28.06-.02.13-.03.2-.03.08-.01.15-.02.23-.03M6.25,3.43c-.11.02-.22.05-.33.07-.1.04-.2.07-.3.1-.22.13-.47.22-.67.38-.17.16-.34.31-.49.5-.2.27-.38.55-.49.87-.14.49-.2,1.01-.09,1.51.01.05.02.11.03.17.06.2.13.4.23.59.15.27.34.51.54.74.23.2.47.38.74.51.19.08.39.14.59.2.06,0,.11.02.17.03.14.01.27.04.41.05.15,0,.29-.04.44-.05.05-.01.11-.02.16-.04.04-.01.09-.02.13-.03.13-.04.26-.09.4-.13.15-.07.29-.15.43-.24.07-.06.15-.11.23-.16.13-.12.28-.23.38-.37.31-.33.51-.74.63-1.17.09-.4.12-.82.03-1.22-.01-.06-.02-.11-.03-.17-.04-.16-.09-.31-.14-.47,0-.06,0-.12-.05-.16-.09-.06-.13-.17-.17-.27-.05-.12-.11-.24-.19-.34-.01.04,0,.08.01.11,0,0-.03,0-.04,0-.03-.04-.06-.08-.09-.12.03,0,.08.02.1.02-.08-.09-.19-.16-.27-.25-.14-.16-.31-.28-.47-.42.05.08.11.15.17.22-.08-.04-.17-.08-.25-.13-.14-.1-.31-.13-.46-.21-.12-.04-.24-.06-.36-.1-.06-.01-.11-.02-.17-.03-.13,0-.26,0-.38-.03-.13.02-.27.02-.4.03Z"/>
  <path class="cls-2" d="M6.03,3.97c.15-.05.31-.08.47-.08,0,0,0,.02.01.02-.05.01-.09.03-.14.04-.1.03-.21.06-.32.08,0-.02-.02-.05-.03-.07Z"/>
  <path class="cls-2" d="M6.2,4.1c.09-.04.18-.07.28-.07-.09.06-.2.09-.3.14-.04,0-.07,0-.11,0,0-.06.08-.08.13-.06Z"/>
  <path class="cls-2" d="M4.83,4.51c.25-.2.56-.33.86-.46,0,.07-.01.13-.02.2.07.04.14.06.21.05-.18.12-.33.29-.49.44-.15.14-.26.31-.39.47-.05.1-.11.19-.16.29-.03.12-.07.24-.14.34,0-.12,0-.25,0-.37-.03.03-.07.07-.1.11-.07,0-.14.03-.21.04.02-.08.04-.16.07-.24.03-.1.07-.2.11-.29-.02-.01-.07-.03-.09-.04.09-.19.25-.35.36-.53Z"/>
  <path class="cls-3" d="M7.4,8.08c-.04-1.16-.09-2.32-.17-3.48.28-.07.58-.04.86-.07.01.02.04.05.05.06.03,1.13.05,2.29.12,3.42"/>
  <path class="cls-2" d="M6.08,5.56s.05-.04.09-.04c.26,0,.51,0,.77-.01,0,.27.03.53.03.8.04.22.03.44.03.66.04.24.03.48.04.72.01.14.03.27.03.41-.28.03-.55.03-.83.06-.05-.34-.01-.68-.06-1.02,0-.32-.05-.63-.04-.95-.03-.2-.03-.41-.05-.62Z"/>
  <path class="cls-2" d="M4.43,5.85s.04,0,.05.01c-.02.09-.05.19-.09.27,0,0,0,.03.01.04-.01.02-.04.07-.05.09-.02-.14.02-.29.07-.42Z"/>
  <path class="cls-3" d="M1.41,6.09s.09-.08.13-.12c.03,0,.09,0,.12.01.07.25.13.51.22.76.06.15.1.31.14.47.07.2.14.39.2.59.01.03.02.06.03.1.06.16.12.33.16.49.04.09.07.18.11.27.01-.44.04-.87.09-1.3.07-.02.15-.04.22-.07.09.16.16.33.24.49.13,0,.26,0,.39-.04.06.13.15.24.22.37-.05,0-.09,0-.14,0-.17.03-.34.09-.51.09-.06-.05-.1-.11-.15-.15,0,.46-.05.91-.04,1.37-.01.18-.03.36-.06.54-.02-.01-.05-.04-.06-.05,0,.01-.02.03-.03.04.02.08.03.15.03.23-.05-.09-.05-.25-.18-.27-.02-.05-.03-.1-.05-.14-.03-.07-.05-.13-.06-.2-.04-.14-.09-.28-.13-.43-.02-.08-.04-.15-.06-.23-.1-.23-.15-.48-.25-.71-.11-.28-.19-.57-.31-.84,0,.06,0,.12-.02.18,0,.17,0,.34-.03.51-.03.35,0,.7-.04,1.04-.05.02-.09.04-.13.07-.02,0-.05.02-.07.02-.14-.21-.23-.45-.38-.66-.34.02-.69.08-1.03.05.03-.07.06-.13.1-.2.02,0,.05,0,.07-.01.2-.08.41-.11.61-.18.09-.09.09-.27.23-.31.14.13.22.3.32.46,0-.22-.01-.44.03-.65.03-.18-.02-.37,0-.55.02-.21-.02-.42,0-.63.01-.16-.02-.33,0-.49.01.02.04.05.06.07Z"/>
  <path class="cls-2" d="M5.39,6.35c.13-.02.25-.02.38-.01-.01.31.04.61.04.92.02.22.04.44.04.66.01.08.02.16.02.24-.27.04-.55.06-.82.06,0-.26-.05-.53-.04-.79.02-.21-.05-.41-.03-.62.01-.14-.02-.27-.03-.4.15-.06.3-.03.45-.05Z"/>
  <path class="cls-2" d="M10.13,8.52s.06.02.09.02c.03.03.07.05.1.08,0,.02,0,.07,0,.09.03-.02.06-.04.09-.06-.03.02-.07.05-.1.07,0,.03.01.08.02.11.24.18.44.41.67.61.12.1.22.22.34.31.18.14.31.32.49.46.1.07.18.17.28.25.08.06.17.12.2.22.05.18.04.39-.05.56-.12.22-.31.41-.54.51-.15.03-.32.08-.47,0-.25-.23-.48-.48-.72-.72-.13-.14-.27-.26-.38-.4-.26-.27-.54-.53-.78-.82-.11-.05-.2-.15-.19-.28.02-.07.06-.14.1-.21-.08-.09-.17-.17-.26-.24.11-.13.21-.27.35-.38.07-.05.13-.11.2-.17.09.06.17.14.25.21.04-.05.09-.09.13-.13.07-.03.14-.06.21-.1M10.39,10.32c.07.13.19.21.28.33.24.26.46.52.71.76.07-.13.14-.27.25-.37.08-.09.2-.17.2-.3-.15.13-.28.27-.42.4-.21-.14-.4-.31-.59-.47-.14-.11-.26-.26-.42-.36Z"/>
  <path class="cls-3" d="M11.01,8.79c.16.07.32.17.46.27.13.1.27.18.4.27.05,0,.11,0,.16,0,.08-.17.18-.33.28-.49,0,.05,0,.1,0,.16.03.14.06.28.07.42.02.15.1.29.09.44.2.18.38.39.59.56-.02.24-.15.45-.23.68-.02.04-.04.09-.07.13-.08.12-.13.26-.24.36.01-.03.03-.07.05-.1.03-.08.06-.16.1-.23.02-.08.04-.15.06-.23,0-.09,0-.17,0-.26-.01-.05-.02-.11-.03-.17-.04-.08-.06-.17-.13-.24-.09-.09-.19-.16-.27-.26-.11-.13-.26-.22-.38-.35-.22-.2-.42-.43-.64-.64-.1-.11-.22-.2-.31-.33Z"/>
  <path class="cls-3" d="M8.45,9.86c.08-.13.22-.2.35-.25,0,.09-.03.2.03.28.17.23.39.42.57.65.08.09.17.16.25.25-.13-.08-.25-.19-.37-.28-.11-.08-.21-.19-.33-.26-.13-.08-.21-.2-.32-.3-.07,0-.14-.02-.17-.08Z"/>
  <path class="cls-3" d="M8.09,9.95c.09-.04.18-.07.27-.11-.25.33-.42.7-.67,1.02-.18.3-.37.6-.57.89,0,.06,0,.11-.02.17-.08-.08-.06-.19-.06-.29,0-.27,0-.54,0-.8-.01-.06-.02-.12-.03-.18.09-.09.18-.17.27-.26,0,.05.02.11.03.16.12-.11.21-.26.33-.37.11-.14.28-.19.44-.24Z"/>
  <path class="cls-2" d="M6.28,10.22c.2,0,.4,0,.6-.04-.15.19-.37.31-.55.47-.11.1-.25.17-.37.25.02-.07.05-.13.07-.2,0-.07.02-.14.04-.21,0-.02,0-.07,0-.09.08-.06.15-.12.23-.19Z"/>
  <path class="cls-3" d="M10.36,11.51c.11.08.2.18.31.26.13.11.23.27.39.33.08.03.16.08.24.1.09.02.18,0,.27,0-.17.08-.36.11-.55.06-.09-.02-.14-.11-.19-.17-.08-.1-.16-.19-.24-.29-.08-.09-.16-.19-.23-.3Z"/>
</svg>